%TF.GenerationSoftware,KiCad,Pcbnew,(6.0.6-0)*%
%TF.CreationDate,2022-09-20T04:26:41+09:00*%
%TF.ProjectId,EPM3032_DEV,45504d33-3033-4325-9f44-45562e6b6963,rev?*%
%TF.SameCoordinates,Original*%
%TF.FileFunction,Copper,L1,Top*%
%TF.FilePolarity,Positive*%
%FSLAX46Y46*%
G04 Gerber Fmt 4.6, Leading zero omitted, Abs format (unit mm)*
G04 Created by KiCad (PCBNEW (6.0.6-0)) date 2022-09-20 04:26:41*
%MOMM*%
%LPD*%
G01*
G04 APERTURE LIST*
G04 Aperture macros list*
%AMRoundRect*
0 Rectangle with rounded corners*
0 $1 Rounding radius*
0 $2 $3 $4 $5 $6 $7 $8 $9 X,Y pos of 4 corners*
0 Add a 4 corners polygon primitive as box body*
4,1,4,$2,$3,$4,$5,$6,$7,$8,$9,$2,$3,0*
0 Add four circle primitives for the rounded corners*
1,1,$1+$1,$2,$3*
1,1,$1+$1,$4,$5*
1,1,$1+$1,$6,$7*
1,1,$1+$1,$8,$9*
0 Add four rect primitives between the rounded corners*
20,1,$1+$1,$2,$3,$4,$5,0*
20,1,$1+$1,$4,$5,$6,$7,0*
20,1,$1+$1,$6,$7,$8,$9,0*
20,1,$1+$1,$8,$9,$2,$3,0*%
%AMRotRect*
0 Rectangle, with rotation*
0 The origin of the aperture is its center*
0 $1 length*
0 $2 width*
0 $3 Rotation angle, in degrees counterclockwise*
0 Add horizontal line*
21,1,$1,$2,0,0,$3*%
G04 Aperture macros list end*
%TA.AperFunction,SMDPad,CuDef*%
%ADD10RoundRect,0.237500X0.300000X0.237500X-0.300000X0.237500X-0.300000X-0.237500X0.300000X-0.237500X0*%
%TD*%
%TA.AperFunction,ComponentPad*%
%ADD11R,1.700000X1.700000*%
%TD*%
%TA.AperFunction,ComponentPad*%
%ADD12O,1.700000X1.700000*%
%TD*%
%TA.AperFunction,SMDPad,CuDef*%
%ADD13RoundRect,0.237500X0.237500X-0.250000X0.237500X0.250000X-0.237500X0.250000X-0.237500X-0.250000X0*%
%TD*%
%TA.AperFunction,SMDPad,CuDef*%
%ADD14RoundRect,0.237500X-0.300000X-0.237500X0.300000X-0.237500X0.300000X0.237500X-0.300000X0.237500X0*%
%TD*%
%TA.AperFunction,SMDPad,CuDef*%
%ADD15RoundRect,0.237500X-0.237500X0.250000X-0.237500X-0.250000X0.237500X-0.250000X0.237500X0.250000X0*%
%TD*%
%TA.AperFunction,SMDPad,CuDef*%
%ADD16RotRect,1.500000X0.550000X315.000000*%
%TD*%
%TA.AperFunction,SMDPad,CuDef*%
%ADD17RotRect,1.500000X0.550000X45.000000*%
%TD*%
%TA.AperFunction,ViaPad*%
%ADD18C,0.800000*%
%TD*%
%TA.AperFunction,Conductor*%
%ADD19C,0.250000*%
%TD*%
G04 APERTURE END LIST*
D10*
%TO.P,C3,1*%
%TO.N,VCC*%
X120242500Y-104140000D03*
%TO.P,C3,2*%
%TO.N,GND*%
X118517500Y-104140000D03*
%TD*%
D11*
%TO.P,J1,1,Pin_1*%
%TO.N,/TCK*%
X124455000Y-78735000D03*
D12*
%TO.P,J1,2,Pin_2*%
%TO.N,GND*%
X124455000Y-81275000D03*
%TO.P,J1,3,Pin_3*%
%TO.N,/TDO*%
X121915000Y-78735000D03*
%TO.P,J1,4,Pin_4*%
%TO.N,VCC*%
X121915000Y-81275000D03*
%TO.P,J1,5,Pin_5*%
%TO.N,/TMS*%
X119375000Y-78735000D03*
%TO.P,J1,6,Pin_6*%
%TO.N,unconnected-(J1-Pad6)*%
X119375000Y-81275000D03*
%TO.P,J1,7,Pin_7*%
%TO.N,unconnected-(J1-Pad7)*%
X116835000Y-78735000D03*
%TO.P,J1,8,Pin_8*%
%TO.N,unconnected-(J1-Pad8)*%
X116835000Y-81275000D03*
%TO.P,J1,9,Pin_9*%
%TO.N,/TDI*%
X114295000Y-78735000D03*
%TO.P,J1,10,Pin_10*%
%TO.N,GND*%
X114295000Y-81275000D03*
%TD*%
D10*
%TO.P,C4,1*%
%TO.N,VCC*%
X127862500Y-91440000D03*
%TO.P,C4,2*%
%TO.N,GND*%
X126137500Y-91440000D03*
%TD*%
D13*
%TO.P,R2,1*%
%TO.N,/TMS*%
X119380000Y-76477500D03*
%TO.P,R2,2*%
%TO.N,VCC*%
X119380000Y-74652500D03*
%TD*%
D11*
%TO.P,J2,1,Pin_1*%
%TO.N,/P1*%
X107950000Y-73665000D03*
D12*
%TO.P,J2,2,Pin_2*%
%TO.N,/P2*%
X107950000Y-76205000D03*
%TO.P,J2,3,Pin_3*%
%TO.N,/P4*%
X107950000Y-78745000D03*
%TO.P,J2,4,Pin_4*%
%TO.N,/P5*%
X107950000Y-81285000D03*
%TO.P,J2,5,Pin_5*%
%TO.N,/P6*%
X107950000Y-83825000D03*
%TO.P,J2,6,Pin_6*%
%TO.N,/P8*%
X107950000Y-86365000D03*
%TO.P,J2,7,Pin_7*%
%TO.N,/P9*%
X107950000Y-88905000D03*
%TO.P,J2,8,Pin_8*%
%TO.N,/P11*%
X107950000Y-91445000D03*
%TO.P,J2,9,Pin_9*%
%TO.N,/P12*%
X107950000Y-93985000D03*
%TO.P,J2,10,Pin_10*%
%TO.N,/P14*%
X107950000Y-96525000D03*
%TO.P,J2,11,Pin_11*%
%TO.N,/P16*%
X107950000Y-99065000D03*
%TO.P,J2,12,Pin_12*%
%TO.N,/P18*%
X107950000Y-101605000D03*
%TO.P,J2,13,Pin_13*%
%TO.N,/P19*%
X107950000Y-104145000D03*
%TO.P,J2,14,Pin_14*%
%TO.N,/P20*%
X107950000Y-106685000D03*
%TO.P,J2,15,Pin_15*%
%TO.N,/P21*%
X107950000Y-109225000D03*
%TD*%
D14*
%TO.P,C2,1*%
%TO.N,VCC*%
X112167500Y-101600000D03*
%TO.P,C2,2*%
%TO.N,GND*%
X113892500Y-101600000D03*
%TD*%
D11*
%TO.P,J3,1,Pin_1*%
%TO.N,/P44*%
X130810000Y-73665000D03*
D12*
%TO.P,J3,2,Pin_2*%
%TO.N,/P43*%
X130810000Y-76205000D03*
%TO.P,J3,3,Pin_3*%
%TO.N,/P41*%
X130810000Y-78745000D03*
%TO.P,J3,4,Pin_4*%
%TO.N,/P40*%
X130810000Y-81285000D03*
%TO.P,J3,5,Pin_5*%
%TO.N,/P39*%
X130810000Y-83825000D03*
%TO.P,J3,6,Pin_6*%
%TO.N,/P37*%
X130810000Y-86365000D03*
%TO.P,J3,7,Pin_7*%
%TO.N,/P34*%
X130810000Y-88905000D03*
%TO.P,J3,8,Pin_8*%
%TO.N,/P33*%
X130810000Y-91445000D03*
%TO.P,J3,9,Pin_9*%
%TO.N,/P31*%
X130810000Y-93985000D03*
%TO.P,J3,10,Pin_10*%
%TO.N,/P29*%
X130810000Y-96525000D03*
%TO.P,J3,11,Pin_11*%
%TO.N,/P28*%
X130810000Y-99065000D03*
%TO.P,J3,12,Pin_12*%
%TO.N,/P27*%
X130810000Y-101605000D03*
%TO.P,J3,13,Pin_13*%
%TO.N,/P26*%
X130810000Y-104145000D03*
%TO.P,J3,14,Pin_14*%
%TO.N,/P25*%
X130810000Y-106685000D03*
%TO.P,J3,15,Pin_15*%
%TO.N,/P24*%
X130810000Y-109225000D03*
%TD*%
D13*
%TO.P,R4,1*%
%TO.N,/TDI*%
X114300000Y-76477500D03*
%TO.P,R4,2*%
%TO.N,VCC*%
X114300000Y-74652500D03*
%TD*%
D15*
%TO.P,R3,1*%
%TO.N,GND*%
X124460000Y-74652500D03*
%TO.P,R3,2*%
%TO.N,/TCK*%
X124460000Y-76477500D03*
%TD*%
D10*
%TO.P,C1,1*%
%TO.N,VCC*%
X115797500Y-87630000D03*
%TO.P,C1,2*%
%TO.N,GND*%
X114072500Y-87630000D03*
%TD*%
D13*
%TO.P,R1,1*%
%TO.N,/TDO*%
X121920000Y-76477500D03*
%TO.P,R1,2*%
%TO.N,VCC*%
X121920000Y-74652500D03*
%TD*%
D16*
%TO.P,U1,1,I/GCLRn*%
%TO.N,/P1*%
X118177918Y-88391064D03*
%TO.P,U1,2,I/OE2/GCLK2*%
%TO.N,/P2*%
X117612233Y-88956750D03*
%TO.P,U1,3,VCC*%
%TO.N,VCC*%
X117046548Y-89522435D03*
%TO.P,U1,4,I/O*%
%TO.N,/P4*%
X116480862Y-90088120D03*
%TO.P,U1,5,I/O*%
%TO.N,/P5*%
X115915177Y-90653806D03*
%TO.P,U1,6,I/O*%
%TO.N,/P6*%
X115349491Y-91219491D03*
%TO.P,U1,7,I/O/TDI*%
%TO.N,/TDI*%
X114783806Y-91785177D03*
%TO.P,U1,8,I/O*%
%TO.N,/P8*%
X114218120Y-92350862D03*
%TO.P,U1,9,I/O*%
%TO.N,/P9*%
X113652435Y-92916548D03*
%TO.P,U1,10,GND*%
%TO.N,GND*%
X113086750Y-93482233D03*
%TO.P,U1,11,I/O*%
%TO.N,/P11*%
X112521064Y-94047918D03*
D17*
%TO.P,U1,12,I/O*%
%TO.N,/P12*%
X112521064Y-96452082D03*
%TO.P,U1,13,I/O/TMS*%
%TO.N,/TMS*%
X113086750Y-97017767D03*
%TO.P,U1,14,I/O*%
%TO.N,/P14*%
X113652435Y-97583452D03*
%TO.P,U1,15,VCC*%
%TO.N,VCC*%
X114218120Y-98149138D03*
%TO.P,U1,16,I/O*%
%TO.N,/P16*%
X114783806Y-98714823D03*
%TO.P,U1,17,GND*%
%TO.N,GND*%
X115349491Y-99280509D03*
%TO.P,U1,18,I/O*%
%TO.N,/P18*%
X115915177Y-99846194D03*
%TO.P,U1,19,I/O*%
%TO.N,/P19*%
X116480862Y-100411880D03*
%TO.P,U1,20,I/O*%
%TO.N,/P20*%
X117046548Y-100977565D03*
%TO.P,U1,21,I/O*%
%TO.N,/P21*%
X117612233Y-101543250D03*
%TO.P,U1,22,GND*%
%TO.N,GND*%
X118177918Y-102108936D03*
D16*
%TO.P,U1,23,VCC*%
%TO.N,VCC*%
X120582082Y-102108936D03*
%TO.P,U1,24,I/O*%
%TO.N,/P24*%
X121147767Y-101543250D03*
%TO.P,U1,25,I/O*%
%TO.N,/P25*%
X121713452Y-100977565D03*
%TO.P,U1,26,I/O*%
%TO.N,/P26*%
X122279138Y-100411880D03*
%TO.P,U1,27,I/O*%
%TO.N,/P27*%
X122844823Y-99846194D03*
%TO.P,U1,28,I/O*%
%TO.N,/P28*%
X123410509Y-99280509D03*
%TO.P,U1,29,I/O*%
%TO.N,/P29*%
X123976194Y-98714823D03*
%TO.P,U1,30,GND*%
%TO.N,GND*%
X124541880Y-98149138D03*
%TO.P,U1,31,I/O*%
%TO.N,/P31*%
X125107565Y-97583452D03*
%TO.P,U1,32,I/O/TCK*%
%TO.N,/TCK*%
X125673250Y-97017767D03*
%TO.P,U1,33,I/O*%
%TO.N,/P33*%
X126238936Y-96452082D03*
D17*
%TO.P,U1,34,I/O*%
%TO.N,/P34*%
X126238936Y-94047918D03*
%TO.P,U1,35,VCC*%
%TO.N,VCC*%
X125673250Y-93482233D03*
%TO.P,U1,36,GND*%
%TO.N,GND*%
X125107565Y-92916548D03*
%TO.P,U1,37,I/O*%
%TO.N,/P37*%
X124541880Y-92350862D03*
%TO.P,U1,38,I/O/TDO*%
%TO.N,/TDO*%
X123976194Y-91785177D03*
%TO.P,U1,39,I/O*%
%TO.N,/P39*%
X123410509Y-91219491D03*
%TO.P,U1,40,I/O*%
%TO.N,/P40*%
X122844823Y-90653806D03*
%TO.P,U1,41,I/O*%
%TO.N,/P41*%
X122279138Y-90088120D03*
%TO.P,U1,42,GND*%
%TO.N,GND*%
X121713452Y-89522435D03*
%TO.P,U1,43,I/GCLK1*%
%TO.N,/P43*%
X121147767Y-88956750D03*
%TO.P,U1,44,I/OE1*%
%TO.N,/P44*%
X120582082Y-88391064D03*
%TD*%
D18*
%TO.N,/TCK*%
X124752900Y-95920500D03*
%TO.N,/TDO*%
X124989900Y-89874700D03*
%TO.N,/TMS*%
X113986500Y-96003300D03*
%TO.N,/TDI*%
X116032400Y-92452200D03*
%TO.N,/P1*%
X118481600Y-91179100D03*
%TO.N,/P2*%
X118315900Y-90176500D03*
%TO.N,/P16*%
X113804100Y-99694500D03*
%TD*%
D19*
%TO.N,VCC*%
X115797500Y-87630000D02*
X115798000Y-87630000D01*
X120582100Y-102108900D02*
X119821800Y-101348600D01*
X119380000Y-74652500D02*
X114300000Y-74652500D01*
X115798000Y-88273400D02*
X117047000Y-89522400D01*
X113119600Y-75832900D02*
X114300000Y-74652500D01*
X125673200Y-93482200D02*
X125673100Y-93482100D01*
X120582100Y-102117300D02*
X120582100Y-102108900D01*
X127862000Y-91440000D02*
X127862500Y-91440000D01*
X121547700Y-80099700D02*
X120714700Y-79266700D01*
X117047000Y-89522400D02*
X117046500Y-89522400D01*
X122000300Y-97154900D02*
X125673000Y-93482200D01*
X120582000Y-103800000D02*
X120242300Y-104139700D01*
X120714700Y-75857800D02*
X121920000Y-74652500D01*
X115798000Y-88273400D02*
X115626200Y-88445200D01*
X114218100Y-98149100D02*
X114978500Y-97388700D01*
X120242300Y-104139800D02*
X120242300Y-104139700D01*
X117443600Y-94923600D02*
X117590500Y-94923600D01*
X120242500Y-104140000D02*
X120242300Y-104139800D01*
X112168000Y-101600000D02*
X112168000Y-100200000D01*
X119821800Y-97154900D02*
X119821800Y-101348600D01*
X120242300Y-104139700D02*
X120242000Y-104140000D01*
X114978500Y-97388700D02*
X117443600Y-94923600D01*
X113510100Y-88445200D02*
X113119600Y-88054700D01*
X125673300Y-93482200D02*
X125673200Y-93482200D01*
X115626200Y-88445200D02*
X113510100Y-88445200D01*
X119509400Y-74652500D02*
X119380000Y-74652500D01*
X120582000Y-102109000D02*
X120582000Y-102117400D01*
X117590500Y-94923600D02*
X119821800Y-97154900D01*
X115798000Y-87630000D02*
X115798000Y-88273400D01*
X127715000Y-91440000D02*
X125673100Y-93482100D01*
X121915000Y-81275000D02*
X121915000Y-80099700D01*
X120714700Y-75857800D02*
X119509400Y-74652500D01*
X119821800Y-97154900D02*
X122000300Y-97154900D01*
X120714700Y-79266700D02*
X120714700Y-75857800D01*
X127862000Y-91440000D02*
X127715000Y-91440000D01*
X113119600Y-88054700D02*
X113119600Y-75832900D01*
X121915000Y-80099700D02*
X121547700Y-80099700D01*
X117590500Y-94923600D02*
X117590500Y-90065900D01*
X120582000Y-102117400D02*
X120582100Y-102117300D01*
X114218100Y-98149100D02*
X114218000Y-98149100D01*
X112167500Y-101600000D02*
X112168000Y-101600000D01*
X120582000Y-102117400D02*
X120582000Y-103800000D01*
X125673100Y-93482100D02*
X125673000Y-93482200D01*
X117590500Y-90065900D02*
X117047000Y-89522400D01*
X112168000Y-100200000D02*
X114218000Y-98149100D01*
%TO.N,GND*%
X121713500Y-89522400D02*
X121713000Y-89522400D01*
X113086700Y-93482200D02*
X113596500Y-93992000D01*
X126218900Y-98805800D02*
X125405900Y-98805800D01*
X131242700Y-110461700D02*
X124839700Y-110461700D01*
X116408500Y-98782500D02*
X118687800Y-101061800D01*
X121229100Y-90006500D02*
X121229000Y-90006500D01*
X118178000Y-103800000D02*
X118518000Y-104140000D01*
X113892500Y-101597100D02*
X113892500Y-101600000D01*
X125108000Y-92916500D02*
X125107600Y-92916500D01*
X125405900Y-98805800D02*
X125302300Y-98909400D01*
X118177900Y-102108900D02*
X118938300Y-101348500D01*
X115847500Y-98782500D02*
X116408500Y-98782500D01*
X113892000Y-101596600D02*
X113892500Y-101597100D01*
X132023900Y-94467500D02*
X131331000Y-95160400D01*
X124541900Y-98149100D02*
X125302300Y-98909400D01*
X118178000Y-102142800D02*
X118178000Y-103800000D01*
X131328700Y-87728800D02*
X132023900Y-88424000D01*
X121229000Y-90006500D02*
X121713000Y-89522400D01*
X119380000Y-87439600D02*
X123254700Y-83564900D01*
X124086000Y-93415600D02*
X124057600Y-93415600D01*
X126138000Y-91460500D02*
X126137500Y-91460000D01*
X126137500Y-91460000D02*
X126137500Y-91440000D01*
X113892000Y-101600000D02*
X113892000Y-101596600D01*
X118687800Y-101061800D02*
X118687800Y-101098100D01*
X131331000Y-95160400D02*
X129864300Y-95160400D01*
X113892000Y-101596600D02*
X113892000Y-101593200D01*
X124455000Y-81275000D02*
X123279700Y-81275000D01*
X112951500Y-95139200D02*
X111106200Y-95139200D01*
X118177900Y-102142700D02*
X118177900Y-102108900D01*
X110121700Y-100910100D02*
X111641500Y-102429900D01*
X126138000Y-91460500D02*
X126138000Y-91481000D01*
X114072500Y-87629500D02*
X114760000Y-86942000D01*
X124839700Y-110461700D02*
X118518000Y-104140000D01*
X113892000Y-100738000D02*
X115349000Y-99280500D01*
X126138000Y-91481000D02*
X129890200Y-87728800D01*
X126138000Y-91481000D02*
X126138000Y-91886600D01*
X123279700Y-75832800D02*
X124460000Y-74652500D01*
X125107600Y-92916500D02*
X124347300Y-93676800D01*
X108344200Y-97795000D02*
X110121700Y-99572500D01*
X115349500Y-99280500D02*
X115689900Y-98940100D01*
X131985400Y-109719000D02*
X131242700Y-110461700D01*
X114072500Y-87629500D02*
X114072500Y-87630000D01*
X111641500Y-102429900D02*
X113055300Y-102429900D01*
X123279700Y-81275000D02*
X123279700Y-75832800D01*
X123254700Y-81300000D02*
X123279700Y-81275000D01*
X123254700Y-83564900D02*
X123254700Y-81300000D01*
X118518000Y-104140000D02*
X118517500Y-104140000D01*
X114295000Y-81275000D02*
X114295000Y-82450300D01*
X113892000Y-101593200D02*
X113892000Y-100738000D01*
X118178000Y-102142800D02*
X118177900Y-102142700D01*
X119380000Y-88744700D02*
X119380000Y-87439600D01*
X115689900Y-98940100D02*
X115847500Y-98782500D01*
X110121700Y-99572500D02*
X110121700Y-100910100D01*
X118178000Y-102109000D02*
X118178000Y-102142800D01*
X115689400Y-98940100D02*
X115689900Y-98940100D01*
X132023900Y-88424000D02*
X132023900Y-94467500D01*
X124057600Y-93415600D02*
X121229100Y-90587100D01*
X129864300Y-95160400D02*
X126218900Y-98805800D01*
X106729100Y-97062900D02*
X107461200Y-97795000D01*
X129890200Y-87728800D02*
X131328700Y-87728800D01*
X119380000Y-88744700D02*
X120642000Y-90006500D01*
X117465000Y-86830000D02*
X119380000Y-88744700D01*
X107432600Y-92806000D02*
X106729100Y-93509500D01*
X131331000Y-95160400D02*
X131985400Y-95814800D01*
X106729100Y-93509500D02*
X106729100Y-97062900D01*
X114760000Y-86942000D02*
X114872000Y-86830000D01*
X108773000Y-92806000D02*
X107432600Y-92806000D01*
X111106200Y-95139200D02*
X108773000Y-92806000D01*
X121229100Y-90587100D02*
X121229100Y-90006500D01*
X118687800Y-101098100D02*
X118938300Y-101348500D01*
X114760000Y-86942000D02*
X114760000Y-82915300D01*
X114872000Y-86830000D02*
X117465000Y-86830000D01*
X131985400Y-95814800D02*
X131985400Y-109719000D01*
X126138000Y-91886600D02*
X125108000Y-92916500D01*
X124347300Y-93676800D02*
X124086000Y-93415600D01*
X114760000Y-82915300D02*
X114295000Y-82450300D01*
X113596500Y-93992000D02*
X113596500Y-94494200D01*
X113596500Y-94494200D02*
X112951500Y-95139200D01*
X114072000Y-87630000D02*
X114072500Y-87629500D01*
X115349000Y-99280500D02*
X115689400Y-98940100D01*
X126138000Y-91440000D02*
X126138000Y-91460500D01*
X113055300Y-102429900D02*
X113892000Y-101593200D01*
X120642000Y-90006500D02*
X121229000Y-90006500D01*
X107461200Y-97795000D02*
X108344200Y-97795000D01*
%TO.N,/TCK*%
X124455000Y-78735000D02*
X124455000Y-77559700D01*
X124913000Y-96080600D02*
X124913000Y-96257400D01*
X124455000Y-77559700D02*
X124460000Y-77554700D01*
X125673300Y-97017800D02*
X124913000Y-96257400D01*
X124752900Y-95920500D02*
X124913000Y-96080600D01*
X124460000Y-77554700D02*
X124460000Y-76477500D01*
%TO.N,/TDO*%
X124736600Y-91024800D02*
X124736500Y-91024800D01*
X121915000Y-78735000D02*
X121915000Y-77559700D01*
X124989900Y-90325000D02*
X124989900Y-89874700D01*
X121920000Y-77554700D02*
X121920000Y-76477500D01*
X124736500Y-90578400D02*
X124989900Y-90325000D01*
X123976200Y-91785200D02*
X124736600Y-91024800D01*
X124736500Y-91024800D02*
X124736500Y-90578400D01*
X121915000Y-77559700D02*
X121920000Y-77554700D01*
%TO.N,/TMS*%
X119375000Y-78735000D02*
X119375000Y-77559700D01*
X113847000Y-96142800D02*
X113847000Y-96257400D01*
X119375000Y-77559700D02*
X119380000Y-77554700D01*
X113847000Y-96257400D02*
X113847100Y-96257400D01*
X113086700Y-97017800D02*
X113847100Y-96257400D01*
X113986500Y-96003300D02*
X113847000Y-96142800D01*
X119380000Y-77554700D02*
X119380000Y-76477500D01*
%TO.N,/TDI*%
X114783800Y-91785200D02*
X115544200Y-92545500D01*
X114295000Y-77559700D02*
X114300000Y-77554700D01*
X114295000Y-78735000D02*
X114295000Y-77559700D01*
X115637500Y-92452200D02*
X115544200Y-92545500D01*
X114300000Y-77554700D02*
X114300000Y-76477500D01*
X116032400Y-92452200D02*
X115637500Y-92452200D01*
%TO.N,/P1*%
X118481600Y-91179100D02*
X119041400Y-90619300D01*
X119041400Y-89254600D02*
X118177900Y-88391100D01*
X119041400Y-90619300D02*
X119041400Y-89254600D01*
%TO.N,/P2*%
X117612200Y-88956700D02*
X118372600Y-89717000D01*
X118315900Y-90176500D02*
X118315900Y-89773700D01*
X118315900Y-89773700D02*
X118372600Y-89717000D01*
%TO.N,/P4*%
X107950000Y-78745000D02*
X107950000Y-79920300D01*
X115288400Y-88895600D02*
X116480900Y-90088100D01*
X108317300Y-79920300D02*
X112659000Y-84262000D01*
X112659000Y-88231000D02*
X113323600Y-88895600D01*
X112659000Y-84262000D02*
X112659000Y-88231000D01*
X113323600Y-88895600D02*
X115288400Y-88895600D01*
X107950000Y-79920300D02*
X108317300Y-79920300D01*
%TO.N,/P5*%
X110910700Y-85846000D02*
X110956000Y-85891300D01*
X113551500Y-89760400D02*
X114825000Y-89760400D01*
X114958100Y-89893500D02*
X115154800Y-89893500D01*
X112208600Y-87780900D02*
X112208600Y-88417500D01*
X112208600Y-88417500D02*
X113551500Y-89760400D01*
X115154800Y-89893500D02*
X115154900Y-89893400D01*
X107950000Y-81285000D02*
X107950000Y-82460300D01*
X110956000Y-85891400D02*
X111129300Y-86064700D01*
X112029900Y-87602100D02*
X112029900Y-87602200D01*
X107950000Y-82460300D02*
X108335600Y-82460300D01*
X111129300Y-86064700D02*
X111129300Y-86701400D01*
X111129300Y-86701400D02*
X111579600Y-87151700D01*
X112029900Y-87602200D02*
X112208600Y-87780900D01*
X111579600Y-87151800D02*
X112029900Y-87602100D01*
X108335600Y-82460300D02*
X110910700Y-85035400D01*
X111579600Y-87151700D02*
X111579600Y-87151800D01*
X114825000Y-89760400D02*
X114958100Y-89893500D01*
X115915200Y-90653800D02*
X115154900Y-89893400D01*
X110956000Y-85891300D02*
X110956000Y-85891400D01*
X110910700Y-85035400D02*
X110910700Y-85846000D01*
%TO.N,/P6*%
X109676400Y-86609900D02*
X113380100Y-90313600D01*
X107950000Y-83825000D02*
X107950000Y-85000300D01*
X107950000Y-85000300D02*
X108463700Y-85000300D01*
X114443600Y-90313600D02*
X115349500Y-91219500D01*
X108463700Y-85000300D02*
X109676400Y-86213000D01*
X109676400Y-86213000D02*
X109676400Y-86609900D01*
X113380100Y-90313600D02*
X114443600Y-90313600D01*
%TO.N,/P8*%
X109125300Y-87258100D02*
X114218100Y-92350900D01*
X109125300Y-86365000D02*
X109125300Y-87258100D01*
X107950000Y-86365000D02*
X109125300Y-86365000D01*
%TO.N,/P9*%
X109640900Y-88905000D02*
X113652400Y-92916500D01*
X107950000Y-88905000D02*
X109640900Y-88905000D01*
%TO.N,/P11*%
X107950000Y-91445000D02*
X109125300Y-91445000D01*
X111760700Y-93287600D02*
X111760800Y-93287500D01*
X109125300Y-91445000D02*
X110967900Y-93287600D01*
X110967900Y-93287600D02*
X111760700Y-93287600D01*
X112521100Y-94047900D02*
X111760800Y-93287500D01*
%TO.N,/P12*%
X111336300Y-96196000D02*
X111336300Y-96788000D01*
X112521100Y-96452100D02*
X111760800Y-97212400D01*
X107950000Y-93985000D02*
X109125300Y-93985000D01*
X111336300Y-96788000D02*
X111760800Y-97212400D01*
X109125300Y-93985000D02*
X111336300Y-96196000D01*
%TO.N,/P14*%
X113652400Y-97583500D02*
X112892200Y-98343700D01*
X107950000Y-96525000D02*
X109125300Y-96525000D01*
X109125300Y-96525000D02*
X110681800Y-98081500D01*
X112629900Y-98081500D02*
X112892200Y-98343700D01*
X110681800Y-98081500D02*
X112629900Y-98081500D01*
%TO.N,/P16*%
X114783800Y-98714800D02*
X113804100Y-99694500D01*
%TO.N,/P18*%
X110400500Y-102880200D02*
X113947200Y-102880200D01*
X107950000Y-101605000D02*
X109125300Y-101605000D01*
X109125300Y-101605000D02*
X110400500Y-102880200D01*
X113947200Y-102880200D02*
X114756300Y-102071100D01*
X114756300Y-102071100D02*
X114756300Y-101005100D01*
X114756300Y-101005100D02*
X115915200Y-99846200D01*
%TO.N,/P19*%
X115478100Y-102051600D02*
X115478100Y-101414700D01*
X107950000Y-104145000D02*
X113384700Y-104145000D01*
X113384700Y-104145000D02*
X115478100Y-102051600D01*
X115478100Y-101414700D02*
X116480900Y-100411900D01*
%TO.N,/P20*%
X116286300Y-101737900D02*
X116286300Y-101942400D01*
X109754400Y-106685000D02*
X107950000Y-106685000D01*
X110204700Y-106234700D02*
X109754400Y-106685000D01*
X116286300Y-101737800D02*
X116286300Y-101737900D01*
X117046500Y-100977600D02*
X116286300Y-101737800D01*
X111994000Y-106234700D02*
X110204700Y-106234700D01*
X116286300Y-101942400D02*
X111994000Y-106234700D01*
%TO.N,/P21*%
X107950000Y-109225000D02*
X109930500Y-109225000D01*
X109930500Y-109225000D02*
X117612200Y-101543300D01*
%TO.N,/P44*%
X125865300Y-79417700D02*
X125865300Y-83107900D01*
X130810000Y-74840300D02*
X130442700Y-74840300D01*
X125865300Y-83107900D02*
X120582100Y-88391100D01*
X130810000Y-73665000D02*
X130810000Y-74840300D01*
X130442700Y-74840300D02*
X125865300Y-79417700D01*
%TO.N,/P43*%
X124617700Y-85036200D02*
X124617700Y-85486800D01*
X130810000Y-77380300D02*
X130442600Y-77380300D01*
X130442600Y-77380300D02*
X129634700Y-78188200D01*
X124617700Y-85486800D02*
X121147800Y-88956700D01*
X129634700Y-78188200D02*
X129634700Y-80019200D01*
X130810000Y-76205000D02*
X130810000Y-77380300D01*
X129634700Y-80019200D02*
X124617700Y-85036200D01*
%TO.N,/P41*%
X123039400Y-89327700D02*
X123039500Y-89327700D01*
X130810000Y-79920300D02*
X130502400Y-79920300D01*
X127734800Y-84350200D02*
X123039400Y-89045600D01*
X127734800Y-82687900D02*
X127734800Y-84350200D01*
X122279100Y-90088100D02*
X123039500Y-89327700D01*
X123039400Y-89045600D02*
X123039400Y-89327700D01*
X130502400Y-79920300D02*
X127734800Y-82687900D01*
X130810000Y-78745000D02*
X130810000Y-79920300D01*
%TO.N,/P40*%
X123731100Y-89767500D02*
X122844800Y-90653800D01*
X130810000Y-81285000D02*
X130810000Y-82460300D01*
X130484900Y-82460300D02*
X123731100Y-89214100D01*
X123731100Y-89214100D02*
X123731100Y-89767500D01*
X130810000Y-82460300D02*
X130484900Y-82460300D01*
%TO.N,/P39*%
X124264600Y-89574300D02*
X124264600Y-90365400D01*
X130810000Y-83825000D02*
X130013900Y-83825000D01*
X124264600Y-90365400D02*
X123410500Y-91219500D01*
X130013900Y-83825000D02*
X124264600Y-89574300D01*
%TO.N,/P37*%
X130810000Y-86365000D02*
X129634700Y-86365000D01*
X125273700Y-91619100D02*
X125273700Y-90726000D01*
X124541900Y-92350900D02*
X125273700Y-91619100D01*
X125273700Y-90726000D02*
X129634700Y-86365000D01*
%TO.N,/P34*%
X126238900Y-94047900D02*
X126999300Y-93287500D01*
X127359500Y-93287600D02*
X126999300Y-93287600D01*
X130810000Y-88905000D02*
X130810000Y-90080300D01*
X130810000Y-90080300D02*
X130450200Y-90080300D01*
X126999300Y-93287600D02*
X126999300Y-93287500D01*
X129634700Y-91012400D02*
X127359500Y-93287600D01*
X130450200Y-90080300D02*
X129634700Y-90895800D01*
X129634700Y-90895800D02*
X129634700Y-91012400D01*
%TO.N,/P33*%
X130810000Y-91445000D02*
X130810000Y-92620300D01*
X130070700Y-92620300D02*
X126999200Y-95691800D01*
X130810000Y-92620300D02*
X130070700Y-92620300D01*
X126999200Y-95691800D02*
X125478600Y-95691800D01*
X126238900Y-96452100D02*
X125478600Y-95691800D01*
%TO.N,/P31*%
X126142200Y-98081000D02*
X126130600Y-98081000D01*
X126130600Y-98081000D02*
X125867900Y-98343700D01*
X129634700Y-94588500D02*
X126142200Y-98081000D01*
X130810000Y-93985000D02*
X129634700Y-93985000D01*
X125107600Y-97583500D02*
X125867900Y-98343700D01*
X129634700Y-93985000D02*
X129634700Y-94588500D01*
%TO.N,/P29*%
X123976200Y-98714800D02*
X124736600Y-99475100D01*
X130810000Y-96525000D02*
X129634700Y-96525000D01*
X124736600Y-99475100D02*
X126684600Y-99475100D01*
X126684600Y-99475100D02*
X129634700Y-96525000D01*
%TO.N,/P28*%
X123410500Y-99280500D02*
X124170900Y-100040800D01*
X124264800Y-99946900D02*
X124170900Y-100040800D01*
X130810000Y-99065000D02*
X129634700Y-99065000D01*
X129634700Y-99065000D02*
X128752800Y-99946900D01*
X128752800Y-99946900D02*
X124264800Y-99946900D01*
%TO.N,/P27*%
X130810000Y-101605000D02*
X124603600Y-101605000D01*
X124603600Y-101605000D02*
X122844800Y-99846200D01*
%TO.N,/P26*%
X126012200Y-104145000D02*
X122279100Y-100411900D01*
X130810000Y-104145000D02*
X126012200Y-104145000D01*
%TO.N,/P25*%
X127420900Y-106685000D02*
X121713500Y-100977600D01*
X130810000Y-106685000D02*
X127420900Y-106685000D01*
%TO.N,/P24*%
X128829500Y-109225000D02*
X121147800Y-101543300D01*
X130810000Y-109225000D02*
X128829500Y-109225000D01*
%TD*%
%TA.AperFunction,Conductor*%
%TO.N,GND*%
G36*
X132657121Y-71775002D02*
G01*
X132703614Y-71828658D01*
X132715000Y-71881000D01*
X132715000Y-110999000D01*
X132694998Y-111067121D01*
X132641342Y-111113614D01*
X132589000Y-111125000D01*
X106171000Y-111125000D01*
X106102879Y-111104998D01*
X106056386Y-111051342D01*
X106045000Y-110999000D01*
X106045000Y-109191695D01*
X106587251Y-109191695D01*
X106587548Y-109196848D01*
X106587548Y-109196851D01*
X106593011Y-109291590D01*
X106600110Y-109414715D01*
X106601247Y-109419761D01*
X106601248Y-109419767D01*
X106621119Y-109507939D01*
X106649222Y-109632639D01*
X106709014Y-109779890D01*
X106726662Y-109823351D01*
X106733266Y-109839616D01*
X106747731Y-109863220D01*
X106847291Y-110025688D01*
X106849987Y-110030088D01*
X106996250Y-110198938D01*
X107168126Y-110341632D01*
X107361000Y-110454338D01*
X107569692Y-110534030D01*
X107574760Y-110535061D01*
X107574763Y-110535062D01*
X107682017Y-110556883D01*
X107788597Y-110578567D01*
X107793772Y-110578757D01*
X107793774Y-110578757D01*
X108006673Y-110586564D01*
X108006677Y-110586564D01*
X108011837Y-110586753D01*
X108016957Y-110586097D01*
X108016959Y-110586097D01*
X108228288Y-110559025D01*
X108228289Y-110559025D01*
X108233416Y-110558368D01*
X108238366Y-110556883D01*
X108442429Y-110495661D01*
X108442434Y-110495659D01*
X108447384Y-110494174D01*
X108647994Y-110395896D01*
X108829860Y-110266173D01*
X108988096Y-110108489D01*
X109047594Y-110025689D01*
X109115435Y-109931277D01*
X109118453Y-109927077D01*
X109120746Y-109922437D01*
X109122446Y-109919608D01*
X109174674Y-109871518D01*
X109230451Y-109858500D01*
X109851733Y-109858500D01*
X109862916Y-109859027D01*
X109870409Y-109860702D01*
X109878335Y-109860453D01*
X109878336Y-109860453D01*
X109938486Y-109858562D01*
X109942445Y-109858500D01*
X109970356Y-109858500D01*
X109974291Y-109858003D01*
X109974356Y-109857995D01*
X109986193Y-109857062D01*
X110018451Y-109856048D01*
X110022470Y-109855922D01*
X110030389Y-109855673D01*
X110049843Y-109850021D01*
X110069200Y-109846013D01*
X110081430Y-109844468D01*
X110081431Y-109844468D01*
X110089297Y-109843474D01*
X110096668Y-109840555D01*
X110096670Y-109840555D01*
X110130412Y-109827196D01*
X110141642Y-109823351D01*
X110176483Y-109813229D01*
X110176484Y-109813229D01*
X110184093Y-109811018D01*
X110190912Y-109806985D01*
X110190917Y-109806983D01*
X110201528Y-109800707D01*
X110219276Y-109792012D01*
X110238117Y-109784552D01*
X110258487Y-109769753D01*
X110273887Y-109758564D01*
X110283807Y-109752048D01*
X110315035Y-109733580D01*
X110315038Y-109733578D01*
X110321862Y-109729542D01*
X110336183Y-109715221D01*
X110351217Y-109702380D01*
X110352932Y-109701134D01*
X110367607Y-109690472D01*
X110395798Y-109656395D01*
X110403788Y-109647616D01*
X117238837Y-102812567D01*
X117301149Y-102778541D01*
X117310070Y-102776935D01*
X117411657Y-102762387D01*
X117411660Y-102762386D01*
X117420543Y-102761114D01*
X117553139Y-102700827D01*
X117559292Y-102695880D01*
X117559295Y-102695878D01*
X117599223Y-102663774D01*
X117601885Y-102661634D01*
X118730617Y-101532902D01*
X118757449Y-101499530D01*
X118764861Y-101490312D01*
X118764863Y-101490309D01*
X118769810Y-101484156D01*
X118811503Y-101392456D01*
X118826383Y-101359729D01*
X118826383Y-101359728D01*
X118830097Y-101351560D01*
X118837992Y-101296436D01*
X118849473Y-101216263D01*
X118850746Y-101207374D01*
X118839904Y-101131669D01*
X118831370Y-101072074D01*
X118831369Y-101072071D01*
X118830097Y-101063188D01*
X118825119Y-101052238D01*
X118789289Y-100973434D01*
X118769810Y-100930592D01*
X118764863Y-100924439D01*
X118764861Y-100924436D01*
X118732757Y-100884508D01*
X118730617Y-100881846D01*
X118273637Y-100424866D01*
X118224891Y-100385673D01*
X118226420Y-100383771D01*
X118206027Y-100363378D01*
X118204125Y-100364907D01*
X118167072Y-100318823D01*
X118164932Y-100316161D01*
X117707952Y-99859181D01*
X117659206Y-99819988D01*
X117660738Y-99818082D01*
X117640347Y-99797688D01*
X117638439Y-99799222D01*
X117620996Y-99777528D01*
X117599246Y-99750476D01*
X117142266Y-99293496D01*
X117093520Y-99254303D01*
X117095054Y-99252395D01*
X117074660Y-99232004D01*
X117072754Y-99233536D01*
X117035701Y-99187452D01*
X117033561Y-99184790D01*
X116576581Y-98727810D01*
X116558196Y-98713028D01*
X116533991Y-98693566D01*
X116533988Y-98693564D01*
X116527835Y-98688617D01*
X116395239Y-98628330D01*
X116386356Y-98627058D01*
X116386353Y-98627057D01*
X116259942Y-98608954D01*
X116251053Y-98607681D01*
X116150509Y-98622080D01*
X116080241Y-98611938D01*
X116026611Y-98565415D01*
X116006647Y-98497283D01*
X116007920Y-98479491D01*
X116021046Y-98387836D01*
X116022319Y-98378947D01*
X116001670Y-98234761D01*
X115941383Y-98102165D01*
X115936436Y-98096012D01*
X115936434Y-98096009D01*
X115904330Y-98056081D01*
X115902190Y-98053419D01*
X115645033Y-97796262D01*
X115611007Y-97733950D01*
X115616072Y-97663135D01*
X115645033Y-97618072D01*
X117427955Y-95835150D01*
X117490267Y-95801124D01*
X117561082Y-95806189D01*
X117606145Y-95835150D01*
X119151395Y-97380400D01*
X119185421Y-97442712D01*
X119188300Y-97469495D01*
X119188300Y-101269833D01*
X119187773Y-101281016D01*
X119186098Y-101288509D01*
X119186347Y-101296435D01*
X119186347Y-101296436D01*
X119188238Y-101356586D01*
X119188300Y-101360545D01*
X119188300Y-101388456D01*
X119188797Y-101392390D01*
X119188797Y-101392391D01*
X119188805Y-101392456D01*
X119189738Y-101404293D01*
X119191127Y-101448489D01*
X119196778Y-101467939D01*
X119200787Y-101487300D01*
X119203326Y-101507397D01*
X119206245Y-101514768D01*
X119206245Y-101514770D01*
X119219604Y-101548512D01*
X119223449Y-101559742D01*
X119235782Y-101602193D01*
X119239815Y-101609012D01*
X119239817Y-101609017D01*
X119246093Y-101619628D01*
X119254788Y-101637376D01*
X119262248Y-101656217D01*
X119266910Y-101662633D01*
X119266910Y-101662634D01*
X119288236Y-101691987D01*
X119294752Y-101701907D01*
X119317258Y-101739962D01*
X119322864Y-101745568D01*
X119322988Y-101745728D01*
X119348156Y-101805092D01*
X119354592Y-101850028D01*
X119364218Y-101917246D01*
X119424505Y-102049842D01*
X119429452Y-102055995D01*
X119429454Y-102055998D01*
X119449414Y-102080823D01*
X119463698Y-102098588D01*
X119911595Y-102546485D01*
X119945621Y-102608797D01*
X119948500Y-102635580D01*
X119948500Y-103037131D01*
X119928498Y-103105252D01*
X119874842Y-103151745D01*
X119835504Y-103162458D01*
X119795765Y-103166581D01*
X119795761Y-103166582D01*
X119788907Y-103167293D01*
X119782371Y-103169474D01*
X119782369Y-103169474D01*
X119649605Y-103213768D01*
X119623893Y-103222346D01*
X119475969Y-103313884D01*
X119470796Y-103319066D01*
X119358242Y-103431816D01*
X119358238Y-103431821D01*
X119353071Y-103436997D01*
X119349231Y-103443227D01*
X119349230Y-103443228D01*
X119287995Y-103542570D01*
X119261791Y-103585080D01*
X119207026Y-103750191D01*
X119196500Y-103852928D01*
X119196500Y-104427072D01*
X119207293Y-104531093D01*
X119262346Y-104696107D01*
X119353884Y-104844031D01*
X119359066Y-104849204D01*
X119471816Y-104961758D01*
X119471821Y-104961762D01*
X119476997Y-104966929D01*
X119483227Y-104970769D01*
X119483228Y-104970770D01*
X119582784Y-105032137D01*
X119625080Y-105058209D01*
X119790191Y-105112974D01*
X119797027Y-105113674D01*
X119797030Y-105113675D01*
X119848401Y-105118938D01*
X119892928Y-105123500D01*
X120592072Y-105123500D01*
X120595318Y-105123163D01*
X120595322Y-105123163D01*
X120689235Y-105113419D01*
X120689239Y-105113418D01*
X120696093Y-105112707D01*
X120702629Y-105110526D01*
X120702631Y-105110526D01*
X120835395Y-105066232D01*
X120861107Y-105057654D01*
X121009031Y-104966116D01*
X121114495Y-104860468D01*
X121126758Y-104848184D01*
X121126762Y-104848179D01*
X121131929Y-104843003D01*
X121163665Y-104791518D01*
X121219369Y-104701150D01*
X121219370Y-104701148D01*
X121223209Y-104694920D01*
X121277974Y-104529809D01*
X121288500Y-104427072D01*
X121288500Y-103852928D01*
X121277707Y-103748907D01*
X121251252Y-103669610D01*
X121222654Y-103583893D01*
X121224560Y-103583257D01*
X121215500Y-103542570D01*
X121215500Y-103307496D01*
X121235502Y-103239375D01*
X121252405Y-103218401D01*
X121500606Y-102970200D01*
X121562918Y-102936174D01*
X121633733Y-102941239D01*
X121678796Y-102970200D01*
X128325843Y-109617247D01*
X128333387Y-109625537D01*
X128337500Y-109632018D01*
X128343277Y-109637443D01*
X128387167Y-109678658D01*
X128390009Y-109681413D01*
X128409730Y-109701134D01*
X128412925Y-109703612D01*
X128421947Y-109711318D01*
X128454179Y-109741586D01*
X128461128Y-109745406D01*
X128471932Y-109751346D01*
X128488456Y-109762199D01*
X128504459Y-109774613D01*
X128545043Y-109792176D01*
X128555673Y-109797383D01*
X128594440Y-109818695D01*
X128602117Y-109820666D01*
X128602122Y-109820668D01*
X128614058Y-109823732D01*
X128632766Y-109830137D01*
X128651355Y-109838181D01*
X128659183Y-109839421D01*
X128659190Y-109839423D01*
X128695024Y-109845099D01*
X128706644Y-109847505D01*
X128738459Y-109855673D01*
X128749470Y-109858500D01*
X128769724Y-109858500D01*
X128789434Y-109860051D01*
X128809443Y-109863220D01*
X128817335Y-109862474D01*
X128836080Y-109860702D01*
X128853462Y-109859059D01*
X128865319Y-109858500D01*
X129534274Y-109858500D01*
X129602395Y-109878502D01*
X129641707Y-109918665D01*
X129709987Y-110030088D01*
X129856250Y-110198938D01*
X130028126Y-110341632D01*
X130221000Y-110454338D01*
X130429692Y-110534030D01*
X130434760Y-110535061D01*
X130434763Y-110535062D01*
X130542017Y-110556883D01*
X130648597Y-110578567D01*
X130653772Y-110578757D01*
X130653774Y-110578757D01*
X130866673Y-110586564D01*
X130866677Y-110586564D01*
X130871837Y-110586753D01*
X130876957Y-110586097D01*
X130876959Y-110586097D01*
X131088288Y-110559025D01*
X131088289Y-110559025D01*
X131093416Y-110558368D01*
X131098366Y-110556883D01*
X131302429Y-110495661D01*
X131302434Y-110495659D01*
X131307384Y-110494174D01*
X131507994Y-110395896D01*
X131689860Y-110266173D01*
X131848096Y-110108489D01*
X131907594Y-110025689D01*
X131975435Y-109931277D01*
X131978453Y-109927077D01*
X131982145Y-109919608D01*
X132075136Y-109731453D01*
X132075137Y-109731451D01*
X132077430Y-109726811D01*
X132142370Y-109513069D01*
X132171529Y-109291590D01*
X132173156Y-109225000D01*
X132154852Y-109002361D01*
X132100431Y-108785702D01*
X132011354Y-108580840D01*
X131890014Y-108393277D01*
X131739670Y-108228051D01*
X131735619Y-108224852D01*
X131735615Y-108224848D01*
X131568414Y-108092800D01*
X131568410Y-108092798D01*
X131564359Y-108089598D01*
X131523053Y-108066796D01*
X131473084Y-108016364D01*
X131458312Y-107946921D01*
X131483428Y-107880516D01*
X131510780Y-107853909D01*
X131554603Y-107822650D01*
X131689860Y-107726173D01*
X131848096Y-107568489D01*
X131907594Y-107485689D01*
X131975435Y-107391277D01*
X131978453Y-107387077D01*
X131982145Y-107379608D01*
X132075136Y-107191453D01*
X132075137Y-107191451D01*
X132077430Y-107186811D01*
X132142370Y-106973069D01*
X132171529Y-106751590D01*
X132173156Y-106685000D01*
X132154852Y-106462361D01*
X132100431Y-106245702D01*
X132011354Y-106040840D01*
X131890014Y-105853277D01*
X131739670Y-105688051D01*
X131735619Y-105684852D01*
X131735615Y-105684848D01*
X131568414Y-105552800D01*
X131568410Y-105552798D01*
X131564359Y-105549598D01*
X131523053Y-105526796D01*
X131473084Y-105476364D01*
X131458312Y-105406921D01*
X131483428Y-105340516D01*
X131510780Y-105313909D01*
X131554603Y-105282650D01*
X131689860Y-105186173D01*
X131848096Y-105028489D01*
X131907594Y-104945689D01*
X131975435Y-104851277D01*
X131978453Y-104847077D01*
X131982145Y-104839608D01*
X132075136Y-104651453D01*
X132075137Y-104651451D01*
X132077430Y-104646811D01*
X132142370Y-104433069D01*
X132171529Y-104211590D01*
X132173156Y-104145000D01*
X132154852Y-103922361D01*
X132100431Y-103705702D01*
X132011354Y-103500840D01*
X131953443Y-103411323D01*
X131892822Y-103317617D01*
X131892820Y-103317614D01*
X131890014Y-103313277D01*
X131739670Y-103148051D01*
X131735619Y-103144852D01*
X131735615Y-103144848D01*
X131568414Y-103012800D01*
X131568410Y-103012798D01*
X131564359Y-103009598D01*
X131523053Y-102986796D01*
X131473084Y-102936364D01*
X131458312Y-102866921D01*
X131483428Y-102800516D01*
X131510780Y-102773909D01*
X131554603Y-102742650D01*
X131689860Y-102646173D01*
X131848096Y-102488489D01*
X131907594Y-102405689D01*
X131975435Y-102311277D01*
X131978453Y-102307077D01*
X131982611Y-102298665D01*
X132075136Y-102111453D01*
X132075137Y-102111451D01*
X132077430Y-102106811D01*
X132132543Y-101925415D01*
X132140865Y-101898023D01*
X132140865Y-101898021D01*
X132142370Y-101893069D01*
X132171529Y-101671590D01*
X132173156Y-101605000D01*
X132154852Y-101382361D01*
X132100431Y-101165702D01*
X132011354Y-100960840D01*
X131966700Y-100891816D01*
X131892822Y-100777617D01*
X131892820Y-100777614D01*
X131890014Y-100773277D01*
X131739670Y-100608051D01*
X131735619Y-100604852D01*
X131735615Y-100604848D01*
X131568414Y-100472800D01*
X131568410Y-100472798D01*
X131564359Y-100469598D01*
X131523053Y-100446796D01*
X131473084Y-100396364D01*
X131458312Y-100326921D01*
X131483428Y-100260516D01*
X131510780Y-100233909D01*
X131554603Y-100202650D01*
X131689860Y-100106173D01*
X131730118Y-100066056D01*
X131822375Y-99974120D01*
X131848096Y-99948489D01*
X131854129Y-99940094D01*
X131975435Y-99771277D01*
X131978453Y-99767077D01*
X131983085Y-99757706D01*
X132075136Y-99571453D01*
X132075137Y-99571451D01*
X132077430Y-99566811D01*
X132142370Y-99353069D01*
X132171529Y-99131590D01*
X132171611Y-99128240D01*
X132173074Y-99068365D01*
X132173074Y-99068361D01*
X132173156Y-99065000D01*
X132154852Y-98842361D01*
X132100431Y-98625702D01*
X132011354Y-98420840D01*
X131890014Y-98233277D01*
X131739670Y-98068051D01*
X131735619Y-98064852D01*
X131735615Y-98064848D01*
X131568414Y-97932800D01*
X131568410Y-97932798D01*
X131564359Y-97929598D01*
X131523053Y-97906796D01*
X131473084Y-97856364D01*
X131458312Y-97786921D01*
X131483428Y-97720516D01*
X131510780Y-97693909D01*
X131579178Y-97645121D01*
X131689860Y-97566173D01*
X131731822Y-97524358D01*
X131844435Y-97412137D01*
X131848096Y-97408489D01*
X131907594Y-97325689D01*
X131975435Y-97231277D01*
X131978453Y-97227077D01*
X131991475Y-97200730D01*
X132075136Y-97031453D01*
X132075137Y-97031451D01*
X132077430Y-97026811D01*
X132136644Y-96831916D01*
X132140865Y-96818023D01*
X132140865Y-96818021D01*
X132142370Y-96813069D01*
X132171529Y-96591590D01*
X132173156Y-96525000D01*
X132154852Y-96302361D01*
X132100431Y-96085702D01*
X132011354Y-95880840D01*
X131958427Y-95799028D01*
X131892822Y-95697617D01*
X131892820Y-95697614D01*
X131890014Y-95693277D01*
X131739670Y-95528051D01*
X131735619Y-95524852D01*
X131735615Y-95524848D01*
X131568414Y-95392800D01*
X131568410Y-95392798D01*
X131564359Y-95389598D01*
X131523053Y-95366796D01*
X131473084Y-95316364D01*
X131458312Y-95246921D01*
X131483428Y-95180516D01*
X131510780Y-95153909D01*
X131556064Y-95121608D01*
X131689860Y-95026173D01*
X131731537Y-94984642D01*
X131844435Y-94872137D01*
X131848096Y-94868489D01*
X131907594Y-94785689D01*
X131975435Y-94691277D01*
X131978453Y-94687077D01*
X132003802Y-94635788D01*
X132075136Y-94491453D01*
X132075137Y-94491451D01*
X132077430Y-94486811D01*
X132142370Y-94273069D01*
X132171529Y-94051590D01*
X132173156Y-93985000D01*
X132154852Y-93762361D01*
X132100431Y-93545702D01*
X132011354Y-93340840D01*
X131948264Y-93243318D01*
X131892822Y-93157617D01*
X131892820Y-93157614D01*
X131890014Y-93153277D01*
X131739670Y-92988051D01*
X131735619Y-92984852D01*
X131735615Y-92984848D01*
X131568412Y-92852799D01*
X131564359Y-92849598D01*
X131559844Y-92847105D01*
X131559831Y-92847097D01*
X131523056Y-92826797D01*
X131473084Y-92776365D01*
X131458312Y-92706922D01*
X131483427Y-92640517D01*
X131510780Y-92613909D01*
X131554603Y-92582650D01*
X131689860Y-92486173D01*
X131848096Y-92328489D01*
X131895678Y-92262272D01*
X131975435Y-92151277D01*
X131978453Y-92147077D01*
X131994045Y-92115530D01*
X132075136Y-91951453D01*
X132075137Y-91951451D01*
X132077430Y-91946811D01*
X132112267Y-91832149D01*
X132140865Y-91738023D01*
X132140865Y-91738021D01*
X132142370Y-91733069D01*
X132171529Y-91511590D01*
X132172312Y-91479544D01*
X132173074Y-91448365D01*
X132173074Y-91448361D01*
X132173156Y-91445000D01*
X132154852Y-91222361D01*
X132100431Y-91005702D01*
X132011354Y-90800840D01*
X131966700Y-90731816D01*
X131892822Y-90617617D01*
X131892820Y-90617614D01*
X131890014Y-90613277D01*
X131739670Y-90448051D01*
X131735619Y-90444852D01*
X131735615Y-90444848D01*
X131568412Y-90312799D01*
X131564359Y-90309598D01*
X131559844Y-90307105D01*
X131559831Y-90307097D01*
X131523056Y-90286797D01*
X131473084Y-90236365D01*
X131458312Y-90166922D01*
X131483427Y-90100517D01*
X131510780Y-90073909D01*
X131554603Y-90042650D01*
X131689860Y-89946173D01*
X131848096Y-89788489D01*
X131907594Y-89705689D01*
X131975435Y-89611277D01*
X131978453Y-89607077D01*
X131982145Y-89599608D01*
X132075136Y-89411453D01*
X132075137Y-89411451D01*
X132077430Y-89406811D01*
X132120732Y-89264287D01*
X132140865Y-89198023D01*
X132140865Y-89198021D01*
X132142370Y-89193069D01*
X132171529Y-88971590D01*
X132171611Y-88968240D01*
X132173074Y-88908365D01*
X132173074Y-88908361D01*
X132173156Y-88905000D01*
X132154852Y-88682361D01*
X132100431Y-88465702D01*
X132011354Y-88260840D01*
X131890014Y-88073277D01*
X131739670Y-87908051D01*
X131735619Y-87904852D01*
X131735615Y-87904848D01*
X131568414Y-87772800D01*
X131568410Y-87772798D01*
X131564359Y-87769598D01*
X131523053Y-87746796D01*
X131473084Y-87696364D01*
X131458312Y-87626921D01*
X131483428Y-87560516D01*
X131510780Y-87533909D01*
X131554603Y-87502650D01*
X131689860Y-87406173D01*
X131848096Y-87248489D01*
X131907594Y-87165689D01*
X131975435Y-87071277D01*
X131978453Y-87067077D01*
X132045115Y-86932197D01*
X132075136Y-86871453D01*
X132075137Y-86871451D01*
X132077430Y-86866811D01*
X132124529Y-86711791D01*
X132140865Y-86658023D01*
X132140865Y-86658021D01*
X132142370Y-86653069D01*
X132171529Y-86431590D01*
X132173156Y-86365000D01*
X132154852Y-86142361D01*
X132100431Y-85925702D01*
X132011354Y-85720840D01*
X131922631Y-85583695D01*
X131892822Y-85537617D01*
X131892820Y-85537614D01*
X131890014Y-85533277D01*
X131739670Y-85368051D01*
X131735619Y-85364852D01*
X131735615Y-85364848D01*
X131568414Y-85232800D01*
X131568410Y-85232798D01*
X131564359Y-85229598D01*
X131523053Y-85206796D01*
X131473084Y-85156364D01*
X131458312Y-85086921D01*
X131483428Y-85020516D01*
X131510780Y-84993909D01*
X131554603Y-84962650D01*
X131689860Y-84866173D01*
X131720644Y-84835497D01*
X131800583Y-84755836D01*
X131848096Y-84708489D01*
X131898438Y-84638431D01*
X131975435Y-84531277D01*
X131978453Y-84527077D01*
X132052701Y-84376848D01*
X132075136Y-84331453D01*
X132075137Y-84331451D01*
X132077430Y-84326811D01*
X132142370Y-84113069D01*
X132171529Y-83891590D01*
X132173156Y-83825000D01*
X132154852Y-83602361D01*
X132100431Y-83385702D01*
X132011354Y-83180840D01*
X131903242Y-83013724D01*
X131892822Y-82997617D01*
X131892820Y-82997614D01*
X131890014Y-82993277D01*
X131739670Y-82828051D01*
X131735619Y-82824852D01*
X131735615Y-82824848D01*
X131568412Y-82692799D01*
X131564359Y-82689598D01*
X131559844Y-82687105D01*
X131559831Y-82687097D01*
X131523056Y-82666797D01*
X131473084Y-82616365D01*
X131458312Y-82546922D01*
X131483427Y-82480517D01*
X131510780Y-82453909D01*
X131554603Y-82422650D01*
X131689860Y-82326173D01*
X131743877Y-82272345D01*
X131792762Y-82223630D01*
X131848096Y-82168489D01*
X131852661Y-82162137D01*
X131975435Y-81991277D01*
X131978453Y-81987077D01*
X131982926Y-81978028D01*
X132075136Y-81791453D01*
X132075137Y-81791451D01*
X132077430Y-81786811D01*
X132142370Y-81573069D01*
X132171529Y-81351590D01*
X132173156Y-81285000D01*
X132154852Y-81062361D01*
X132100431Y-80845702D01*
X132011354Y-80640840D01*
X131890014Y-80453277D01*
X131739670Y-80288051D01*
X131735619Y-80284852D01*
X131735615Y-80284848D01*
X131568412Y-80152799D01*
X131564359Y-80149598D01*
X131559844Y-80147105D01*
X131559831Y-80147097D01*
X131523056Y-80126797D01*
X131473084Y-80076365D01*
X131458312Y-80006922D01*
X131483427Y-79940517D01*
X131510780Y-79913909D01*
X131554603Y-79882650D01*
X131689860Y-79786173D01*
X131848096Y-79628489D01*
X131852661Y-79622137D01*
X131975435Y-79451277D01*
X131978453Y-79447077D01*
X131982926Y-79438028D01*
X132075136Y-79251453D01*
X132075137Y-79251451D01*
X132077430Y-79246811D01*
X132142370Y-79033069D01*
X132171529Y-78811590D01*
X132173156Y-78745000D01*
X132154852Y-78522361D01*
X132100431Y-78305702D01*
X132011354Y-78100840D01*
X131928497Y-77972762D01*
X131892822Y-77917617D01*
X131892820Y-77917614D01*
X131890014Y-77913277D01*
X131739670Y-77748051D01*
X131735619Y-77744852D01*
X131735615Y-77744848D01*
X131598293Y-77636398D01*
X131564359Y-77609598D01*
X131559844Y-77607105D01*
X131559831Y-77607097D01*
X131523056Y-77586797D01*
X131473084Y-77536365D01*
X131458312Y-77466922D01*
X131483427Y-77400517D01*
X131510780Y-77373909D01*
X131578790Y-77325398D01*
X131689860Y-77246173D01*
X131712885Y-77223229D01*
X131815507Y-77120964D01*
X131848096Y-77088489D01*
X131878551Y-77046107D01*
X131975435Y-76911277D01*
X131978453Y-76907077D01*
X131988705Y-76886335D01*
X132075136Y-76711453D01*
X132075137Y-76711451D01*
X132077430Y-76706811D01*
X132142370Y-76493069D01*
X132171529Y-76271590D01*
X132173156Y-76205000D01*
X132154852Y-75982361D01*
X132100431Y-75765702D01*
X132011354Y-75560840D01*
X131949047Y-75464528D01*
X131892822Y-75377617D01*
X131892820Y-75377614D01*
X131890014Y-75373277D01*
X131886532Y-75369450D01*
X131742798Y-75211488D01*
X131711746Y-75147642D01*
X131720141Y-75077143D01*
X131765317Y-75022375D01*
X131791761Y-75008706D01*
X131898297Y-74968767D01*
X131906705Y-74965615D01*
X132023261Y-74878261D01*
X132110615Y-74761705D01*
X132161745Y-74625316D01*
X132168500Y-74563134D01*
X132168500Y-72766866D01*
X132161745Y-72704684D01*
X132110615Y-72568295D01*
X132023261Y-72451739D01*
X131906705Y-72364385D01*
X131770316Y-72313255D01*
X131708134Y-72306500D01*
X129911866Y-72306500D01*
X129849684Y-72313255D01*
X129713295Y-72364385D01*
X129596739Y-72451739D01*
X129509385Y-72568295D01*
X129458255Y-72704684D01*
X129451500Y-72766866D01*
X129451500Y-74563134D01*
X129458255Y-74625316D01*
X129461029Y-74632715D01*
X129509385Y-74761705D01*
X129508051Y-74762205D01*
X129521183Y-74822265D01*
X129496444Y-74888812D01*
X129484590Y-74902505D01*
X126028595Y-78358500D01*
X125966283Y-78392526D01*
X125895468Y-78387461D01*
X125838632Y-78344914D01*
X125813821Y-78278394D01*
X125813500Y-78269405D01*
X125813500Y-77836866D01*
X125806745Y-77774684D01*
X125755615Y-77638295D01*
X125668261Y-77521739D01*
X125551705Y-77434385D01*
X125415316Y-77383255D01*
X125390687Y-77380579D01*
X125383412Y-77379789D01*
X125317850Y-77352547D01*
X125277424Y-77294184D01*
X125274969Y-77223229D01*
X125289760Y-77188410D01*
X125374369Y-77051150D01*
X125374370Y-77051148D01*
X125378209Y-77044920D01*
X125432974Y-76879809D01*
X125443500Y-76777072D01*
X125443500Y-76177928D01*
X125432707Y-76073907D01*
X125377654Y-75908893D01*
X125286116Y-75760969D01*
X125278003Y-75752870D01*
X125168184Y-75643242D01*
X125168179Y-75643238D01*
X125163003Y-75638071D01*
X125115598Y-75608850D01*
X125021150Y-75550631D01*
X125021148Y-75550630D01*
X125014920Y-75546791D01*
X124849809Y-75492026D01*
X124842973Y-75491326D01*
X124842970Y-75491325D01*
X124791474Y-75486049D01*
X124747072Y-75481500D01*
X124172928Y-75481500D01*
X124169682Y-75481837D01*
X124169678Y-75481837D01*
X124075765Y-75491581D01*
X124075761Y-75491582D01*
X124068907Y-75492293D01*
X124062371Y-75494474D01*
X124062369Y-75494474D01*
X124000450Y-75515132D01*
X123903893Y-75547346D01*
X123755969Y-75638884D01*
X123750796Y-75644066D01*
X123638242Y-75756816D01*
X123638238Y-75756821D01*
X123633071Y-75761997D01*
X123629231Y-75768227D01*
X123629230Y-75768228D01*
X123546364Y-75902662D01*
X123541791Y-75910080D01*
X123487026Y-76075191D01*
X123476500Y-76177928D01*
X123476500Y-76777072D01*
X123476837Y-76780318D01*
X123476837Y-76780322D01*
X123480873Y-76819216D01*
X123487293Y-76881093D01*
X123542346Y-77046107D01*
X123629650Y-77187190D01*
X123648488Y-77255640D01*
X123627327Y-77323409D01*
X123572886Y-77368981D01*
X123536115Y-77378754D01*
X123521546Y-77380337D01*
X123494684Y-77383255D01*
X123358295Y-77434385D01*
X123241739Y-77521739D01*
X123154385Y-77638295D01*
X123151233Y-77646703D01*
X123109919Y-77756907D01*
X123067277Y-77813671D01*
X123000716Y-77838371D01*
X122931367Y-77823163D01*
X122898743Y-77797476D01*
X122848151Y-77741875D01*
X122848142Y-77741866D01*
X122844670Y-77738051D01*
X122840619Y-77734852D01*
X122840615Y-77734848D01*
X122703293Y-77626398D01*
X122669359Y-77599598D01*
X122664840Y-77597104D01*
X122664835Y-77597100D01*
X122618607Y-77571581D01*
X122568636Y-77521148D01*
X122553500Y-77461272D01*
X122553500Y-77429964D01*
X122573502Y-77361843D01*
X122613196Y-77322821D01*
X122624031Y-77316116D01*
X122645925Y-77294184D01*
X122741758Y-77198184D01*
X122741762Y-77198179D01*
X122746929Y-77193003D01*
X122750770Y-77186772D01*
X122834369Y-77051150D01*
X122834370Y-77051148D01*
X122838209Y-77044920D01*
X122892974Y-76879809D01*
X122903500Y-76777072D01*
X122903500Y-76177928D01*
X122892707Y-76073907D01*
X122837654Y-75908893D01*
X122746116Y-75760969D01*
X122738003Y-75752870D01*
X122639214Y-75654253D01*
X122605135Y-75591970D01*
X122610138Y-75521150D01*
X122639059Y-75476063D01*
X122741754Y-75373188D01*
X122741758Y-75373183D01*
X122746929Y-75368003D01*
X122750770Y-75361772D01*
X122834369Y-75226150D01*
X122834370Y-75226148D01*
X122838209Y-75219920D01*
X122892974Y-75054809D01*
X122903500Y-74952072D01*
X122903500Y-74352928D01*
X122892707Y-74248907D01*
X122837654Y-74083893D01*
X122746116Y-73935969D01*
X122740934Y-73930796D01*
X122628184Y-73818242D01*
X122628179Y-73818238D01*
X122623003Y-73813071D01*
X122474920Y-73721791D01*
X122309809Y-73667026D01*
X122302973Y-73666326D01*
X122302970Y-73666325D01*
X122251474Y-73661049D01*
X122207072Y-73656500D01*
X121632928Y-73656500D01*
X121629682Y-73656837D01*
X121629678Y-73656837D01*
X121535765Y-73666581D01*
X121535761Y-73666582D01*
X121528907Y-73667293D01*
X121522371Y-73669474D01*
X121522369Y-73669474D01*
X121389605Y-73713768D01*
X121363893Y-73722346D01*
X121215969Y-73813884D01*
X121210796Y-73819066D01*
X121098242Y-73931816D01*
X121098240Y-73931819D01*
X121093071Y-73936997D01*
X121089231Y-73943227D01*
X121089230Y-73943228D01*
X121006364Y-74077662D01*
X121001791Y-74085080D01*
X120947026Y-74250191D01*
X120936500Y-74352928D01*
X120936500Y-74687905D01*
X120916498Y-74756026D01*
X120899595Y-74777000D01*
X120803795Y-74872800D01*
X120741483Y-74906826D01*
X120670668Y-74901761D01*
X120625605Y-74872800D01*
X120400405Y-74647600D01*
X120366379Y-74585288D01*
X120363500Y-74558505D01*
X120363500Y-74352928D01*
X120352707Y-74248907D01*
X120297654Y-74083893D01*
X120206116Y-73935969D01*
X120200934Y-73930796D01*
X120088184Y-73818242D01*
X120088179Y-73818238D01*
X120083003Y-73813071D01*
X119934920Y-73721791D01*
X119769809Y-73667026D01*
X119762973Y-73666326D01*
X119762970Y-73666325D01*
X119711474Y-73661049D01*
X119667072Y-73656500D01*
X119092928Y-73656500D01*
X119089682Y-73656837D01*
X119089678Y-73656837D01*
X118995765Y-73666581D01*
X118995761Y-73666582D01*
X118988907Y-73667293D01*
X118982371Y-73669474D01*
X118982369Y-73669474D01*
X118849605Y-73713768D01*
X118823893Y-73722346D01*
X118675969Y-73813884D01*
X118553071Y-73936997D01*
X118549233Y-73943224D01*
X118549231Y-73943226D01*
X118539436Y-73959116D01*
X118486664Y-74006609D01*
X118432176Y-74019000D01*
X115247699Y-74019000D01*
X115179578Y-73998998D01*
X115140554Y-73959301D01*
X115140440Y-73959116D01*
X115126116Y-73935969D01*
X115120934Y-73930796D01*
X115008184Y-73818242D01*
X115008179Y-73818238D01*
X115003003Y-73813071D01*
X114854920Y-73721791D01*
X114689809Y-73667026D01*
X114682973Y-73666326D01*
X114682970Y-73666325D01*
X114631474Y-73661049D01*
X114587072Y-73656500D01*
X114012928Y-73656500D01*
X114009682Y-73656837D01*
X114009678Y-73656837D01*
X113915765Y-73666581D01*
X113915761Y-73666582D01*
X113908907Y-73667293D01*
X113902371Y-73669474D01*
X113902369Y-73669474D01*
X113769605Y-73713768D01*
X113743893Y-73722346D01*
X113595969Y-73813884D01*
X113590796Y-73819066D01*
X113478242Y-73931816D01*
X113478240Y-73931819D01*
X113473071Y-73936997D01*
X113469231Y-73943227D01*
X113469230Y-73943228D01*
X113386364Y-74077662D01*
X113381791Y-74085080D01*
X113327026Y-74250191D01*
X113316500Y-74352928D01*
X113316500Y-74687905D01*
X113296498Y-74756026D01*
X113279596Y-74777000D01*
X113001786Y-75054809D01*
X112727342Y-75329253D01*
X112719063Y-75336787D01*
X112712582Y-75340900D01*
X112685772Y-75369450D01*
X112665957Y-75390551D01*
X112663202Y-75393393D01*
X112643465Y-75413130D01*
X112640985Y-75416327D01*
X112633282Y-75425347D01*
X112603014Y-75457579D01*
X112599195Y-75464525D01*
X112599193Y-75464528D01*
X112593252Y-75475334D01*
X112582401Y-75491853D01*
X112569986Y-75507859D01*
X112566841Y-75515128D01*
X112566838Y-75515132D01*
X112552426Y-75548437D01*
X112547209Y-75559087D01*
X112525905Y-75597840D01*
X112523934Y-75605515D01*
X112523934Y-75605516D01*
X112520867Y-75617462D01*
X112514463Y-75636166D01*
X112511045Y-75644066D01*
X112506419Y-75654755D01*
X112505180Y-75662578D01*
X112505177Y-75662588D01*
X112499501Y-75698424D01*
X112497095Y-75710044D01*
X112486100Y-75752870D01*
X112486100Y-75773124D01*
X112484549Y-75792834D01*
X112481380Y-75812843D01*
X112482126Y-75820735D01*
X112485541Y-75856861D01*
X112486100Y-75868719D01*
X112486100Y-82889006D01*
X112466098Y-82957127D01*
X112412442Y-83003620D01*
X112342168Y-83013724D01*
X112277588Y-82984230D01*
X112271005Y-82978101D01*
X109035899Y-79742994D01*
X109001873Y-79680682D01*
X109006938Y-79609866D01*
X109022671Y-79580373D01*
X109115435Y-79451277D01*
X109118453Y-79447077D01*
X109122926Y-79438028D01*
X109215136Y-79251453D01*
X109215137Y-79251451D01*
X109217430Y-79246811D01*
X109282370Y-79033069D01*
X109311529Y-78811590D01*
X109313156Y-78745000D01*
X109294852Y-78522361D01*
X109240431Y-78305702D01*
X109151354Y-78100840D01*
X109068497Y-77972762D01*
X109032822Y-77917617D01*
X109032820Y-77917614D01*
X109030014Y-77913277D01*
X108879670Y-77748051D01*
X108875619Y-77744852D01*
X108875615Y-77744848D01*
X108708414Y-77612800D01*
X108708410Y-77612798D01*
X108704359Y-77609598D01*
X108663053Y-77586796D01*
X108613084Y-77536364D01*
X108598312Y-77466921D01*
X108623428Y-77400516D01*
X108650780Y-77373909D01*
X108718790Y-77325398D01*
X108829860Y-77246173D01*
X108852885Y-77223229D01*
X108955507Y-77120964D01*
X108988096Y-77088489D01*
X109018551Y-77046107D01*
X109115435Y-76911277D01*
X109118453Y-76907077D01*
X109128705Y-76886335D01*
X109215136Y-76711453D01*
X109215137Y-76711451D01*
X109217430Y-76706811D01*
X109282370Y-76493069D01*
X109311529Y-76271590D01*
X109313156Y-76205000D01*
X109294852Y-75982361D01*
X109240431Y-75765702D01*
X109151354Y-75560840D01*
X109089047Y-75464528D01*
X109032822Y-75377617D01*
X109032820Y-75377614D01*
X109030014Y-75373277D01*
X109026532Y-75369450D01*
X108882798Y-75211488D01*
X108851746Y-75147642D01*
X108860141Y-75077143D01*
X108905317Y-75022375D01*
X108931761Y-75008706D01*
X109038297Y-74968767D01*
X109046705Y-74965615D01*
X109163261Y-74878261D01*
X109250615Y-74761705D01*
X109301745Y-74625316D01*
X109308500Y-74563134D01*
X109308500Y-72766866D01*
X109301745Y-72704684D01*
X109250615Y-72568295D01*
X109163261Y-72451739D01*
X109046705Y-72364385D01*
X108910316Y-72313255D01*
X108848134Y-72306500D01*
X107051866Y-72306500D01*
X106989684Y-72313255D01*
X106853295Y-72364385D01*
X106736739Y-72451739D01*
X106649385Y-72568295D01*
X106598255Y-72704684D01*
X106591500Y-72766866D01*
X106591500Y-74563134D01*
X106598255Y-74625316D01*
X106649385Y-74761705D01*
X106736739Y-74878261D01*
X106853295Y-74965615D01*
X106861704Y-74968767D01*
X106861705Y-74968768D01*
X106970451Y-75009535D01*
X107027216Y-75052176D01*
X107051916Y-75118738D01*
X107036709Y-75188087D01*
X107017316Y-75214568D01*
X106929940Y-75306002D01*
X106890629Y-75347138D01*
X106887715Y-75351410D01*
X106887714Y-75351411D01*
X106859076Y-75393393D01*
X106764743Y-75531680D01*
X106720466Y-75627066D01*
X106681950Y-75710044D01*
X106670688Y-75734305D01*
X106610989Y-75949570D01*
X106587251Y-76171695D01*
X106587548Y-76176848D01*
X106587548Y-76176851D01*
X106593011Y-76271590D01*
X106600110Y-76394715D01*
X106601247Y-76399761D01*
X106601248Y-76399767D01*
X106621119Y-76487939D01*
X106649222Y-76612639D01*
X106708233Y-76757967D01*
X106725510Y-76800514D01*
X106733266Y-76819616D01*
X106849987Y-77010088D01*
X106996250Y-77178938D01*
X107168126Y-77321632D01*
X107174571Y-77325398D01*
X107241445Y-77364476D01*
X107290169Y-77416114D01*
X107303240Y-77485897D01*
X107276509Y-77551669D01*
X107236055Y-77585027D01*
X107223607Y-77591507D01*
X107219474Y-77594610D01*
X107219471Y-77594612D01*
X107053305Y-77719373D01*
X107044965Y-77725635D01*
X107023544Y-77748051D01*
X106906594Y-77870432D01*
X106890629Y-77887138D01*
X106887715Y-77891410D01*
X106887714Y-77891411D01*
X106879620Y-77903277D01*
X106764743Y-78071680D01*
X106670688Y-78274305D01*
X106610989Y-78489570D01*
X106587251Y-78711695D01*
X106587548Y-78716848D01*
X106587548Y-78716851D01*
X106593011Y-78811590D01*
X106600110Y-78934715D01*
X106601247Y-78939761D01*
X106601248Y-78939767D01*
X106621119Y-79027939D01*
X106649222Y-79152639D01*
X106733266Y-79359616D01*
X106764557Y-79410678D01*
X106841163Y-79535688D01*
X106849987Y-79550088D01*
X106996250Y-79718938D01*
X107168126Y-79861632D01*
X107172593Y-79864242D01*
X107241445Y-79904476D01*
X107290169Y-79956114D01*
X107303240Y-80025897D01*
X107276509Y-80091669D01*
X107236054Y-80125028D01*
X107223607Y-80131507D01*
X107212831Y-80139598D01*
X107058284Y-80255635D01*
X107044965Y-80265635D01*
X106890629Y-80427138D01*
X106887715Y-80431410D01*
X106887714Y-80431411D01*
X106879620Y-80443277D01*
X106764743Y-80611680D01*
X106749003Y-80645590D01*
X106673013Y-80809297D01*
X106670688Y-80814305D01*
X106610989Y-81029570D01*
X106587251Y-81251695D01*
X106587548Y-81256848D01*
X106587548Y-81256851D01*
X106593011Y-81351590D01*
X106600110Y-81474715D01*
X106601247Y-81479761D01*
X106601248Y-81479767D01*
X106620022Y-81563069D01*
X106649222Y-81692639D01*
X106687461Y-81786811D01*
X106727262Y-81884829D01*
X106733266Y-81899616D01*
X106767208Y-81955005D01*
X106842657Y-82078126D01*
X106849987Y-82090088D01*
X106996250Y-82258938D01*
X107168126Y-82401632D01*
X107172593Y-82404242D01*
X107241445Y-82444476D01*
X107290169Y-82496114D01*
X107303240Y-82565897D01*
X107276509Y-82631669D01*
X107236054Y-82665028D01*
X107223607Y-82671507D01*
X107219465Y-82674617D01*
X107061386Y-82793306D01*
X107044965Y-82805635D01*
X106890629Y-82967138D01*
X106887715Y-82971410D01*
X106887714Y-82971411D01*
X106875404Y-82989457D01*
X106764743Y-83151680D01*
X106670688Y-83354305D01*
X106610989Y-83569570D01*
X106587251Y-83791695D01*
X106587548Y-83796848D01*
X106587548Y-83796851D01*
X106593011Y-83891590D01*
X106600110Y-84014715D01*
X106601247Y-84019761D01*
X106601248Y-84019767D01*
X106620170Y-84103726D01*
X106649222Y-84232639D01*
X106733266Y-84439616D01*
X106735965Y-84444020D01*
X106827407Y-84593240D01*
X106849987Y-84630088D01*
X106996250Y-84798938D01*
X107168126Y-84941632D01*
X107172593Y-84944242D01*
X107241445Y-84984476D01*
X107290169Y-85036114D01*
X107303240Y-85105897D01*
X107276509Y-85171669D01*
X107236054Y-85205028D01*
X107223607Y-85211507D01*
X107219465Y-85214617D01*
X107107605Y-85298604D01*
X107044965Y-85345635D01*
X106890629Y-85507138D01*
X106764743Y-85691680D01*
X106737930Y-85749444D01*
X106686951Y-85859270D01*
X106670688Y-85894305D01*
X106610989Y-86109570D01*
X106610440Y-86114707D01*
X106609456Y-86123913D01*
X106587251Y-86331695D01*
X106587548Y-86336848D01*
X106587548Y-86336851D01*
X106596536Y-86492729D01*
X106600110Y-86554715D01*
X106601247Y-86559761D01*
X106601248Y-86559767D01*
X106620795Y-86646500D01*
X106649222Y-86772639D01*
X106733266Y-86979616D01*
X106735965Y-86984020D01*
X106842192Y-87157367D01*
X106849987Y-87170088D01*
X106996250Y-87338938D01*
X107168126Y-87481632D01*
X107238595Y-87522811D01*
X107241445Y-87524476D01*
X107290169Y-87576114D01*
X107303240Y-87645897D01*
X107276509Y-87711669D01*
X107236055Y-87745027D01*
X107223607Y-87751507D01*
X107219474Y-87754610D01*
X107219471Y-87754612D01*
X107158602Y-87800314D01*
X107044965Y-87885635D01*
X106890629Y-88047138D01*
X106764743Y-88231680D01*
X106749003Y-88265590D01*
X106688462Y-88396015D01*
X106670688Y-88434305D01*
X106610989Y-88649570D01*
X106587251Y-88871695D01*
X106587548Y-88876848D01*
X106587548Y-88876851D01*
X106592904Y-88969736D01*
X106600110Y-89094715D01*
X106601247Y-89099761D01*
X106601248Y-89099767D01*
X106617001Y-89169667D01*
X106649222Y-89312639D01*
X106733266Y-89519616D01*
X106849987Y-89710088D01*
X106996250Y-89878938D01*
X107168126Y-90021632D01*
X107238595Y-90062811D01*
X107241445Y-90064476D01*
X107290169Y-90116114D01*
X107303240Y-90185897D01*
X107276509Y-90251669D01*
X107236055Y-90285027D01*
X107223607Y-90291507D01*
X107219474Y-90294610D01*
X107219471Y-90294612D01*
X107049100Y-90422530D01*
X107044965Y-90425635D01*
X107041393Y-90429373D01*
X106949407Y-90525631D01*
X106890629Y-90587138D01*
X106887715Y-90591410D01*
X106887714Y-90591411D01*
X106819506Y-90691401D01*
X106764743Y-90771680D01*
X106717896Y-90872604D01*
X106673530Y-90968183D01*
X106670688Y-90974305D01*
X106610989Y-91189570D01*
X106587251Y-91411695D01*
X106587548Y-91416848D01*
X106587548Y-91416851D01*
X106599812Y-91629547D01*
X106600110Y-91634715D01*
X106601247Y-91639761D01*
X106601248Y-91639767D01*
X106621119Y-91727939D01*
X106649222Y-91852639D01*
X106733266Y-92059616D01*
X106749573Y-92086227D01*
X106846574Y-92244518D01*
X106849987Y-92250088D01*
X106996250Y-92418938D01*
X107168126Y-92561632D01*
X107190611Y-92574771D01*
X107241445Y-92604476D01*
X107290169Y-92656114D01*
X107303240Y-92725897D01*
X107276509Y-92791669D01*
X107236055Y-92825027D01*
X107223607Y-92831507D01*
X107219474Y-92834610D01*
X107219471Y-92834612D01*
X107072901Y-92944660D01*
X107044965Y-92965635D01*
X106890629Y-93127138D01*
X106887715Y-93131410D01*
X106887714Y-93131411D01*
X106875404Y-93149457D01*
X106764743Y-93311680D01*
X106726011Y-93395121D01*
X106689471Y-93473841D01*
X106670688Y-93514305D01*
X106610989Y-93729570D01*
X106587251Y-93951695D01*
X106587548Y-93956848D01*
X106587548Y-93956851D01*
X106598903Y-94153788D01*
X106600110Y-94174715D01*
X106601247Y-94179761D01*
X106601248Y-94179767D01*
X106608734Y-94212983D01*
X106649222Y-94392639D01*
X106733266Y-94599616D01*
X106849987Y-94790088D01*
X106996250Y-94958938D01*
X107168126Y-95101632D01*
X107224383Y-95134506D01*
X107241445Y-95144476D01*
X107290169Y-95196114D01*
X107303240Y-95265897D01*
X107276509Y-95331669D01*
X107236055Y-95365027D01*
X107223607Y-95371507D01*
X107219474Y-95374610D01*
X107219471Y-95374612D01*
X107089664Y-95472074D01*
X107044965Y-95505635D01*
X106890629Y-95667138D01*
X106764743Y-95851680D01*
X106726011Y-95935121D01*
X106689471Y-96013841D01*
X106670688Y-96054305D01*
X106610989Y-96269570D01*
X106587251Y-96491695D01*
X106587548Y-96496848D01*
X106587548Y-96496851D01*
X106596448Y-96651204D01*
X106600110Y-96714715D01*
X106601247Y-96719761D01*
X106601248Y-96719767D01*
X106613338Y-96773412D01*
X106649222Y-96932639D01*
X106733266Y-97139616D01*
X106849987Y-97330088D01*
X106996250Y-97498938D01*
X107168126Y-97641632D01*
X107204924Y-97663135D01*
X107241445Y-97684476D01*
X107290169Y-97736114D01*
X107303240Y-97805897D01*
X107276509Y-97871669D01*
X107236055Y-97905027D01*
X107223607Y-97911507D01*
X107219474Y-97914610D01*
X107219471Y-97914612D01*
X107195247Y-97932800D01*
X107044965Y-98045635D01*
X106890629Y-98207138D01*
X106764743Y-98391680D01*
X106719433Y-98489293D01*
X106674756Y-98585542D01*
X106670688Y-98594305D01*
X106610989Y-98809570D01*
X106587251Y-99031695D01*
X106587548Y-99036848D01*
X106587548Y-99036851D01*
X106598889Y-99233536D01*
X106600110Y-99254715D01*
X106601247Y-99259761D01*
X106601248Y-99259767D01*
X106613335Y-99313400D01*
X106649222Y-99472639D01*
X106733266Y-99679616D01*
X106775208Y-99748060D01*
X106844784Y-99861597D01*
X106849987Y-99870088D01*
X106996250Y-100038938D01*
X107168126Y-100181632D01*
X107217793Y-100210655D01*
X107241445Y-100224476D01*
X107290169Y-100276114D01*
X107303240Y-100345897D01*
X107276509Y-100411669D01*
X107236055Y-100445027D01*
X107223607Y-100451507D01*
X107219474Y-100454610D01*
X107219471Y-100454612D01*
X107049336Y-100582353D01*
X107044965Y-100585635D01*
X107041393Y-100589373D01*
X106946025Y-100689170D01*
X106890629Y-100747138D01*
X106887715Y-100751410D01*
X106887714Y-100751411D01*
X106830838Y-100834788D01*
X106764743Y-100931680D01*
X106726011Y-101015121D01*
X106689471Y-101093841D01*
X106670688Y-101134305D01*
X106610989Y-101349570D01*
X106587251Y-101571695D01*
X106587548Y-101576848D01*
X106587548Y-101576851D01*
X106593011Y-101671590D01*
X106600110Y-101794715D01*
X106601247Y-101799761D01*
X106601248Y-101799767D01*
X106620188Y-101883806D01*
X106649222Y-102012639D01*
X106733266Y-102219616D01*
X106749863Y-102246700D01*
X106847291Y-102405688D01*
X106849987Y-102410088D01*
X106996250Y-102578938D01*
X107168126Y-102721632D01*
X107229336Y-102757400D01*
X107241445Y-102764476D01*
X107290169Y-102816114D01*
X107303240Y-102885897D01*
X107276509Y-102951669D01*
X107236055Y-102985027D01*
X107223607Y-102991507D01*
X107219474Y-102994610D01*
X107219471Y-102994612D01*
X107049100Y-103122530D01*
X107044965Y-103125635D01*
X107041393Y-103129373D01*
X106896279Y-103281226D01*
X106890629Y-103287138D01*
X106764743Y-103471680D01*
X106751028Y-103501227D01*
X106708880Y-103592028D01*
X106670688Y-103674305D01*
X106610989Y-103889570D01*
X106587251Y-104111695D01*
X106587548Y-104116848D01*
X106587548Y-104116851D01*
X106593011Y-104211590D01*
X106600110Y-104334715D01*
X106601247Y-104339761D01*
X106601248Y-104339767D01*
X106620188Y-104423806D01*
X106649222Y-104552639D01*
X106733266Y-104759616D01*
X106735965Y-104764020D01*
X106847291Y-104945688D01*
X106849987Y-104950088D01*
X106996250Y-105118938D01*
X107168126Y-105261632D01*
X107238595Y-105302811D01*
X107241445Y-105304476D01*
X107290169Y-105356114D01*
X107303240Y-105425897D01*
X107276509Y-105491669D01*
X107236055Y-105525027D01*
X107223607Y-105531507D01*
X107219474Y-105534610D01*
X107219471Y-105534612D01*
X107070486Y-105646473D01*
X107044965Y-105665635D01*
X106890629Y-105827138D01*
X106764743Y-106011680D01*
X106670688Y-106214305D01*
X106610989Y-106429570D01*
X106587251Y-106651695D01*
X106587548Y-106656848D01*
X106587548Y-106656851D01*
X106593011Y-106751590D01*
X106600110Y-106874715D01*
X106601247Y-106879761D01*
X106601248Y-106879767D01*
X106621119Y-106967939D01*
X106649222Y-107092639D01*
X106709014Y-107239890D01*
X106726662Y-107283351D01*
X106733266Y-107299616D01*
X106752816Y-107331518D01*
X106847291Y-107485688D01*
X106849987Y-107490088D01*
X106996250Y-107658938D01*
X107168126Y-107801632D01*
X107238595Y-107842811D01*
X107241445Y-107844476D01*
X107290169Y-107896114D01*
X107303240Y-107965897D01*
X107276509Y-108031669D01*
X107236055Y-108065027D01*
X107223607Y-108071507D01*
X107219474Y-108074610D01*
X107219471Y-108074612D01*
X107195247Y-108092800D01*
X107044965Y-108205635D01*
X106890629Y-108367138D01*
X106764743Y-108551680D01*
X106670688Y-108754305D01*
X106610989Y-108969570D01*
X106587251Y-109191695D01*
X106045000Y-109191695D01*
X106045000Y-71881000D01*
X106065002Y-71812879D01*
X106118658Y-71766386D01*
X106171000Y-71755000D01*
X132589000Y-71755000D01*
X132657121Y-71775002D01*
G37*
%TD.AperFunction*%
%TA.AperFunction,Conductor*%
G36*
X109094684Y-97406261D02*
G01*
X109139540Y-97435144D01*
X110178143Y-98473747D01*
X110185687Y-98482037D01*
X110189800Y-98488518D01*
X110195577Y-98493943D01*
X110239467Y-98535158D01*
X110242309Y-98537913D01*
X110262030Y-98557634D01*
X110265225Y-98560112D01*
X110274247Y-98567818D01*
X110306479Y-98598086D01*
X110313428Y-98601906D01*
X110324232Y-98607846D01*
X110340756Y-98618699D01*
X110356759Y-98631113D01*
X110397343Y-98648676D01*
X110407973Y-98653883D01*
X110446740Y-98675195D01*
X110454417Y-98677166D01*
X110454422Y-98677168D01*
X110466358Y-98680232D01*
X110485066Y-98686637D01*
X110503655Y-98694681D01*
X110511480Y-98695920D01*
X110511482Y-98695921D01*
X110547319Y-98701597D01*
X110558940Y-98704004D01*
X110594089Y-98713028D01*
X110601770Y-98715000D01*
X110622031Y-98715000D01*
X110641740Y-98716551D01*
X110661743Y-98719719D01*
X110669635Y-98718973D01*
X110674862Y-98718479D01*
X110705754Y-98715559D01*
X110717611Y-98715000D01*
X112312724Y-98715000D01*
X112380845Y-98735002D01*
X112407237Y-98757673D01*
X112408771Y-98759413D01*
X112413228Y-98765971D01*
X112419176Y-98771215D01*
X112419177Y-98771216D01*
X112455403Y-98803154D01*
X112461153Y-98808552D01*
X112472520Y-98819914D01*
X112471246Y-98821189D01*
X112505233Y-98875113D01*
X112504608Y-98946107D01*
X112473144Y-98998620D01*
X112195392Y-99276495D01*
X111775621Y-99696450D01*
X111767418Y-99703916D01*
X111760982Y-99708000D01*
X111718596Y-99753138D01*
X111714306Y-99757706D01*
X111711568Y-99760531D01*
X111694577Y-99777528D01*
X111694564Y-99777543D01*
X111691773Y-99780335D01*
X111689341Y-99783472D01*
X111689325Y-99783490D01*
X111681630Y-99792502D01*
X111651414Y-99824679D01*
X111647596Y-99831623D01*
X111647595Y-99831625D01*
X111641615Y-99842503D01*
X111630778Y-99859005D01*
X111618315Y-99875080D01*
X111605251Y-99905288D01*
X111600799Y-99915583D01*
X111595564Y-99926271D01*
X111581344Y-99952137D01*
X111574305Y-99964940D01*
X111572334Y-99972617D01*
X111569246Y-99984644D01*
X111562855Y-100003316D01*
X111557929Y-100014708D01*
X111554780Y-100021990D01*
X111553541Y-100029824D01*
X111547887Y-100065574D01*
X111545475Y-100077226D01*
X111534500Y-100119970D01*
X111534500Y-100140312D01*
X111532953Y-100159996D01*
X111529776Y-100180083D01*
X111530524Y-100187978D01*
X111533938Y-100224010D01*
X111534500Y-100235895D01*
X111534500Y-100621049D01*
X111514498Y-100689170D01*
X111474803Y-100728193D01*
X111407195Y-100770030D01*
X111407188Y-100770036D01*
X111400969Y-100773884D01*
X111395800Y-100779062D01*
X111283242Y-100891816D01*
X111283238Y-100891821D01*
X111278071Y-100896997D01*
X111274231Y-100903227D01*
X111274230Y-100903228D01*
X111191364Y-101037662D01*
X111186791Y-101045080D01*
X111132026Y-101210191D01*
X111121500Y-101312928D01*
X111121500Y-101887072D01*
X111132293Y-101991093D01*
X111134476Y-101997635D01*
X111134476Y-101997637D01*
X111162229Y-102080823D01*
X111164814Y-102151773D01*
X111128631Y-102212857D01*
X111065167Y-102244682D01*
X111042706Y-102246700D01*
X110715094Y-102246700D01*
X110646973Y-102226698D01*
X110625999Y-102209795D01*
X109628952Y-101212747D01*
X109621412Y-101204461D01*
X109617300Y-101197982D01*
X109567648Y-101151356D01*
X109564807Y-101148602D01*
X109545070Y-101128865D01*
X109541873Y-101126385D01*
X109532851Y-101118680D01*
X109506400Y-101093841D01*
X109500621Y-101088414D01*
X109493675Y-101084595D01*
X109493672Y-101084593D01*
X109482866Y-101078652D01*
X109466347Y-101067801D01*
X109465883Y-101067441D01*
X109450341Y-101055386D01*
X109443072Y-101052241D01*
X109443068Y-101052238D01*
X109409763Y-101037826D01*
X109399113Y-101032609D01*
X109360360Y-101011305D01*
X109340737Y-101006267D01*
X109322034Y-100999863D01*
X109310720Y-100994967D01*
X109310719Y-100994967D01*
X109303445Y-100991819D01*
X109295622Y-100990580D01*
X109295612Y-100990577D01*
X109259776Y-100984901D01*
X109248156Y-100982495D01*
X109213012Y-100973472D01*
X109213009Y-100973472D01*
X109209702Y-100972622D01*
X109205331Y-100971500D01*
X109205643Y-100970285D01*
X109147848Y-100945079D01*
X109122924Y-100916894D01*
X109032822Y-100777617D01*
X109032820Y-100777614D01*
X109030014Y-100773277D01*
X108879670Y-100608051D01*
X108875619Y-100604852D01*
X108875615Y-100604848D01*
X108708414Y-100472800D01*
X108708410Y-100472798D01*
X108704359Y-100469598D01*
X108663053Y-100446796D01*
X108613084Y-100396364D01*
X108598312Y-100326921D01*
X108623428Y-100260516D01*
X108650780Y-100233909D01*
X108694603Y-100202650D01*
X108829860Y-100106173D01*
X108870118Y-100066056D01*
X108962375Y-99974120D01*
X108988096Y-99948489D01*
X108994129Y-99940094D01*
X109115435Y-99771277D01*
X109118453Y-99767077D01*
X109123085Y-99757706D01*
X109215136Y-99571453D01*
X109215137Y-99571451D01*
X109217430Y-99566811D01*
X109282370Y-99353069D01*
X109311529Y-99131590D01*
X109311611Y-99128240D01*
X109313074Y-99068365D01*
X109313074Y-99068361D01*
X109313156Y-99065000D01*
X109294852Y-98842361D01*
X109240431Y-98625702D01*
X109151354Y-98420840D01*
X109030014Y-98233277D01*
X108879670Y-98068051D01*
X108875619Y-98064852D01*
X108875615Y-98064848D01*
X108708414Y-97932800D01*
X108708410Y-97932798D01*
X108704359Y-97929598D01*
X108663053Y-97906796D01*
X108613084Y-97856364D01*
X108598312Y-97786921D01*
X108623428Y-97720516D01*
X108650780Y-97693909D01*
X108719178Y-97645121D01*
X108829860Y-97566173D01*
X108833517Y-97562529D01*
X108833523Y-97562524D01*
X108961506Y-97434988D01*
X109023877Y-97401072D01*
X109094684Y-97406261D01*
G37*
%TD.AperFunction*%
%TA.AperFunction,Conductor*%
G36*
X113088758Y-100279129D02*
G01*
X113138388Y-100312883D01*
X113192847Y-100373366D01*
X113264496Y-100425422D01*
X113331286Y-100473948D01*
X113347348Y-100485618D01*
X113353376Y-100488302D01*
X113353378Y-100488303D01*
X113515781Y-100560609D01*
X113521812Y-100563294D01*
X113615213Y-100583147D01*
X113702156Y-100601628D01*
X113702161Y-100601628D01*
X113708613Y-100603000D01*
X113899587Y-100603000D01*
X113906039Y-100601628D01*
X113906044Y-100601628D01*
X113982717Y-100585330D01*
X114032195Y-100574813D01*
X114102984Y-100580215D01*
X114159617Y-100623032D01*
X114184111Y-100689669D01*
X114168807Y-100758758D01*
X114162605Y-100770040D01*
X114160634Y-100777715D01*
X114160634Y-100777716D01*
X114157567Y-100789662D01*
X114151163Y-100808366D01*
X114143119Y-100826955D01*
X114141880Y-100834778D01*
X114141877Y-100834788D01*
X114136201Y-100870624D01*
X114133795Y-100882244D01*
X114128408Y-100903228D01*
X114122800Y-100925070D01*
X114122800Y-100945324D01*
X114121249Y-100965034D01*
X114118080Y-100985043D01*
X114118826Y-100992935D01*
X114122241Y-101029061D01*
X114122800Y-101040919D01*
X114122800Y-101756505D01*
X114102798Y-101824626D01*
X114085895Y-101845600D01*
X113721700Y-102209795D01*
X113659388Y-102243821D01*
X113632605Y-102246700D01*
X113292309Y-102246700D01*
X113224188Y-102226698D01*
X113177695Y-102173042D01*
X113167591Y-102102768D01*
X113172714Y-102081038D01*
X113202974Y-101989809D01*
X113213500Y-101887072D01*
X113213500Y-101312928D01*
X113211789Y-101296436D01*
X113203419Y-101215765D01*
X113203418Y-101215761D01*
X113202707Y-101208907D01*
X113183060Y-101150016D01*
X113149972Y-101050841D01*
X113147654Y-101043893D01*
X113056116Y-100895969D01*
X112994828Y-100834788D01*
X112938184Y-100778242D01*
X112938179Y-100778238D01*
X112933003Y-100773071D01*
X112861384Y-100728924D01*
X112813890Y-100676151D01*
X112801500Y-100621664D01*
X112801500Y-100514498D01*
X112821502Y-100446377D01*
X112838385Y-100425422D01*
X112955637Y-100308118D01*
X113017941Y-100274079D01*
X113088758Y-100279129D01*
G37*
%TD.AperFunction*%
%TA.AperFunction,Conductor*%
G36*
X119883412Y-89472636D02*
G01*
X119889995Y-89478765D01*
X119920678Y-89509448D01*
X119938802Y-89524020D01*
X119969424Y-89548641D01*
X119967890Y-89550549D01*
X119988284Y-89570940D01*
X119990190Y-89569408D01*
X120029383Y-89618154D01*
X120486363Y-90075134D01*
X120489025Y-90077274D01*
X120528953Y-90109378D01*
X120528956Y-90109380D01*
X120535109Y-90114327D01*
X120591977Y-90140183D01*
X120636289Y-90160330D01*
X120667705Y-90174614D01*
X120676588Y-90175886D01*
X120676591Y-90175887D01*
X120803002Y-90193990D01*
X120811891Y-90195263D01*
X120912435Y-90180864D01*
X120982703Y-90191006D01*
X121036333Y-90237529D01*
X121056297Y-90305661D01*
X121055024Y-90323450D01*
X121040625Y-90423996D01*
X121041898Y-90432885D01*
X121059351Y-90554753D01*
X121061274Y-90568182D01*
X121064988Y-90576350D01*
X121064988Y-90576351D01*
X121081777Y-90613277D01*
X121121561Y-90700778D01*
X121126508Y-90706931D01*
X121126510Y-90706934D01*
X121145696Y-90730796D01*
X121160754Y-90749524D01*
X121617734Y-91206504D01*
X121620396Y-91208644D01*
X121666480Y-91245697D01*
X121664946Y-91247605D01*
X121685340Y-91267996D01*
X121687246Y-91266464D01*
X121726439Y-91315210D01*
X122183419Y-91772190D01*
X122232165Y-91811383D01*
X122230633Y-91813289D01*
X122251024Y-91833683D01*
X122252932Y-91832149D01*
X122292125Y-91880895D01*
X122749105Y-92337875D01*
X122770389Y-92354988D01*
X122797851Y-92377068D01*
X122796317Y-92378976D01*
X122816711Y-92399367D01*
X122818617Y-92397835D01*
X122857810Y-92446581D01*
X123314790Y-92903561D01*
X123347094Y-92929534D01*
X123363536Y-92942754D01*
X123362004Y-92944660D01*
X123382395Y-92965054D01*
X123384303Y-92963520D01*
X123423496Y-93012266D01*
X123880476Y-93469246D01*
X123883138Y-93471386D01*
X123923066Y-93503490D01*
X123923069Y-93503492D01*
X123929222Y-93508439D01*
X124061818Y-93568726D01*
X124070701Y-93569998D01*
X124070704Y-93569999D01*
X124197115Y-93588102D01*
X124206004Y-93589375D01*
X124306547Y-93574976D01*
X124376815Y-93585118D01*
X124430445Y-93631641D01*
X124450409Y-93699773D01*
X124449138Y-93717551D01*
X124439609Y-93784089D01*
X124410154Y-93848682D01*
X124403978Y-93855318D01*
X121774800Y-96484495D01*
X121712488Y-96518521D01*
X121685705Y-96521400D01*
X120136394Y-96521400D01*
X120068273Y-96501398D01*
X120047299Y-96484495D01*
X118260905Y-94698100D01*
X118226879Y-94635788D01*
X118224000Y-94609005D01*
X118224000Y-92208739D01*
X118244002Y-92140618D01*
X118297658Y-92094125D01*
X118367932Y-92084021D01*
X118376202Y-92085493D01*
X118386113Y-92087600D01*
X118577087Y-92087600D01*
X118583539Y-92086228D01*
X118583544Y-92086228D01*
X118670488Y-92067747D01*
X118763888Y-92047894D01*
X118837801Y-92014986D01*
X118932322Y-91972903D01*
X118932324Y-91972902D01*
X118938352Y-91970218D01*
X118977388Y-91941857D01*
X119014000Y-91915256D01*
X119092853Y-91857966D01*
X119097275Y-91853055D01*
X119216221Y-91720952D01*
X119216222Y-91720951D01*
X119220640Y-91716044D01*
X119316127Y-91550656D01*
X119375142Y-91369028D01*
X119380799Y-91315210D01*
X119392507Y-91203808D01*
X119419520Y-91138151D01*
X119428722Y-91127883D01*
X119433653Y-91122952D01*
X119441939Y-91115412D01*
X119448418Y-91111300D01*
X119495044Y-91061648D01*
X119497798Y-91058807D01*
X119517535Y-91039070D01*
X119520015Y-91035873D01*
X119527720Y-91026851D01*
X119552559Y-91000400D01*
X119557986Y-90994621D01*
X119561805Y-90987675D01*
X119561807Y-90987672D01*
X119567748Y-90976866D01*
X119578599Y-90960347D01*
X119586158Y-90950601D01*
X119591014Y-90944341D01*
X119594159Y-90937072D01*
X119594162Y-90937068D01*
X119608574Y-90903763D01*
X119613791Y-90893113D01*
X119635095Y-90854360D01*
X119640133Y-90834737D01*
X119646537Y-90816034D01*
X119651433Y-90804720D01*
X119651433Y-90804719D01*
X119654581Y-90797445D01*
X119655820Y-90789622D01*
X119655823Y-90789612D01*
X119661499Y-90753776D01*
X119663905Y-90742156D01*
X119672928Y-90707011D01*
X119672928Y-90707010D01*
X119674900Y-90699330D01*
X119674900Y-90679076D01*
X119676451Y-90659365D01*
X119678380Y-90647186D01*
X119679620Y-90639357D01*
X119675459Y-90595338D01*
X119674900Y-90583481D01*
X119674900Y-89567860D01*
X119694902Y-89499739D01*
X119748558Y-89453246D01*
X119818832Y-89443142D01*
X119883412Y-89472636D01*
G37*
%TD.AperFunction*%
%TA.AperFunction,Conductor*%
G36*
X109094684Y-92326261D02*
G01*
X109139540Y-92355144D01*
X109811384Y-93026989D01*
X110464248Y-93679853D01*
X110471788Y-93688139D01*
X110475900Y-93694618D01*
X110481677Y-93700043D01*
X110525551Y-93741243D01*
X110528393Y-93743998D01*
X110548130Y-93763735D01*
X110551327Y-93766215D01*
X110560347Y-93773918D01*
X110592579Y-93804186D01*
X110599525Y-93808005D01*
X110599528Y-93808007D01*
X110610334Y-93813948D01*
X110626853Y-93824799D01*
X110642859Y-93837214D01*
X110650128Y-93840359D01*
X110650132Y-93840362D01*
X110683437Y-93854774D01*
X110694087Y-93859991D01*
X110732840Y-93881295D01*
X110740515Y-93883266D01*
X110740516Y-93883266D01*
X110752462Y-93886333D01*
X110771167Y-93892737D01*
X110789755Y-93900781D01*
X110797578Y-93902020D01*
X110797588Y-93902023D01*
X110833424Y-93907699D01*
X110845044Y-93910105D01*
X110876859Y-93918273D01*
X110887870Y-93921100D01*
X110908124Y-93921100D01*
X110927834Y-93922651D01*
X110947843Y-93925820D01*
X110955735Y-93925074D01*
X110967163Y-93923994D01*
X110991862Y-93921659D01*
X111003719Y-93921100D01*
X111252558Y-93921100D01*
X111320679Y-93941102D01*
X111359845Y-93981029D01*
X111360218Y-93981634D01*
X111363487Y-93988824D01*
X111368434Y-93994977D01*
X111368436Y-93994980D01*
X111389224Y-94020834D01*
X111402680Y-94037570D01*
X112526015Y-95160905D01*
X112560041Y-95223217D01*
X112554976Y-95294032D01*
X112526015Y-95339095D01*
X112037135Y-95827975D01*
X111974823Y-95862001D01*
X111904008Y-95856936D01*
X111848481Y-95816107D01*
X111844879Y-95811464D01*
X111840842Y-95804637D01*
X111826518Y-95790313D01*
X111813676Y-95775278D01*
X111801772Y-95758893D01*
X111767706Y-95730711D01*
X111758927Y-95722722D01*
X109628952Y-93592747D01*
X109621412Y-93584461D01*
X109617300Y-93577982D01*
X109567648Y-93531356D01*
X109564807Y-93528602D01*
X109545070Y-93508865D01*
X109541873Y-93506385D01*
X109532851Y-93498680D01*
X109506400Y-93473841D01*
X109500621Y-93468414D01*
X109493675Y-93464595D01*
X109493672Y-93464593D01*
X109482866Y-93458652D01*
X109466347Y-93447801D01*
X109465883Y-93447441D01*
X109450341Y-93435386D01*
X109443072Y-93432241D01*
X109443068Y-93432238D01*
X109409763Y-93417826D01*
X109399113Y-93412609D01*
X109360360Y-93391305D01*
X109340737Y-93386267D01*
X109322034Y-93379863D01*
X109310720Y-93374967D01*
X109310719Y-93374967D01*
X109303445Y-93371819D01*
X109295622Y-93370580D01*
X109295612Y-93370577D01*
X109259776Y-93364901D01*
X109248156Y-93362495D01*
X109213012Y-93353472D01*
X109213009Y-93353472D01*
X109209702Y-93352622D01*
X109205331Y-93351500D01*
X109205643Y-93350285D01*
X109147848Y-93325079D01*
X109122924Y-93296894D01*
X109032822Y-93157617D01*
X109032820Y-93157614D01*
X109030014Y-93153277D01*
X108879670Y-92988051D01*
X108875619Y-92984852D01*
X108875615Y-92984848D01*
X108708414Y-92852800D01*
X108708410Y-92852798D01*
X108704359Y-92849598D01*
X108663053Y-92826796D01*
X108613084Y-92776364D01*
X108598312Y-92706921D01*
X108623428Y-92640516D01*
X108650780Y-92613909D01*
X108694603Y-92582650D01*
X108829860Y-92486173D01*
X108833517Y-92482529D01*
X108833523Y-92482524D01*
X108961506Y-92354988D01*
X109023877Y-92321072D01*
X109094684Y-92326261D01*
G37*
%TD.AperFunction*%
%TA.AperFunction,Conductor*%
G36*
X129754612Y-87245158D02*
G01*
X129805815Y-87280715D01*
X129856250Y-87338938D01*
X130028126Y-87481632D01*
X130098595Y-87522811D01*
X130101445Y-87524476D01*
X130150169Y-87576114D01*
X130163240Y-87645897D01*
X130136509Y-87711669D01*
X130096055Y-87745027D01*
X130083607Y-87751507D01*
X130079474Y-87754610D01*
X130079471Y-87754612D01*
X130018602Y-87800314D01*
X129904965Y-87885635D01*
X129750629Y-88047138D01*
X129624743Y-88231680D01*
X129609003Y-88265590D01*
X129548462Y-88396015D01*
X129530688Y-88434305D01*
X129470989Y-88649570D01*
X129447251Y-88871695D01*
X129447548Y-88876848D01*
X129447548Y-88876851D01*
X129452904Y-88969736D01*
X129460110Y-89094715D01*
X129461247Y-89099761D01*
X129461248Y-89099767D01*
X129477001Y-89169667D01*
X129509222Y-89312639D01*
X129593266Y-89519616D01*
X129709987Y-89710088D01*
X129713367Y-89713990D01*
X129732763Y-89736381D01*
X129762246Y-89800966D01*
X129752132Y-89871239D01*
X129726621Y-89907974D01*
X129242447Y-90392148D01*
X129234161Y-90399688D01*
X129227682Y-90403800D01*
X129222257Y-90409577D01*
X129181057Y-90453451D01*
X129178302Y-90456293D01*
X129158565Y-90476030D01*
X129156085Y-90479227D01*
X129148382Y-90488247D01*
X129118114Y-90520479D01*
X129114295Y-90527425D01*
X129114293Y-90527428D01*
X129108352Y-90538234D01*
X129097501Y-90554753D01*
X129085086Y-90570759D01*
X129081941Y-90578028D01*
X129081938Y-90578032D01*
X129067526Y-90611337D01*
X129062309Y-90621987D01*
X129041005Y-90660740D01*
X129039034Y-90668415D01*
X129039034Y-90668416D01*
X129035967Y-90680362D01*
X129029564Y-90699064D01*
X129026159Y-90706934D01*
X129021895Y-90716787D01*
X128995352Y-90755844D01*
X128964588Y-90786608D01*
X128902276Y-90820634D01*
X128831461Y-90815569D01*
X128774625Y-90773022D01*
X128768350Y-90763818D01*
X128754970Y-90742197D01*
X128751116Y-90735969D01*
X128732770Y-90717655D01*
X128633184Y-90618242D01*
X128633179Y-90618238D01*
X128628003Y-90613071D01*
X128621772Y-90609230D01*
X128486150Y-90525631D01*
X128486148Y-90525630D01*
X128479920Y-90521791D01*
X128314809Y-90467026D01*
X128307973Y-90466326D01*
X128307970Y-90466325D01*
X128256474Y-90461049D01*
X128212072Y-90456500D01*
X127512928Y-90456500D01*
X127509682Y-90456837D01*
X127509678Y-90456837D01*
X127415765Y-90466581D01*
X127415761Y-90466582D01*
X127408907Y-90467293D01*
X127402371Y-90469474D01*
X127402369Y-90469474D01*
X127346094Y-90488249D01*
X127243893Y-90522346D01*
X127095969Y-90613884D01*
X127090796Y-90619066D01*
X126978242Y-90731816D01*
X126978238Y-90731821D01*
X126973071Y-90736997D01*
X126969231Y-90743227D01*
X126969230Y-90743228D01*
X126887717Y-90875467D01*
X126881791Y-90885080D01*
X126827026Y-91050191D01*
X126816500Y-91152928D01*
X126816500Y-91390453D01*
X126796498Y-91458574D01*
X126779602Y-91479542D01*
X126125884Y-92133323D01*
X126046245Y-92212970D01*
X125983934Y-92246998D01*
X125975006Y-92248606D01*
X125908583Y-92258119D01*
X125838316Y-92247977D01*
X125784686Y-92201454D01*
X125764721Y-92133323D01*
X125765992Y-92115544D01*
X125777637Y-92034228D01*
X125791951Y-91991392D01*
X125800048Y-91976665D01*
X125810899Y-91960145D01*
X125818453Y-91950406D01*
X125823313Y-91944141D01*
X125840876Y-91903557D01*
X125846083Y-91892927D01*
X125867395Y-91854160D01*
X125869366Y-91846483D01*
X125869368Y-91846478D01*
X125872432Y-91834542D01*
X125878838Y-91815830D01*
X125883734Y-91804517D01*
X125886881Y-91797245D01*
X125890511Y-91774330D01*
X125893797Y-91753581D01*
X125896204Y-91741960D01*
X125905228Y-91706811D01*
X125905228Y-91706810D01*
X125907200Y-91699130D01*
X125907200Y-91678869D01*
X125908751Y-91659158D01*
X125910679Y-91646985D01*
X125911919Y-91639157D01*
X125907759Y-91595146D01*
X125907200Y-91583289D01*
X125907200Y-91040594D01*
X125927202Y-90972473D01*
X125944105Y-90951499D01*
X129621485Y-87274119D01*
X129683797Y-87240093D01*
X129754612Y-87245158D01*
G37*
%TD.AperFunction*%
%TA.AperFunction,Conductor*%
G36*
X115647026Y-79410144D02*
G01*
X115674875Y-79441994D01*
X115734987Y-79540088D01*
X115881250Y-79708938D01*
X116053126Y-79851632D01*
X116070239Y-79861632D01*
X116126445Y-79894476D01*
X116175169Y-79946114D01*
X116188240Y-80015897D01*
X116161509Y-80081669D01*
X116121055Y-80115027D01*
X116108607Y-80121507D01*
X116104474Y-80124610D01*
X116104471Y-80124612D01*
X116047805Y-80167158D01*
X115929965Y-80255635D01*
X115775629Y-80417138D01*
X115772720Y-80421403D01*
X115772714Y-80421411D01*
X115760404Y-80439457D01*
X115649743Y-80601680D01*
X115555688Y-80804305D01*
X115495989Y-81019570D01*
X115472251Y-81241695D01*
X115472548Y-81246848D01*
X115472548Y-81246851D01*
X115478011Y-81341590D01*
X115485110Y-81464715D01*
X115486247Y-81469761D01*
X115486248Y-81469767D01*
X115488502Y-81479767D01*
X115534222Y-81682639D01*
X115618266Y-81889616D01*
X115658336Y-81955005D01*
X115732291Y-82075688D01*
X115734987Y-82080088D01*
X115881250Y-82248938D01*
X116053126Y-82391632D01*
X116246000Y-82504338D01*
X116454692Y-82584030D01*
X116459760Y-82585061D01*
X116459763Y-82585062D01*
X116567017Y-82606883D01*
X116673597Y-82628567D01*
X116678772Y-82628757D01*
X116678774Y-82628757D01*
X116891673Y-82636564D01*
X116891677Y-82636564D01*
X116896837Y-82636753D01*
X116901957Y-82636097D01*
X116901959Y-82636097D01*
X117113288Y-82609025D01*
X117113289Y-82609025D01*
X117118416Y-82608368D01*
X117123366Y-82606883D01*
X117327429Y-82545661D01*
X117327434Y-82545659D01*
X117332384Y-82544174D01*
X117532994Y-82445896D01*
X117714860Y-82316173D01*
X117758842Y-82272345D01*
X117807727Y-82223630D01*
X117873096Y-82158489D01*
X117889993Y-82134975D01*
X118003453Y-81977077D01*
X118004776Y-81978028D01*
X118051645Y-81934857D01*
X118121580Y-81922625D01*
X118187026Y-81950144D01*
X118214875Y-81981994D01*
X118274987Y-82080088D01*
X118421250Y-82248938D01*
X118593126Y-82391632D01*
X118786000Y-82504338D01*
X118994692Y-82584030D01*
X118999760Y-82585061D01*
X118999763Y-82585062D01*
X119107017Y-82606883D01*
X119213597Y-82628567D01*
X119218772Y-82628757D01*
X119218774Y-82628757D01*
X119431673Y-82636564D01*
X119431677Y-82636564D01*
X119436837Y-82636753D01*
X119441957Y-82636097D01*
X119441959Y-82636097D01*
X119653288Y-82609025D01*
X119653289Y-82609025D01*
X119658416Y-82608368D01*
X119663366Y-82606883D01*
X119867429Y-82545661D01*
X119867434Y-82545659D01*
X119872384Y-82544174D01*
X120072994Y-82445896D01*
X120254860Y-82316173D01*
X120298842Y-82272345D01*
X120347727Y-82223630D01*
X120413096Y-82158489D01*
X120429993Y-82134975D01*
X120543453Y-81977077D01*
X120544776Y-81978028D01*
X120591645Y-81934857D01*
X120661580Y-81922625D01*
X120727026Y-81950144D01*
X120754875Y-81981994D01*
X120814987Y-82080088D01*
X120961250Y-82248938D01*
X121133126Y-82391632D01*
X121326000Y-82504338D01*
X121534692Y-82584030D01*
X121539760Y-82585061D01*
X121539763Y-82585062D01*
X121647017Y-82606883D01*
X121753597Y-82628567D01*
X121758772Y-82628757D01*
X121758774Y-82628757D01*
X121971673Y-82636564D01*
X121971677Y-82636564D01*
X121976837Y-82636753D01*
X121981957Y-82636097D01*
X121981959Y-82636097D01*
X122193288Y-82609025D01*
X122193289Y-82609025D01*
X122198416Y-82608368D01*
X122203366Y-82606883D01*
X122407429Y-82545661D01*
X122407434Y-82545659D01*
X122412384Y-82544174D01*
X122612994Y-82445896D01*
X122794860Y-82316173D01*
X122838842Y-82272345D01*
X122887727Y-82223630D01*
X122953096Y-82158489D01*
X122969993Y-82134975D01*
X123080435Y-81981277D01*
X123083453Y-81977077D01*
X123104320Y-81934857D01*
X123180136Y-81781453D01*
X123180137Y-81781451D01*
X123182430Y-81776811D01*
X123247370Y-81563069D01*
X123276529Y-81341590D01*
X123276611Y-81338240D01*
X123278074Y-81278365D01*
X123278074Y-81278361D01*
X123278156Y-81275000D01*
X123259852Y-81052361D01*
X123205431Y-80835702D01*
X123116354Y-80630840D01*
X123004291Y-80457617D01*
X122997822Y-80447617D01*
X122997820Y-80447614D01*
X122995014Y-80443277D01*
X122844670Y-80278051D01*
X122840619Y-80274852D01*
X122840615Y-80274848D01*
X122673414Y-80142800D01*
X122673410Y-80142798D01*
X122669359Y-80139598D01*
X122628053Y-80116796D01*
X122578084Y-80066364D01*
X122563312Y-79996921D01*
X122588428Y-79930516D01*
X122615780Y-79903909D01*
X122679684Y-79858327D01*
X122794860Y-79776173D01*
X122903091Y-79668319D01*
X122965462Y-79634404D01*
X123036268Y-79639592D01*
X123093030Y-79682238D01*
X123110012Y-79713341D01*
X123142860Y-79800962D01*
X123154385Y-79831705D01*
X123241739Y-79948261D01*
X123358295Y-80035615D01*
X123494684Y-80086745D01*
X123556866Y-80093500D01*
X125105800Y-80093500D01*
X125173921Y-80113502D01*
X125220414Y-80167158D01*
X125231800Y-80219500D01*
X125231800Y-82793306D01*
X125211798Y-82861427D01*
X125194895Y-82882401D01*
X123056779Y-85020516D01*
X120955560Y-87121735D01*
X120893248Y-87155761D01*
X120884328Y-87157367D01*
X120854135Y-87161691D01*
X120773772Y-87173200D01*
X120641176Y-87233487D01*
X120635023Y-87238434D01*
X120635020Y-87238436D01*
X120627737Y-87244292D01*
X120592430Y-87272680D01*
X119469095Y-88396015D01*
X119406783Y-88430041D01*
X119335968Y-88424976D01*
X119290905Y-88396015D01*
X118167570Y-87272680D01*
X118132263Y-87244292D01*
X118124980Y-87238436D01*
X118124977Y-87238434D01*
X118118824Y-87233487D01*
X117986228Y-87173200D01*
X117977345Y-87171928D01*
X117977342Y-87171927D01*
X117850931Y-87153824D01*
X117842042Y-87152551D01*
X117833153Y-87153824D01*
X117706742Y-87171927D01*
X117706739Y-87171928D01*
X117697856Y-87173200D01*
X117565260Y-87233487D01*
X117559107Y-87238434D01*
X117559104Y-87238436D01*
X117551821Y-87244292D01*
X117516514Y-87272680D01*
X117059534Y-87729660D01*
X117058552Y-87728678D01*
X117002929Y-87763097D01*
X116931943Y-87761884D01*
X116872881Y-87722487D01*
X116844495Y-87657412D01*
X116843500Y-87641612D01*
X116843500Y-87342928D01*
X116836361Y-87274119D01*
X116833419Y-87245765D01*
X116833418Y-87245761D01*
X116832707Y-87238907D01*
X116829809Y-87230219D01*
X116779972Y-87080841D01*
X116777654Y-87073893D01*
X116686116Y-86925969D01*
X116621892Y-86861857D01*
X116568184Y-86808242D01*
X116568179Y-86808238D01*
X116563003Y-86803071D01*
X116521398Y-86777425D01*
X116421150Y-86715631D01*
X116421148Y-86715630D01*
X116414920Y-86711791D01*
X116249809Y-86657026D01*
X116242973Y-86656326D01*
X116242970Y-86656325D01*
X116191474Y-86651049D01*
X116147072Y-86646500D01*
X115447928Y-86646500D01*
X115444682Y-86646837D01*
X115444678Y-86646837D01*
X115350765Y-86656581D01*
X115350761Y-86656582D01*
X115343907Y-86657293D01*
X115337371Y-86659474D01*
X115337369Y-86659474D01*
X115220688Y-86698402D01*
X115178893Y-86712346D01*
X115030969Y-86803884D01*
X115025796Y-86809066D01*
X114913242Y-86921816D01*
X114913238Y-86921821D01*
X114908071Y-86926997D01*
X114904231Y-86933227D01*
X114904230Y-86933228D01*
X114821364Y-87067662D01*
X114816791Y-87075080D01*
X114762026Y-87240191D01*
X114761326Y-87247027D01*
X114761325Y-87247030D01*
X114758697Y-87272680D01*
X114751500Y-87342928D01*
X114751500Y-87685700D01*
X114731498Y-87753821D01*
X114677842Y-87800314D01*
X114625500Y-87811700D01*
X113879100Y-87811700D01*
X113810979Y-87791698D01*
X113764486Y-87738042D01*
X113753100Y-87685700D01*
X113753100Y-80164458D01*
X113773102Y-80096337D01*
X113826758Y-80049844D01*
X113897032Y-80039740D01*
X113911833Y-80042938D01*
X113914692Y-80044030D01*
X113919758Y-80045061D01*
X113919759Y-80045061D01*
X113976565Y-80056618D01*
X114133597Y-80088567D01*
X114138772Y-80088757D01*
X114138774Y-80088757D01*
X114351673Y-80096564D01*
X114351677Y-80096564D01*
X114356837Y-80096753D01*
X114361957Y-80096097D01*
X114361959Y-80096097D01*
X114573288Y-80069025D01*
X114573289Y-80069025D01*
X114578416Y-80068368D01*
X114606828Y-80059844D01*
X114787429Y-80005661D01*
X114787434Y-80005659D01*
X114792384Y-80004174D01*
X114992994Y-79905896D01*
X115174860Y-79776173D01*
X115333096Y-79618489D01*
X115463453Y-79437077D01*
X115464776Y-79438028D01*
X115511645Y-79394857D01*
X115581580Y-79382625D01*
X115647026Y-79410144D01*
G37*
%TD.AperFunction*%
%TD*%
M02*
