%TF.GenerationSoftware,KiCad,Pcbnew,(6.0.6-0)*%
%TF.CreationDate,2022-09-20T04:26:42+09:00*%
%TF.ProjectId,EPM3032_DEV,45504d33-3033-4325-9f44-45562e6b6963,rev?*%
%TF.SameCoordinates,Original*%
%TF.FileFunction,Soldermask,Bot*%
%TF.FilePolarity,Negative*%
%FSLAX46Y46*%
G04 Gerber Fmt 4.6, Leading zero omitted, Abs format (unit mm)*
G04 Created by KiCad (PCBNEW (6.0.6-0)) date 2022-09-20 04:26:42*
%MOMM*%
%LPD*%
G01*
G04 APERTURE LIST*
%ADD10R,1.700000X1.700000*%
%ADD11O,1.700000X1.700000*%
G04 APERTURE END LIST*
D10*
%TO.C,J1*%
X124455000Y-78735000D03*
D11*
X124455000Y-81275000D03*
X121915000Y-78735000D03*
X121915000Y-81275000D03*
X119375000Y-78735000D03*
X119375000Y-81275000D03*
X116835000Y-78735000D03*
X116835000Y-81275000D03*
X114295000Y-78735000D03*
X114295000Y-81275000D03*
%TD*%
D10*
%TO.C,J2*%
X107950000Y-73665000D03*
D11*
X107950000Y-76205000D03*
X107950000Y-78745000D03*
X107950000Y-81285000D03*
X107950000Y-83825000D03*
X107950000Y-86365000D03*
X107950000Y-88905000D03*
X107950000Y-91445000D03*
X107950000Y-93985000D03*
X107950000Y-96525000D03*
X107950000Y-99065000D03*
X107950000Y-101605000D03*
X107950000Y-104145000D03*
X107950000Y-106685000D03*
X107950000Y-109225000D03*
%TD*%
D10*
%TO.C,J3*%
X130810000Y-73665000D03*
D11*
X130810000Y-76205000D03*
X130810000Y-78745000D03*
X130810000Y-81285000D03*
X130810000Y-83825000D03*
X130810000Y-86365000D03*
X130810000Y-88905000D03*
X130810000Y-91445000D03*
X130810000Y-93985000D03*
X130810000Y-96525000D03*
X130810000Y-99065000D03*
X130810000Y-101605000D03*
X130810000Y-104145000D03*
X130810000Y-106685000D03*
X130810000Y-109225000D03*
%TD*%
M02*
