M48
; DRILL file {KiCad (6.0.6-0)} date Tuesday, 20 September 2022 at 04:26:44
; FORMAT={-:-/ absolute / inch / decimal}
; #@! TF.CreationDate,2022-09-20T04:26:44+09:00
; #@! TF.GenerationSoftware,Kicad,Pcbnew,(6.0.6-0)
; #@! TF.FileFunction,MixedPlating,1,2
FMAT,2
INCH
; #@! TA.AperFunction,Plated,PTH,ViaDrill
T1C0.0157
; #@! TA.AperFunction,Plated,PTH,ComponentDrill
T2C0.0394
%
G90
G05
T1
X4.4805Y-3.925
X4.4877Y-3.7797
X4.5682Y-3.6399
X4.6581Y-3.5503
X4.6646Y-3.5897
X4.9115Y-3.7764
X4.9209Y-3.5384
T2
X4.25Y-2.9002
X4.25Y-3.0002
X4.25Y-3.1002
X4.25Y-3.2002
X4.25Y-3.3002
X4.25Y-3.4002
X4.25Y-3.5002
X4.25Y-3.6002
X4.25Y-3.7002
X4.25Y-3.8002
X4.25Y-3.9002
X4.25Y-4.0002
X4.25Y-4.1002
X4.25Y-4.2002
X4.25Y-4.3002
X4.4998Y-3.0998
X4.4998Y-3.1998
X4.5998Y-3.0998
X4.5998Y-3.1998
X4.6998Y-3.0998
X4.6998Y-3.1998
X4.7998Y-3.0998
X4.7998Y-3.1998
X4.8998Y-3.0998
X4.8998Y-3.1998
X5.15Y-2.9002
X5.15Y-3.0002
X5.15Y-3.1002
X5.15Y-3.2002
X5.15Y-3.3002
X5.15Y-3.4002
X5.15Y-3.5002
X5.15Y-3.6002
X5.15Y-3.7002
X5.15Y-3.8002
X5.15Y-3.9002
X5.15Y-4.0002
X5.15Y-4.1002
X5.15Y-4.2002
X5.15Y-4.3002
T0
M30
