%TF.GenerationSoftware,KiCad,Pcbnew,(6.0.6-0)*%
%TF.CreationDate,2022-09-20T04:26:41+09:00*%
%TF.ProjectId,EPM3032_DEV,45504d33-3033-4325-9f44-45562e6b6963,rev?*%
%TF.SameCoordinates,Original*%
%TF.FileFunction,Copper,L2,Bot*%
%TF.FilePolarity,Positive*%
%FSLAX46Y46*%
G04 Gerber Fmt 4.6, Leading zero omitted, Abs format (unit mm)*
G04 Created by KiCad (PCBNEW (6.0.6-0)) date 2022-09-20 04:26:41*
%MOMM*%
%LPD*%
G01*
G04 APERTURE LIST*
%TA.AperFunction,ComponentPad*%
%ADD10R,1.700000X1.700000*%
%TD*%
%TA.AperFunction,ComponentPad*%
%ADD11O,1.700000X1.700000*%
%TD*%
%TA.AperFunction,ViaPad*%
%ADD12C,0.800000*%
%TD*%
%TA.AperFunction,Conductor*%
%ADD13C,0.250000*%
%TD*%
G04 APERTURE END LIST*
D10*
%TO.P,J1,1,Pin_1*%
%TO.N,/TCK*%
X124455000Y-78735000D03*
D11*
%TO.P,J1,2,Pin_2*%
%TO.N,GND*%
X124455000Y-81275000D03*
%TO.P,J1,3,Pin_3*%
%TO.N,/TDO*%
X121915000Y-78735000D03*
%TO.P,J1,4,Pin_4*%
%TO.N,VCC*%
X121915000Y-81275000D03*
%TO.P,J1,5,Pin_5*%
%TO.N,/TMS*%
X119375000Y-78735000D03*
%TO.P,J1,6,Pin_6*%
%TO.N,unconnected-(J1-Pad6)*%
X119375000Y-81275000D03*
%TO.P,J1,7,Pin_7*%
%TO.N,unconnected-(J1-Pad7)*%
X116835000Y-78735000D03*
%TO.P,J1,8,Pin_8*%
%TO.N,unconnected-(J1-Pad8)*%
X116835000Y-81275000D03*
%TO.P,J1,9,Pin_9*%
%TO.N,/TDI*%
X114295000Y-78735000D03*
%TO.P,J1,10,Pin_10*%
%TO.N,GND*%
X114295000Y-81275000D03*
%TD*%
D10*
%TO.P,J2,1,Pin_1*%
%TO.N,/P1*%
X107950000Y-73665000D03*
D11*
%TO.P,J2,2,Pin_2*%
%TO.N,/P2*%
X107950000Y-76205000D03*
%TO.P,J2,3,Pin_3*%
%TO.N,/P4*%
X107950000Y-78745000D03*
%TO.P,J2,4,Pin_4*%
%TO.N,/P5*%
X107950000Y-81285000D03*
%TO.P,J2,5,Pin_5*%
%TO.N,/P6*%
X107950000Y-83825000D03*
%TO.P,J2,6,Pin_6*%
%TO.N,/P8*%
X107950000Y-86365000D03*
%TO.P,J2,7,Pin_7*%
%TO.N,/P9*%
X107950000Y-88905000D03*
%TO.P,J2,8,Pin_8*%
%TO.N,/P11*%
X107950000Y-91445000D03*
%TO.P,J2,9,Pin_9*%
%TO.N,/P12*%
X107950000Y-93985000D03*
%TO.P,J2,10,Pin_10*%
%TO.N,/P14*%
X107950000Y-96525000D03*
%TO.P,J2,11,Pin_11*%
%TO.N,/P16*%
X107950000Y-99065000D03*
%TO.P,J2,12,Pin_12*%
%TO.N,/P18*%
X107950000Y-101605000D03*
%TO.P,J2,13,Pin_13*%
%TO.N,/P19*%
X107950000Y-104145000D03*
%TO.P,J2,14,Pin_14*%
%TO.N,/P20*%
X107950000Y-106685000D03*
%TO.P,J2,15,Pin_15*%
%TO.N,/P21*%
X107950000Y-109225000D03*
%TD*%
D10*
%TO.P,J3,1,Pin_1*%
%TO.N,/P44*%
X130810000Y-73665000D03*
D11*
%TO.P,J3,2,Pin_2*%
%TO.N,/P43*%
X130810000Y-76205000D03*
%TO.P,J3,3,Pin_3*%
%TO.N,/P41*%
X130810000Y-78745000D03*
%TO.P,J3,4,Pin_4*%
%TO.N,/P40*%
X130810000Y-81285000D03*
%TO.P,J3,5,Pin_5*%
%TO.N,/P39*%
X130810000Y-83825000D03*
%TO.P,J3,6,Pin_6*%
%TO.N,/P37*%
X130810000Y-86365000D03*
%TO.P,J3,7,Pin_7*%
%TO.N,/P34*%
X130810000Y-88905000D03*
%TO.P,J3,8,Pin_8*%
%TO.N,/P33*%
X130810000Y-91445000D03*
%TO.P,J3,9,Pin_9*%
%TO.N,/P31*%
X130810000Y-93985000D03*
%TO.P,J3,10,Pin_10*%
%TO.N,/P29*%
X130810000Y-96525000D03*
%TO.P,J3,11,Pin_11*%
%TO.N,/P28*%
X130810000Y-99065000D03*
%TO.P,J3,12,Pin_12*%
%TO.N,/P27*%
X130810000Y-101605000D03*
%TO.P,J3,13,Pin_13*%
%TO.N,/P26*%
X130810000Y-104145000D03*
%TO.P,J3,14,Pin_14*%
%TO.N,/P25*%
X130810000Y-106685000D03*
%TO.P,J3,15,Pin_15*%
%TO.N,/P24*%
X130810000Y-109225000D03*
%TD*%
D12*
%TO.N,/TCK*%
X124752900Y-95920500D03*
%TO.N,/TDO*%
X124989900Y-89874700D03*
%TO.N,/TMS*%
X113986500Y-96003300D03*
%TO.N,/TDI*%
X116032400Y-92452200D03*
%TO.N,/P1*%
X118481600Y-91179100D03*
%TO.N,/P2*%
X118315900Y-90176500D03*
%TO.N,/P16*%
X113804100Y-99694500D03*
%TD*%
D13*
%TO.N,/TCK*%
X124822300Y-79910300D02*
X125715300Y-80803300D01*
X125715300Y-80803300D02*
X125715300Y-94958100D01*
X124455000Y-79910300D02*
X124822300Y-79910300D01*
X125715300Y-94958100D02*
X124752900Y-95920500D01*
X124455000Y-78735000D02*
X124455000Y-79910300D01*
%TO.N,/TDO*%
X120739700Y-85624500D02*
X124989900Y-89874700D01*
X121547600Y-79910300D02*
X120739700Y-80718200D01*
X121915000Y-79910300D02*
X121547600Y-79910300D01*
X120739700Y-80718200D02*
X120739700Y-85624500D01*
X121915000Y-78735000D02*
X121915000Y-79910300D01*
%TO.N,/TMS*%
X118184400Y-86273000D02*
X118184400Y-80733600D01*
X115363400Y-96003300D02*
X119972700Y-91394000D01*
X119972700Y-91394000D02*
X119972700Y-88061300D01*
X119375000Y-78735000D02*
X119375000Y-79910300D01*
X119007700Y-79910300D02*
X119375000Y-79910300D01*
X113986500Y-96003300D02*
X115363400Y-96003300D01*
X119972700Y-88061300D02*
X118184400Y-86273000D01*
X118184400Y-80733600D02*
X119007700Y-79910300D01*
%TO.N,/TDI*%
X119493900Y-88242000D02*
X119493900Y-91216100D01*
X114662400Y-79910300D02*
X115470300Y-80718200D01*
X119493900Y-91216100D02*
X118257800Y-92452200D01*
X115470300Y-80718200D02*
X115470300Y-84218400D01*
X115470300Y-84218400D02*
X119493900Y-88242000D01*
X114295000Y-78735000D02*
X114295000Y-79910300D01*
X118257800Y-92452200D02*
X116032400Y-92452200D01*
X114295000Y-79910300D02*
X114662400Y-79910300D01*
%TO.N,/P1*%
X108317300Y-74840300D02*
X111733800Y-78256800D01*
X107950000Y-73665000D02*
X107950000Y-74840300D01*
X111733800Y-78256800D02*
X111733800Y-82368900D01*
X119041300Y-89676400D02*
X119041300Y-90619400D01*
X119041300Y-90619400D02*
X118481600Y-91179100D01*
X111733800Y-82368900D02*
X119041300Y-89676400D01*
X107950000Y-74840300D02*
X108317300Y-74840300D01*
%TO.N,/P2*%
X111283500Y-83144100D02*
X118315900Y-90176500D01*
X108317300Y-77380300D02*
X111283400Y-80346400D01*
X107950000Y-77380300D02*
X108317300Y-77380300D01*
X111283400Y-80346400D02*
X111283400Y-83144100D01*
X111283400Y-83144100D02*
X111283500Y-83144100D01*
X107950000Y-76205000D02*
X107950000Y-77380300D01*
%TO.N,/P16*%
X107950000Y-99065000D02*
X109125300Y-99065000D01*
X109125300Y-99065000D02*
X109754800Y-99694500D01*
X109754800Y-99694500D02*
X113804100Y-99694500D01*
%TD*%
%TA.AperFunction,Conductor*%
%TO.N,VCC*%
G36*
X123036268Y-79639592D02*
G01*
X123093030Y-79682238D01*
X123110012Y-79713341D01*
X123132201Y-79772529D01*
X123154385Y-79831705D01*
X123241739Y-79948261D01*
X123358295Y-80035615D01*
X123366704Y-80038767D01*
X123366705Y-80038768D01*
X123475451Y-80079535D01*
X123532216Y-80122176D01*
X123556916Y-80188738D01*
X123541709Y-80258087D01*
X123522316Y-80284568D01*
X123409809Y-80402300D01*
X123395629Y-80417138D01*
X123392715Y-80421410D01*
X123392714Y-80421411D01*
X123346427Y-80489266D01*
X123269743Y-80601680D01*
X123242210Y-80660995D01*
X123196481Y-80759511D01*
X123175688Y-80804305D01*
X123115989Y-81019570D01*
X123092251Y-81241695D01*
X123092548Y-81246848D01*
X123092548Y-81246851D01*
X123094748Y-81285000D01*
X123105110Y-81464715D01*
X123106247Y-81469761D01*
X123106248Y-81469767D01*
X123108502Y-81479767D01*
X123154222Y-81682639D01*
X123238266Y-81889616D01*
X123354987Y-82080088D01*
X123501250Y-82248938D01*
X123673126Y-82391632D01*
X123866000Y-82504338D01*
X124074692Y-82584030D01*
X124079760Y-82585061D01*
X124079763Y-82585062D01*
X124155123Y-82600394D01*
X124293597Y-82628567D01*
X124298772Y-82628757D01*
X124298774Y-82628757D01*
X124511673Y-82636564D01*
X124511677Y-82636564D01*
X124516837Y-82636753D01*
X124521957Y-82636097D01*
X124521959Y-82636097D01*
X124733288Y-82609025D01*
X124733289Y-82609025D01*
X124738416Y-82608368D01*
X124789987Y-82592896D01*
X124827511Y-82581638D01*
X124919593Y-82554012D01*
X124990588Y-82553595D01*
X125050538Y-82591628D01*
X125080410Y-82656034D01*
X125081800Y-82674698D01*
X125081800Y-88766505D01*
X125061798Y-88834626D01*
X125008142Y-88881119D01*
X124937868Y-88891223D01*
X124873288Y-88861729D01*
X124866705Y-88855600D01*
X121410105Y-85399000D01*
X121376079Y-85336688D01*
X121373200Y-85309905D01*
X121373200Y-81032794D01*
X121393202Y-80964673D01*
X121410105Y-80943699D01*
X121771002Y-80582802D01*
X121833314Y-80548776D01*
X121867579Y-80546177D01*
X121874906Y-80547575D01*
X121882822Y-80547077D01*
X121882823Y-80547077D01*
X121930951Y-80544049D01*
X121938862Y-80543800D01*
X121954856Y-80543800D01*
X121970730Y-80541794D01*
X121978590Y-80541052D01*
X122006049Y-80539324D01*
X122026737Y-80538023D01*
X122026738Y-80538023D01*
X122034650Y-80537525D01*
X122042191Y-80535075D01*
X122042487Y-80534979D01*
X122065631Y-80529806D01*
X122065935Y-80529768D01*
X122065940Y-80529767D01*
X122073797Y-80528774D01*
X122081162Y-80525858D01*
X122081166Y-80525857D01*
X122126011Y-80508101D01*
X122133430Y-80505429D01*
X122186875Y-80488064D01*
X122193572Y-80483814D01*
X122193831Y-80483650D01*
X122214958Y-80472885D01*
X122215246Y-80472771D01*
X122215251Y-80472768D01*
X122222617Y-80469852D01*
X122229025Y-80465196D01*
X122229031Y-80465193D01*
X122268052Y-80436842D01*
X122274589Y-80432399D01*
X122322018Y-80402300D01*
X122327659Y-80396293D01*
X122345446Y-80380612D01*
X122345691Y-80380434D01*
X122345693Y-80380432D01*
X122352107Y-80375772D01*
X122360032Y-80366193D01*
X122387903Y-80332504D01*
X122393134Y-80326570D01*
X122426158Y-80291402D01*
X122426160Y-80291399D01*
X122431586Y-80285621D01*
X122435558Y-80278397D01*
X122448881Y-80258794D01*
X122449080Y-80258554D01*
X122449084Y-80258547D01*
X122454133Y-80252444D01*
X122478047Y-80201624D01*
X122481629Y-80194592D01*
X122508695Y-80145360D01*
X122510665Y-80137685D01*
X122510668Y-80137679D01*
X122510744Y-80137381D01*
X122518776Y-80115072D01*
X122518906Y-80114797D01*
X122518909Y-80114789D01*
X122522283Y-80107618D01*
X122532806Y-80052451D01*
X122534532Y-80044729D01*
X122536873Y-80035615D01*
X122548500Y-79990330D01*
X122550761Y-79990911D01*
X122574448Y-79936601D01*
X122606554Y-79909242D01*
X122608352Y-79908170D01*
X122612994Y-79905896D01*
X122794860Y-79776173D01*
X122903091Y-79668319D01*
X122965462Y-79634404D01*
X123036268Y-79639592D01*
G37*
%TD.AperFunction*%
%TD*%
M02*
