%TF.GenerationSoftware,KiCad,Pcbnew,(6.0.6-0)*%
%TF.CreationDate,2022-10-09T21:23:26+09:00*%
%TF.ProjectId,EPM3032_DEV,45504d33-3033-4325-9f44-45562e6b6963,rev?*%
%TF.SameCoordinates,Original*%
%TF.FileFunction,Legend,Top*%
%TF.FilePolarity,Positive*%
%FSLAX46Y46*%
G04 Gerber Fmt 4.6, Leading zero omitted, Abs format (unit mm)*
G04 Created by KiCad (PCBNEW (6.0.6-0)) date 2022-10-09 21:23:26*
%MOMM*%
%LPD*%
G01*
G04 APERTURE LIST*
%ADD10C,0.100000*%
%ADD11C,0.150000*%
%ADD12C,0.300000*%
%ADD13C,0.125000*%
%ADD14C,0.120000*%
G04 APERTURE END LIST*
D10*
X125982142Y-110194285D02*
X125982142Y-109694285D01*
X125982142Y-109837142D02*
X126017857Y-109765714D01*
X126053571Y-109730000D01*
X126125000Y-109694285D01*
X126196428Y-109694285D01*
X126732142Y-110158571D02*
X126660714Y-110194285D01*
X126517857Y-110194285D01*
X126446428Y-110158571D01*
X126410714Y-110087142D01*
X126410714Y-109801428D01*
X126446428Y-109730000D01*
X126517857Y-109694285D01*
X126660714Y-109694285D01*
X126732142Y-109730000D01*
X126767857Y-109801428D01*
X126767857Y-109872857D01*
X126410714Y-109944285D01*
X127017857Y-109694285D02*
X127196428Y-110194285D01*
X127375000Y-109694285D01*
X127625000Y-109515714D02*
X127660714Y-109480000D01*
X127732142Y-109444285D01*
X127910714Y-109444285D01*
X127982142Y-109480000D01*
X128017857Y-109515714D01*
X128053571Y-109587142D01*
X128053571Y-109658571D01*
X128017857Y-109765714D01*
X127589285Y-110194285D01*
X128053571Y-110194285D01*
D11*
X114300000Y-77410000D02*
X119380000Y-77410000D01*
X119380000Y-77410000D02*
X119380000Y-75570000D01*
X119380000Y-75570000D02*
X114300000Y-75570000D01*
X114300000Y-75570000D02*
X114300000Y-77410000D01*
X126428571Y-83445000D02*
X126357142Y-83409285D01*
X126250000Y-83409285D01*
X126142857Y-83445000D01*
X126071428Y-83516428D01*
X126035714Y-83587857D01*
X126000000Y-83730714D01*
X126000000Y-83837857D01*
X126035714Y-83980714D01*
X126071428Y-84052142D01*
X126142857Y-84123571D01*
X126250000Y-84159285D01*
X126321428Y-84159285D01*
X126428571Y-84123571D01*
X126464285Y-84087857D01*
X126464285Y-83837857D01*
X126321428Y-83837857D01*
X126785714Y-84159285D02*
X126785714Y-83409285D01*
X127214285Y-84159285D01*
X127214285Y-83409285D01*
X127571428Y-84159285D02*
X127571428Y-83409285D01*
X127750000Y-83409285D01*
X127857142Y-83445000D01*
X127928571Y-83516428D01*
X127964285Y-83587857D01*
X128000000Y-83730714D01*
X128000000Y-83837857D01*
X127964285Y-83980714D01*
X127928571Y-84052142D01*
X127857142Y-84123571D01*
X127750000Y-84159285D01*
X127571428Y-84159285D01*
X125857142Y-75789285D02*
X126107142Y-76539285D01*
X126357142Y-75789285D01*
X126535714Y-75789285D02*
X127000000Y-75789285D01*
X126750000Y-76075000D01*
X126857142Y-76075000D01*
X126928571Y-76110714D01*
X126964285Y-76146428D01*
X127000000Y-76217857D01*
X127000000Y-76396428D01*
X126964285Y-76467857D01*
X126928571Y-76503571D01*
X126857142Y-76539285D01*
X126642857Y-76539285D01*
X126571428Y-76503571D01*
X126535714Y-76467857D01*
X127321428Y-76467857D02*
X127357142Y-76503571D01*
X127321428Y-76539285D01*
X127285714Y-76503571D01*
X127321428Y-76467857D01*
X127321428Y-76539285D01*
X127607142Y-75789285D02*
X128071428Y-75789285D01*
X127821428Y-76075000D01*
X127928571Y-76075000D01*
X128000000Y-76110714D01*
X128035714Y-76146428D01*
X128071428Y-76217857D01*
X128071428Y-76396428D01*
X128035714Y-76467857D01*
X128000000Y-76503571D01*
X127928571Y-76539285D01*
X127714285Y-76539285D01*
X127642857Y-76503571D01*
X127607142Y-76467857D01*
D12*
X112141904Y-107807142D02*
X112808571Y-107807142D01*
X113094285Y-108854761D02*
X112141904Y-108854761D01*
X112141904Y-106854761D01*
X113094285Y-106854761D01*
X113951428Y-108854761D02*
X113951428Y-106854761D01*
X114713333Y-106854761D01*
X114903809Y-106950000D01*
X114999047Y-107045238D01*
X115094285Y-107235714D01*
X115094285Y-107521428D01*
X114999047Y-107711904D01*
X114903809Y-107807142D01*
X114713333Y-107902380D01*
X113951428Y-107902380D01*
X115951428Y-108854761D02*
X115951428Y-106854761D01*
X116618095Y-108283333D01*
X117284761Y-106854761D01*
X117284761Y-108854761D01*
X118046666Y-106854761D02*
X119284761Y-106854761D01*
X118618095Y-107616666D01*
X118903809Y-107616666D01*
X119094285Y-107711904D01*
X119189523Y-107807142D01*
X119284761Y-107997619D01*
X119284761Y-108473809D01*
X119189523Y-108664285D01*
X119094285Y-108759523D01*
X118903809Y-108854761D01*
X118332380Y-108854761D01*
X118141904Y-108759523D01*
X118046666Y-108664285D01*
X120522857Y-106854761D02*
X120713333Y-106854761D01*
X120903809Y-106950000D01*
X120999047Y-107045238D01*
X121094285Y-107235714D01*
X121189523Y-107616666D01*
X121189523Y-108092857D01*
X121094285Y-108473809D01*
X120999047Y-108664285D01*
X120903809Y-108759523D01*
X120713333Y-108854761D01*
X120522857Y-108854761D01*
X120332380Y-108759523D01*
X120237142Y-108664285D01*
X120141904Y-108473809D01*
X120046666Y-108092857D01*
X120046666Y-107616666D01*
X120141904Y-107235714D01*
X120237142Y-107045238D01*
X120332380Y-106950000D01*
X120522857Y-106854761D01*
X121856190Y-106854761D02*
X123094285Y-106854761D01*
X122427619Y-107616666D01*
X122713333Y-107616666D01*
X122903809Y-107711904D01*
X122999047Y-107807142D01*
X123094285Y-107997619D01*
X123094285Y-108473809D01*
X122999047Y-108664285D01*
X122903809Y-108759523D01*
X122713333Y-108854761D01*
X122141904Y-108854761D01*
X121951428Y-108759523D01*
X121856190Y-108664285D01*
X123856190Y-107045238D02*
X123951428Y-106950000D01*
X124141904Y-106854761D01*
X124618095Y-106854761D01*
X124808571Y-106950000D01*
X124903809Y-107045238D01*
X124999047Y-107235714D01*
X124999047Y-107426190D01*
X124903809Y-107711904D01*
X123760952Y-108854761D01*
X124999047Y-108854761D01*
X125760952Y-108283333D02*
X126713333Y-108283333D01*
X125570476Y-108854761D02*
X126237142Y-106854761D01*
X126903809Y-108854761D01*
D11*
X115673333Y-83277380D02*
X115673333Y-83991666D01*
X115625714Y-84134523D01*
X115530476Y-84229761D01*
X115387619Y-84277380D01*
X115292380Y-84277380D01*
X116006666Y-83277380D02*
X116578095Y-83277380D01*
X116292380Y-84277380D02*
X116292380Y-83277380D01*
X116863809Y-83991666D02*
X117340000Y-83991666D01*
X116768571Y-84277380D02*
X117101904Y-83277380D01*
X117435238Y-84277380D01*
X118292380Y-83325000D02*
X118197142Y-83277380D01*
X118054285Y-83277380D01*
X117911428Y-83325000D01*
X117816190Y-83420238D01*
X117768571Y-83515476D01*
X117720952Y-83705952D01*
X117720952Y-83848809D01*
X117768571Y-84039285D01*
X117816190Y-84134523D01*
X117911428Y-84229761D01*
X118054285Y-84277380D01*
X118149523Y-84277380D01*
X118292380Y-84229761D01*
X118340000Y-84182142D01*
X118340000Y-83848809D01*
X118149523Y-83848809D01*
D13*
X132572142Y-73464114D02*
X132572142Y-73990780D01*
X132453095Y-73163161D02*
X132334047Y-73727447D01*
X132643571Y-73727447D01*
X133048333Y-73464114D02*
X133048333Y-73990780D01*
X132929285Y-73163161D02*
X132810238Y-73727447D01*
X133119761Y-73727447D01*
X132572142Y-76007914D02*
X132572142Y-76534580D01*
X132453095Y-75706961D02*
X132334047Y-76271247D01*
X132643571Y-76271247D01*
X132786428Y-75744580D02*
X133095952Y-75744580D01*
X132929285Y-76045533D01*
X133000714Y-76045533D01*
X133048333Y-76083152D01*
X133072142Y-76120771D01*
X133095952Y-76196009D01*
X133095952Y-76384104D01*
X133072142Y-76459342D01*
X133048333Y-76496961D01*
X133000714Y-76534580D01*
X132857857Y-76534580D01*
X132810238Y-76496961D01*
X132786428Y-76459342D01*
X132572142Y-78551714D02*
X132572142Y-79078380D01*
X132453095Y-78250761D02*
X132334047Y-78815047D01*
X132643571Y-78815047D01*
X132810238Y-78363619D02*
X132834047Y-78326000D01*
X132881666Y-78288380D01*
X133000714Y-78288380D01*
X133048333Y-78326000D01*
X133072142Y-78363619D01*
X133095952Y-78438857D01*
X133095952Y-78514095D01*
X133072142Y-78626952D01*
X132786428Y-79078380D01*
X133095952Y-79078380D01*
X132572142Y-81095514D02*
X132572142Y-81622180D01*
X132453095Y-80794561D02*
X132334047Y-81358847D01*
X132643571Y-81358847D01*
X132929285Y-80832180D02*
X132976904Y-80832180D01*
X133024523Y-80869800D01*
X133048333Y-80907419D01*
X133072142Y-80982657D01*
X133095952Y-81133133D01*
X133095952Y-81321228D01*
X133072142Y-81471704D01*
X133048333Y-81546942D01*
X133024523Y-81584561D01*
X132976904Y-81622180D01*
X132929285Y-81622180D01*
X132881666Y-81584561D01*
X132857857Y-81546942D01*
X132834047Y-81471704D01*
X132810238Y-81321228D01*
X132810238Y-81133133D01*
X132834047Y-80982657D01*
X132857857Y-80907419D01*
X132881666Y-80869800D01*
X132929285Y-80832180D01*
X132310238Y-83375980D02*
X132619761Y-83375980D01*
X132453095Y-83676933D01*
X132524523Y-83676933D01*
X132572142Y-83714552D01*
X132595952Y-83752171D01*
X132619761Y-83827409D01*
X132619761Y-84015504D01*
X132595952Y-84090742D01*
X132572142Y-84128361D01*
X132524523Y-84165980D01*
X132381666Y-84165980D01*
X132334047Y-84128361D01*
X132310238Y-84090742D01*
X132857857Y-84165980D02*
X132953095Y-84165980D01*
X133000714Y-84128361D01*
X133024523Y-84090742D01*
X133072142Y-83977885D01*
X133095952Y-83827409D01*
X133095952Y-83526457D01*
X133072142Y-83451219D01*
X133048333Y-83413600D01*
X133000714Y-83375980D01*
X132905476Y-83375980D01*
X132857857Y-83413600D01*
X132834047Y-83451219D01*
X132810238Y-83526457D01*
X132810238Y-83714552D01*
X132834047Y-83789790D01*
X132857857Y-83827409D01*
X132905476Y-83865028D01*
X133000714Y-83865028D01*
X133048333Y-83827409D01*
X133072142Y-83789790D01*
X133095952Y-83714552D01*
X132310238Y-85919780D02*
X132619761Y-85919780D01*
X132453095Y-86220733D01*
X132524523Y-86220733D01*
X132572142Y-86258352D01*
X132595952Y-86295971D01*
X132619761Y-86371209D01*
X132619761Y-86559304D01*
X132595952Y-86634542D01*
X132572142Y-86672161D01*
X132524523Y-86709780D01*
X132381666Y-86709780D01*
X132334047Y-86672161D01*
X132310238Y-86634542D01*
X132905476Y-86258352D02*
X132857857Y-86220733D01*
X132834047Y-86183114D01*
X132810238Y-86107876D01*
X132810238Y-86070257D01*
X132834047Y-85995019D01*
X132857857Y-85957400D01*
X132905476Y-85919780D01*
X133000714Y-85919780D01*
X133048333Y-85957400D01*
X133072142Y-85995019D01*
X133095952Y-86070257D01*
X133095952Y-86107876D01*
X133072142Y-86183114D01*
X133048333Y-86220733D01*
X133000714Y-86258352D01*
X132905476Y-86258352D01*
X132857857Y-86295971D01*
X132834047Y-86333590D01*
X132810238Y-86408828D01*
X132810238Y-86559304D01*
X132834047Y-86634542D01*
X132857857Y-86672161D01*
X132905476Y-86709780D01*
X133000714Y-86709780D01*
X133048333Y-86672161D01*
X133072142Y-86634542D01*
X133095952Y-86559304D01*
X133095952Y-86408828D01*
X133072142Y-86333590D01*
X133048333Y-86295971D01*
X133000714Y-86258352D01*
X132310238Y-88463580D02*
X132619761Y-88463580D01*
X132453095Y-88764533D01*
X132524523Y-88764533D01*
X132572142Y-88802152D01*
X132595952Y-88839771D01*
X132619761Y-88915009D01*
X132619761Y-89103104D01*
X132595952Y-89178342D01*
X132572142Y-89215961D01*
X132524523Y-89253580D01*
X132381666Y-89253580D01*
X132334047Y-89215961D01*
X132310238Y-89178342D01*
X132786428Y-88463580D02*
X133119761Y-88463580D01*
X132905476Y-89253580D01*
X132310238Y-91007380D02*
X132619761Y-91007380D01*
X132453095Y-91308333D01*
X132524523Y-91308333D01*
X132572142Y-91345952D01*
X132595952Y-91383571D01*
X132619761Y-91458809D01*
X132619761Y-91646904D01*
X132595952Y-91722142D01*
X132572142Y-91759761D01*
X132524523Y-91797380D01*
X132381666Y-91797380D01*
X132334047Y-91759761D01*
X132310238Y-91722142D01*
X133072142Y-91007380D02*
X132834047Y-91007380D01*
X132810238Y-91383571D01*
X132834047Y-91345952D01*
X132881666Y-91308333D01*
X133000714Y-91308333D01*
X133048333Y-91345952D01*
X133072142Y-91383571D01*
X133095952Y-91458809D01*
X133095952Y-91646904D01*
X133072142Y-91722142D01*
X133048333Y-91759761D01*
X133000714Y-91797380D01*
X132881666Y-91797380D01*
X132834047Y-91759761D01*
X132810238Y-91722142D01*
X132310238Y-93551180D02*
X132619761Y-93551180D01*
X132453095Y-93852133D01*
X132524523Y-93852133D01*
X132572142Y-93889752D01*
X132595952Y-93927371D01*
X132619761Y-94002609D01*
X132619761Y-94190704D01*
X132595952Y-94265942D01*
X132572142Y-94303561D01*
X132524523Y-94341180D01*
X132381666Y-94341180D01*
X132334047Y-94303561D01*
X132310238Y-94265942D01*
X133048333Y-93814514D02*
X133048333Y-94341180D01*
X132929285Y-93513561D02*
X132810238Y-94077847D01*
X133119761Y-94077847D01*
X132310238Y-96094980D02*
X132619761Y-96094980D01*
X132453095Y-96395933D01*
X132524523Y-96395933D01*
X132572142Y-96433552D01*
X132595952Y-96471171D01*
X132619761Y-96546409D01*
X132619761Y-96734504D01*
X132595952Y-96809742D01*
X132572142Y-96847361D01*
X132524523Y-96884980D01*
X132381666Y-96884980D01*
X132334047Y-96847361D01*
X132310238Y-96809742D01*
X132786428Y-96094980D02*
X133095952Y-96094980D01*
X132929285Y-96395933D01*
X133000714Y-96395933D01*
X133048333Y-96433552D01*
X133072142Y-96471171D01*
X133095952Y-96546409D01*
X133095952Y-96734504D01*
X133072142Y-96809742D01*
X133048333Y-96847361D01*
X133000714Y-96884980D01*
X132857857Y-96884980D01*
X132810238Y-96847361D01*
X132786428Y-96809742D01*
X132310238Y-98638780D02*
X132619761Y-98638780D01*
X132453095Y-98939733D01*
X132524523Y-98939733D01*
X132572142Y-98977352D01*
X132595952Y-99014971D01*
X132619761Y-99090209D01*
X132619761Y-99278304D01*
X132595952Y-99353542D01*
X132572142Y-99391161D01*
X132524523Y-99428780D01*
X132381666Y-99428780D01*
X132334047Y-99391161D01*
X132310238Y-99353542D01*
X133095952Y-99428780D02*
X132810238Y-99428780D01*
X132953095Y-99428780D02*
X132953095Y-98638780D01*
X132905476Y-98751638D01*
X132857857Y-98826876D01*
X132810238Y-98864495D01*
X132334047Y-101257819D02*
X132357857Y-101220200D01*
X132405476Y-101182580D01*
X132524523Y-101182580D01*
X132572142Y-101220200D01*
X132595952Y-101257819D01*
X132619761Y-101333057D01*
X132619761Y-101408295D01*
X132595952Y-101521152D01*
X132310238Y-101972580D01*
X132619761Y-101972580D01*
X132905476Y-101521152D02*
X132857857Y-101483533D01*
X132834047Y-101445914D01*
X132810238Y-101370676D01*
X132810238Y-101333057D01*
X132834047Y-101257819D01*
X132857857Y-101220200D01*
X132905476Y-101182580D01*
X133000714Y-101182580D01*
X133048333Y-101220200D01*
X133072142Y-101257819D01*
X133095952Y-101333057D01*
X133095952Y-101370676D01*
X133072142Y-101445914D01*
X133048333Y-101483533D01*
X133000714Y-101521152D01*
X132905476Y-101521152D01*
X132857857Y-101558771D01*
X132834047Y-101596390D01*
X132810238Y-101671628D01*
X132810238Y-101822104D01*
X132834047Y-101897342D01*
X132857857Y-101934961D01*
X132905476Y-101972580D01*
X133000714Y-101972580D01*
X133048333Y-101934961D01*
X133072142Y-101897342D01*
X133095952Y-101822104D01*
X133095952Y-101671628D01*
X133072142Y-101596390D01*
X133048333Y-101558771D01*
X133000714Y-101521152D01*
X132334047Y-103801619D02*
X132357857Y-103764000D01*
X132405476Y-103726380D01*
X132524523Y-103726380D01*
X132572142Y-103764000D01*
X132595952Y-103801619D01*
X132619761Y-103876857D01*
X132619761Y-103952095D01*
X132595952Y-104064952D01*
X132310238Y-104516380D01*
X132619761Y-104516380D01*
X132786428Y-103726380D02*
X133119761Y-103726380D01*
X132905476Y-104516380D01*
X132334047Y-106345419D02*
X132357857Y-106307800D01*
X132405476Y-106270180D01*
X132524523Y-106270180D01*
X132572142Y-106307800D01*
X132595952Y-106345419D01*
X132619761Y-106420657D01*
X132619761Y-106495895D01*
X132595952Y-106608752D01*
X132310238Y-107060180D01*
X132619761Y-107060180D01*
X133072142Y-106270180D02*
X132834047Y-106270180D01*
X132810238Y-106646371D01*
X132834047Y-106608752D01*
X132881666Y-106571133D01*
X133000714Y-106571133D01*
X133048333Y-106608752D01*
X133072142Y-106646371D01*
X133095952Y-106721609D01*
X133095952Y-106909704D01*
X133072142Y-106984942D01*
X133048333Y-107022561D01*
X133000714Y-107060180D01*
X132881666Y-107060180D01*
X132834047Y-107022561D01*
X132810238Y-106984942D01*
X132334047Y-108889219D02*
X132357857Y-108851600D01*
X132405476Y-108813980D01*
X132524523Y-108813980D01*
X132572142Y-108851600D01*
X132595952Y-108889219D01*
X132619761Y-108964457D01*
X132619761Y-109039695D01*
X132595952Y-109152552D01*
X132310238Y-109603980D01*
X132619761Y-109603980D01*
X132786428Y-108813980D02*
X133095952Y-108813980D01*
X132929285Y-109114933D01*
X133000714Y-109114933D01*
X133048333Y-109152552D01*
X133072142Y-109190171D01*
X133095952Y-109265409D01*
X133095952Y-109453504D01*
X133072142Y-109528742D01*
X133048333Y-109566361D01*
X133000714Y-109603980D01*
X132857857Y-109603980D01*
X132810238Y-109566361D01*
X132786428Y-109528742D01*
X105902142Y-73276019D02*
X105925952Y-73238400D01*
X105973571Y-73200780D01*
X106092619Y-73200780D01*
X106140238Y-73238400D01*
X106164047Y-73276019D01*
X106187857Y-73351257D01*
X106187857Y-73426495D01*
X106164047Y-73539352D01*
X105878333Y-73990780D01*
X106187857Y-73990780D01*
X105878333Y-75744580D02*
X106187857Y-75744580D01*
X106021190Y-76045533D01*
X106092619Y-76045533D01*
X106140238Y-76083152D01*
X106164047Y-76120771D01*
X106187857Y-76196009D01*
X106187857Y-76384104D01*
X106164047Y-76459342D01*
X106140238Y-76496961D01*
X106092619Y-76534580D01*
X105949761Y-76534580D01*
X105902142Y-76496961D01*
X105878333Y-76459342D01*
X106164047Y-78288380D02*
X105925952Y-78288380D01*
X105902142Y-78664571D01*
X105925952Y-78626952D01*
X105973571Y-78589333D01*
X106092619Y-78589333D01*
X106140238Y-78626952D01*
X106164047Y-78664571D01*
X106187857Y-78739809D01*
X106187857Y-78927904D01*
X106164047Y-79003142D01*
X106140238Y-79040761D01*
X106092619Y-79078380D01*
X105973571Y-79078380D01*
X105925952Y-79040761D01*
X105902142Y-79003142D01*
X106140238Y-80832180D02*
X106045000Y-80832180D01*
X105997380Y-80869800D01*
X105973571Y-80907419D01*
X105925952Y-81020276D01*
X105902142Y-81170752D01*
X105902142Y-81471704D01*
X105925952Y-81546942D01*
X105949761Y-81584561D01*
X105997380Y-81622180D01*
X106092619Y-81622180D01*
X106140238Y-81584561D01*
X106164047Y-81546942D01*
X106187857Y-81471704D01*
X106187857Y-81283609D01*
X106164047Y-81208371D01*
X106140238Y-81170752D01*
X106092619Y-81133133D01*
X105997380Y-81133133D01*
X105949761Y-81170752D01*
X105925952Y-81208371D01*
X105902142Y-81283609D01*
X105997380Y-83714552D02*
X105949761Y-83676933D01*
X105925952Y-83639314D01*
X105902142Y-83564076D01*
X105902142Y-83526457D01*
X105925952Y-83451219D01*
X105949761Y-83413600D01*
X105997380Y-83375980D01*
X106092619Y-83375980D01*
X106140238Y-83413600D01*
X106164047Y-83451219D01*
X106187857Y-83526457D01*
X106187857Y-83564076D01*
X106164047Y-83639314D01*
X106140238Y-83676933D01*
X106092619Y-83714552D01*
X105997380Y-83714552D01*
X105949761Y-83752171D01*
X105925952Y-83789790D01*
X105902142Y-83865028D01*
X105902142Y-84015504D01*
X105925952Y-84090742D01*
X105949761Y-84128361D01*
X105997380Y-84165980D01*
X106092619Y-84165980D01*
X106140238Y-84128361D01*
X106164047Y-84090742D01*
X106187857Y-84015504D01*
X106187857Y-83865028D01*
X106164047Y-83789790D01*
X106140238Y-83752171D01*
X106092619Y-83714552D01*
X105949761Y-86709780D02*
X105664047Y-86709780D01*
X105806904Y-86709780D02*
X105806904Y-85919780D01*
X105759285Y-86032638D01*
X105711666Y-86107876D01*
X105664047Y-86145495D01*
X106259285Y-85919780D02*
X106306904Y-85919780D01*
X106354523Y-85957400D01*
X106378333Y-85995019D01*
X106402142Y-86070257D01*
X106425952Y-86220733D01*
X106425952Y-86408828D01*
X106402142Y-86559304D01*
X106378333Y-86634542D01*
X106354523Y-86672161D01*
X106306904Y-86709780D01*
X106259285Y-86709780D01*
X106211666Y-86672161D01*
X106187857Y-86634542D01*
X106164047Y-86559304D01*
X106140238Y-86408828D01*
X106140238Y-86220733D01*
X106164047Y-86070257D01*
X106187857Y-85995019D01*
X106211666Y-85957400D01*
X106259285Y-85919780D01*
X105949761Y-89253580D02*
X105664047Y-89253580D01*
X105806904Y-89253580D02*
X105806904Y-88463580D01*
X105759285Y-88576438D01*
X105711666Y-88651676D01*
X105664047Y-88689295D01*
X106140238Y-88538819D02*
X106164047Y-88501200D01*
X106211666Y-88463580D01*
X106330714Y-88463580D01*
X106378333Y-88501200D01*
X106402142Y-88538819D01*
X106425952Y-88614057D01*
X106425952Y-88689295D01*
X106402142Y-88802152D01*
X106116428Y-89253580D01*
X106425952Y-89253580D01*
X105949761Y-91797380D02*
X105664047Y-91797380D01*
X105806904Y-91797380D02*
X105806904Y-91007380D01*
X105759285Y-91120238D01*
X105711666Y-91195476D01*
X105664047Y-91233095D01*
X106116428Y-91007380D02*
X106425952Y-91007380D01*
X106259285Y-91308333D01*
X106330714Y-91308333D01*
X106378333Y-91345952D01*
X106402142Y-91383571D01*
X106425952Y-91458809D01*
X106425952Y-91646904D01*
X106402142Y-91722142D01*
X106378333Y-91759761D01*
X106330714Y-91797380D01*
X106187857Y-91797380D01*
X106140238Y-91759761D01*
X106116428Y-91722142D01*
X105949761Y-94341180D02*
X105664047Y-94341180D01*
X105806904Y-94341180D02*
X105806904Y-93551180D01*
X105759285Y-93664038D01*
X105711666Y-93739276D01*
X105664047Y-93776895D01*
X106378333Y-93814514D02*
X106378333Y-94341180D01*
X106259285Y-93513561D02*
X106140238Y-94077847D01*
X106449761Y-94077847D01*
X105949761Y-96884980D02*
X105664047Y-96884980D01*
X105806904Y-96884980D02*
X105806904Y-96094980D01*
X105759285Y-96207838D01*
X105711666Y-96283076D01*
X105664047Y-96320695D01*
X106402142Y-96094980D02*
X106164047Y-96094980D01*
X106140238Y-96471171D01*
X106164047Y-96433552D01*
X106211666Y-96395933D01*
X106330714Y-96395933D01*
X106378333Y-96433552D01*
X106402142Y-96471171D01*
X106425952Y-96546409D01*
X106425952Y-96734504D01*
X106402142Y-96809742D01*
X106378333Y-96847361D01*
X106330714Y-96884980D01*
X106211666Y-96884980D01*
X106164047Y-96847361D01*
X106140238Y-96809742D01*
X105949761Y-99428780D02*
X105664047Y-99428780D01*
X105806904Y-99428780D02*
X105806904Y-98638780D01*
X105759285Y-98751638D01*
X105711666Y-98826876D01*
X105664047Y-98864495D01*
X106235476Y-98977352D02*
X106187857Y-98939733D01*
X106164047Y-98902114D01*
X106140238Y-98826876D01*
X106140238Y-98789257D01*
X106164047Y-98714019D01*
X106187857Y-98676400D01*
X106235476Y-98638780D01*
X106330714Y-98638780D01*
X106378333Y-98676400D01*
X106402142Y-98714019D01*
X106425952Y-98789257D01*
X106425952Y-98826876D01*
X106402142Y-98902114D01*
X106378333Y-98939733D01*
X106330714Y-98977352D01*
X106235476Y-98977352D01*
X106187857Y-99014971D01*
X106164047Y-99052590D01*
X106140238Y-99127828D01*
X106140238Y-99278304D01*
X106164047Y-99353542D01*
X106187857Y-99391161D01*
X106235476Y-99428780D01*
X106330714Y-99428780D01*
X106378333Y-99391161D01*
X106402142Y-99353542D01*
X106425952Y-99278304D01*
X106425952Y-99127828D01*
X106402142Y-99052590D01*
X106378333Y-99014971D01*
X106330714Y-98977352D01*
X105949761Y-101972580D02*
X105664047Y-101972580D01*
X105806904Y-101972580D02*
X105806904Y-101182580D01*
X105759285Y-101295438D01*
X105711666Y-101370676D01*
X105664047Y-101408295D01*
X106187857Y-101972580D02*
X106283095Y-101972580D01*
X106330714Y-101934961D01*
X106354523Y-101897342D01*
X106402142Y-101784485D01*
X106425952Y-101634009D01*
X106425952Y-101333057D01*
X106402142Y-101257819D01*
X106378333Y-101220200D01*
X106330714Y-101182580D01*
X106235476Y-101182580D01*
X106187857Y-101220200D01*
X106164047Y-101257819D01*
X106140238Y-101333057D01*
X106140238Y-101521152D01*
X106164047Y-101596390D01*
X106187857Y-101634009D01*
X106235476Y-101671628D01*
X106330714Y-101671628D01*
X106378333Y-101634009D01*
X106402142Y-101596390D01*
X106425952Y-101521152D01*
X105664047Y-103801619D02*
X105687857Y-103764000D01*
X105735476Y-103726380D01*
X105854523Y-103726380D01*
X105902142Y-103764000D01*
X105925952Y-103801619D01*
X105949761Y-103876857D01*
X105949761Y-103952095D01*
X105925952Y-104064952D01*
X105640238Y-104516380D01*
X105949761Y-104516380D01*
X106259285Y-103726380D02*
X106306904Y-103726380D01*
X106354523Y-103764000D01*
X106378333Y-103801619D01*
X106402142Y-103876857D01*
X106425952Y-104027333D01*
X106425952Y-104215428D01*
X106402142Y-104365904D01*
X106378333Y-104441142D01*
X106354523Y-104478761D01*
X106306904Y-104516380D01*
X106259285Y-104516380D01*
X106211666Y-104478761D01*
X106187857Y-104441142D01*
X106164047Y-104365904D01*
X106140238Y-104215428D01*
X106140238Y-104027333D01*
X106164047Y-103876857D01*
X106187857Y-103801619D01*
X106211666Y-103764000D01*
X106259285Y-103726380D01*
X105664047Y-106345419D02*
X105687857Y-106307800D01*
X105735476Y-106270180D01*
X105854523Y-106270180D01*
X105902142Y-106307800D01*
X105925952Y-106345419D01*
X105949761Y-106420657D01*
X105949761Y-106495895D01*
X105925952Y-106608752D01*
X105640238Y-107060180D01*
X105949761Y-107060180D01*
X106425952Y-107060180D02*
X106140238Y-107060180D01*
X106283095Y-107060180D02*
X106283095Y-106270180D01*
X106235476Y-106383038D01*
X106187857Y-106458276D01*
X106140238Y-106495895D01*
X105664047Y-108889219D02*
X105687857Y-108851600D01*
X105735476Y-108813980D01*
X105854523Y-108813980D01*
X105902142Y-108851600D01*
X105925952Y-108889219D01*
X105949761Y-108964457D01*
X105949761Y-109039695D01*
X105925952Y-109152552D01*
X105640238Y-109603980D01*
X105949761Y-109603980D01*
X106140238Y-108889219D02*
X106164047Y-108851600D01*
X106211666Y-108813980D01*
X106330714Y-108813980D01*
X106378333Y-108851600D01*
X106402142Y-108889219D01*
X106425952Y-108964457D01*
X106425952Y-109039695D01*
X106402142Y-109152552D01*
X106116428Y-109603980D01*
X106425952Y-109603980D01*
D11*
%TO.C,C3*%
X126198333Y-99417142D02*
X126150714Y-99464761D01*
X126007857Y-99512380D01*
X125912619Y-99512380D01*
X125769761Y-99464761D01*
X125674523Y-99369523D01*
X125626904Y-99274285D01*
X125579285Y-99083809D01*
X125579285Y-98940952D01*
X125626904Y-98750476D01*
X125674523Y-98655238D01*
X125769761Y-98560000D01*
X125912619Y-98512380D01*
X126007857Y-98512380D01*
X126150714Y-98560000D01*
X126198333Y-98607619D01*
X126531666Y-98512380D02*
X127150714Y-98512380D01*
X126817380Y-98893333D01*
X126960238Y-98893333D01*
X127055476Y-98940952D01*
X127103095Y-98988571D01*
X127150714Y-99083809D01*
X127150714Y-99321904D01*
X127103095Y-99417142D01*
X127055476Y-99464761D01*
X126960238Y-99512380D01*
X126674523Y-99512380D01*
X126579285Y-99464761D01*
X126531666Y-99417142D01*
%TO.C,C4*%
X124928333Y-87352142D02*
X124880714Y-87399761D01*
X124737857Y-87447380D01*
X124642619Y-87447380D01*
X124499761Y-87399761D01*
X124404523Y-87304523D01*
X124356904Y-87209285D01*
X124309285Y-87018809D01*
X124309285Y-86875952D01*
X124356904Y-86685476D01*
X124404523Y-86590238D01*
X124499761Y-86495000D01*
X124642619Y-86447380D01*
X124737857Y-86447380D01*
X124880714Y-86495000D01*
X124928333Y-86542619D01*
X125785476Y-86780714D02*
X125785476Y-87447380D01*
X125547380Y-86399761D02*
X125309285Y-87114047D01*
X125928333Y-87114047D01*
%TO.C,R2*%
X116678333Y-73482380D02*
X116345000Y-73006190D01*
X116106904Y-73482380D02*
X116106904Y-72482380D01*
X116487857Y-72482380D01*
X116583095Y-72530000D01*
X116630714Y-72577619D01*
X116678333Y-72672857D01*
X116678333Y-72815714D01*
X116630714Y-72910952D01*
X116583095Y-72958571D01*
X116487857Y-73006190D01*
X116106904Y-73006190D01*
X117059285Y-72577619D02*
X117106904Y-72530000D01*
X117202142Y-72482380D01*
X117440238Y-72482380D01*
X117535476Y-72530000D01*
X117583095Y-72577619D01*
X117630714Y-72672857D01*
X117630714Y-72768095D01*
X117583095Y-72910952D01*
X117011666Y-73482380D01*
X117630714Y-73482380D01*
%TO.C,C2*%
X112863333Y-100052142D02*
X112815714Y-100099761D01*
X112672857Y-100147380D01*
X112577619Y-100147380D01*
X112434761Y-100099761D01*
X112339523Y-100004523D01*
X112291904Y-99909285D01*
X112244285Y-99718809D01*
X112244285Y-99575952D01*
X112291904Y-99385476D01*
X112339523Y-99290238D01*
X112434761Y-99195000D01*
X112577619Y-99147380D01*
X112672857Y-99147380D01*
X112815714Y-99195000D01*
X112863333Y-99242619D01*
X113244285Y-99242619D02*
X113291904Y-99195000D01*
X113387142Y-99147380D01*
X113625238Y-99147380D01*
X113720476Y-99195000D01*
X113768095Y-99242619D01*
X113815714Y-99337857D01*
X113815714Y-99433095D01*
X113768095Y-99575952D01*
X113196666Y-100147380D01*
X113815714Y-100147380D01*
%TO.C,R4*%
X111598333Y-73482380D02*
X111265000Y-73006190D01*
X111026904Y-73482380D02*
X111026904Y-72482380D01*
X111407857Y-72482380D01*
X111503095Y-72530000D01*
X111550714Y-72577619D01*
X111598333Y-72672857D01*
X111598333Y-72815714D01*
X111550714Y-72910952D01*
X111503095Y-72958571D01*
X111407857Y-73006190D01*
X111026904Y-73006190D01*
X112455476Y-72815714D02*
X112455476Y-73482380D01*
X112217380Y-72434761D02*
X111979285Y-73149047D01*
X112598333Y-73149047D01*
%TO.C,R3*%
X121758333Y-73482380D02*
X121425000Y-73006190D01*
X121186904Y-73482380D02*
X121186904Y-72482380D01*
X121567857Y-72482380D01*
X121663095Y-72530000D01*
X121710714Y-72577619D01*
X121758333Y-72672857D01*
X121758333Y-72815714D01*
X121710714Y-72910952D01*
X121663095Y-72958571D01*
X121567857Y-73006190D01*
X121186904Y-73006190D01*
X122091666Y-72482380D02*
X122710714Y-72482380D01*
X122377380Y-72863333D01*
X122520238Y-72863333D01*
X122615476Y-72910952D01*
X122663095Y-72958571D01*
X122710714Y-73053809D01*
X122710714Y-73291904D01*
X122663095Y-73387142D01*
X122615476Y-73434761D01*
X122520238Y-73482380D01*
X122234523Y-73482380D01*
X122139285Y-73434761D01*
X122091666Y-73387142D01*
%TO.C,C1*%
X110958333Y-90527142D02*
X110910714Y-90574761D01*
X110767857Y-90622380D01*
X110672619Y-90622380D01*
X110529761Y-90574761D01*
X110434523Y-90479523D01*
X110386904Y-90384285D01*
X110339285Y-90193809D01*
X110339285Y-90050952D01*
X110386904Y-89860476D01*
X110434523Y-89765238D01*
X110529761Y-89670000D01*
X110672619Y-89622380D01*
X110767857Y-89622380D01*
X110910714Y-89670000D01*
X110958333Y-89717619D01*
X111910714Y-90622380D02*
X111339285Y-90622380D01*
X111625000Y-90622380D02*
X111625000Y-89622380D01*
X111529761Y-89765238D01*
X111434523Y-89860476D01*
X111339285Y-89908095D01*
%TO.C,R1*%
X119218333Y-73482380D02*
X118885000Y-73006190D01*
X118646904Y-73482380D02*
X118646904Y-72482380D01*
X119027857Y-72482380D01*
X119123095Y-72530000D01*
X119170714Y-72577619D01*
X119218333Y-72672857D01*
X119218333Y-72815714D01*
X119170714Y-72910952D01*
X119123095Y-72958571D01*
X119027857Y-73006190D01*
X118646904Y-73006190D01*
X120170714Y-73482380D02*
X119599285Y-73482380D01*
X119885000Y-73482380D02*
X119885000Y-72482380D01*
X119789761Y-72625238D01*
X119694523Y-72720476D01*
X119599285Y-72768095D01*
%TO.C,U1*%
X119228477Y-89244027D02*
X118656057Y-89816447D01*
X118622385Y-89917462D01*
X118622385Y-89984806D01*
X118656057Y-90085821D01*
X118790744Y-90220508D01*
X118891759Y-90254180D01*
X118959103Y-90254180D01*
X119060118Y-90220508D01*
X119632538Y-89648088D01*
X119632538Y-91062302D02*
X119228477Y-90658241D01*
X119430507Y-90860271D02*
X120137614Y-90153165D01*
X119969255Y-90186836D01*
X119834568Y-90186836D01*
X119733553Y-90153165D01*
D14*
%TO.C,J2*%
X125670000Y-78740000D02*
X125670000Y-77410000D01*
X125670000Y-82610000D02*
X128330000Y-82610000D01*
X125670000Y-80010000D02*
X125670000Y-82610000D01*
X125670000Y-80010000D02*
X128330000Y-80010000D01*
X125670000Y-77410000D02*
X127000000Y-77410000D01*
X128330000Y-80010000D02*
X128330000Y-82610000D01*
%TO.C,C3*%
X126218733Y-100840000D02*
X126511267Y-100840000D01*
X126218733Y-99820000D02*
X126511267Y-99820000D01*
%TO.C,J1*%
X121920000Y-77410000D02*
X123250000Y-77410000D01*
X123250000Y-80010000D02*
X123250000Y-82610000D01*
X120650000Y-77410000D02*
X120650000Y-80010000D01*
X120650000Y-80010000D02*
X123250000Y-80010000D01*
X110430000Y-77410000D02*
X110430000Y-82610000D01*
X123250000Y-82610000D02*
X110430000Y-82610000D01*
X123250000Y-77410000D02*
X123250000Y-78740000D01*
X120650000Y-77410000D02*
X110430000Y-77410000D01*
%TO.C,C4*%
X124948733Y-88775000D02*
X125241267Y-88775000D01*
X124948733Y-87755000D02*
X125241267Y-87755000D01*
%TO.C,R2*%
X116322500Y-75824724D02*
X116322500Y-75315276D01*
X117367500Y-75824724D02*
X117367500Y-75315276D01*
%TO.C,J3*%
X106620000Y-74935000D02*
X106620000Y-110555000D01*
X109280000Y-74935000D02*
X109280000Y-110555000D01*
X106620000Y-72335000D02*
X107950000Y-72335000D01*
X106620000Y-74935000D02*
X109280000Y-74935000D01*
X106620000Y-110555000D02*
X109280000Y-110555000D01*
X106620000Y-73665000D02*
X106620000Y-72335000D01*
%TO.C,C2*%
X113176267Y-101475000D02*
X112883733Y-101475000D01*
X113176267Y-100455000D02*
X112883733Y-100455000D01*
%TO.C,J4*%
X129480000Y-73665000D02*
X129480000Y-72335000D01*
X129480000Y-74935000D02*
X132140000Y-74935000D01*
X129480000Y-74935000D02*
X129480000Y-110555000D01*
X132140000Y-74935000D02*
X132140000Y-110555000D01*
X129480000Y-72335000D02*
X130810000Y-72335000D01*
X129480000Y-110555000D02*
X132140000Y-110555000D01*
%TO.C,R4*%
X112287500Y-75824724D02*
X112287500Y-75315276D01*
X111242500Y-75824724D02*
X111242500Y-75315276D01*
%TO.C,R3*%
X121402500Y-75315276D02*
X121402500Y-75824724D01*
X122447500Y-75315276D02*
X122447500Y-75824724D01*
%TO.C,C1*%
X111271267Y-90930000D02*
X110978733Y-90930000D01*
X111271267Y-91950000D02*
X110978733Y-91950000D01*
%TO.C,R1*%
X119907500Y-75824724D02*
X119907500Y-75315276D01*
X118862500Y-75824724D02*
X118862500Y-75315276D01*
D11*
%TO.C,U1*%
X126698555Y-95250000D02*
X126221258Y-94772703D01*
X112061445Y-95250000D02*
X112538742Y-95727297D01*
X119380000Y-87931445D02*
X119857297Y-88408742D01*
X119380000Y-102568555D02*
X118902703Y-102091258D01*
X118973414Y-88338031D02*
X118071852Y-87436470D01*
X112061445Y-95250000D02*
X112538742Y-94772703D01*
X126698555Y-95250000D02*
X126221258Y-95727297D01*
X119380000Y-102568555D02*
X119857297Y-102091258D01*
X119380000Y-87931445D02*
X118973414Y-88338031D01*
%TD*%
M02*
