%TF.GenerationSoftware,KiCad,Pcbnew,(6.0.6-0)*%
%TF.CreationDate,2022-10-09T21:23:26+09:00*%
%TF.ProjectId,EPM3032_DEV,45504d33-3033-4325-9f44-45562e6b6963,rev?*%
%TF.SameCoordinates,Original*%
%TF.FileFunction,Paste,Top*%
%TF.FilePolarity,Positive*%
%FSLAX46Y46*%
G04 Gerber Fmt 4.6, Leading zero omitted, Abs format (unit mm)*
G04 Created by KiCad (PCBNEW (6.0.6-0)) date 2022-10-09 21:23:26*
%MOMM*%
%LPD*%
G01*
G04 APERTURE LIST*
G04 Aperture macros list*
%AMRoundRect*
0 Rectangle with rounded corners*
0 $1 Rounding radius*
0 $2 $3 $4 $5 $6 $7 $8 $9 X,Y pos of 4 corners*
0 Add a 4 corners polygon primitive as box body*
4,1,4,$2,$3,$4,$5,$6,$7,$8,$9,$2,$3,0*
0 Add four circle primitives for the rounded corners*
1,1,$1+$1,$2,$3*
1,1,$1+$1,$4,$5*
1,1,$1+$1,$6,$7*
1,1,$1+$1,$8,$9*
0 Add four rect primitives between the rounded corners*
20,1,$1+$1,$2,$3,$4,$5,0*
20,1,$1+$1,$4,$5,$6,$7,0*
20,1,$1+$1,$6,$7,$8,$9,0*
20,1,$1+$1,$8,$9,$2,$3,0*%
%AMRotRect*
0 Rectangle, with rotation*
0 The origin of the aperture is its center*
0 $1 length*
0 $2 width*
0 $3 Rotation angle, in degrees counterclockwise*
0 Add horizontal line*
21,1,$1,$2,0,0,$3*%
G04 Aperture macros list end*
%ADD10RoundRect,0.237500X-0.300000X-0.237500X0.300000X-0.237500X0.300000X0.237500X-0.300000X0.237500X0*%
%ADD11RoundRect,0.237500X0.237500X-0.250000X0.237500X0.250000X-0.237500X0.250000X-0.237500X-0.250000X0*%
%ADD12RoundRect,0.237500X0.300000X0.237500X-0.300000X0.237500X-0.300000X-0.237500X0.300000X-0.237500X0*%
%ADD13RoundRect,0.237500X-0.237500X0.250000X-0.237500X-0.250000X0.237500X-0.250000X0.237500X0.250000X0*%
%ADD14RotRect,1.500000X0.550000X315.000000*%
%ADD15RotRect,1.500000X0.550000X45.000000*%
G04 APERTURE END LIST*
D10*
%TO.C,C3*%
X125502500Y-100330000D03*
X127227500Y-100330000D03*
%TD*%
%TO.C,C4*%
X124232500Y-88265000D03*
X125957500Y-88265000D03*
%TD*%
D11*
%TO.C,R2*%
X116845000Y-76482500D03*
X116845000Y-74657500D03*
%TD*%
D12*
%TO.C,C2*%
X113892500Y-100965000D03*
X112167500Y-100965000D03*
%TD*%
D11*
%TO.C,R4*%
X111765000Y-76482500D03*
X111765000Y-74657500D03*
%TD*%
D13*
%TO.C,R3*%
X121925000Y-74657500D03*
X121925000Y-76482500D03*
%TD*%
D12*
%TO.C,C1*%
X111987500Y-91440000D03*
X110262500Y-91440000D03*
%TD*%
D11*
%TO.C,R1*%
X119385000Y-76482500D03*
X119385000Y-74657500D03*
%TD*%
D14*
%TO.C,U1*%
X118177918Y-88391064D03*
X117612233Y-88956750D03*
X117046548Y-89522435D03*
X116480862Y-90088120D03*
X115915177Y-90653806D03*
X115349491Y-91219491D03*
X114783806Y-91785177D03*
X114218120Y-92350862D03*
X113652435Y-92916548D03*
X113086750Y-93482233D03*
X112521064Y-94047918D03*
D15*
X112521064Y-96452082D03*
X113086750Y-97017767D03*
X113652435Y-97583452D03*
X114218120Y-98149138D03*
X114783806Y-98714823D03*
X115349491Y-99280509D03*
X115915177Y-99846194D03*
X116480862Y-100411880D03*
X117046548Y-100977565D03*
X117612233Y-101543250D03*
X118177918Y-102108936D03*
D14*
X120582082Y-102108936D03*
X121147767Y-101543250D03*
X121713452Y-100977565D03*
X122279138Y-100411880D03*
X122844823Y-99846194D03*
X123410509Y-99280509D03*
X123976194Y-98714823D03*
X124541880Y-98149138D03*
X125107565Y-97583452D03*
X125673250Y-97017767D03*
X126238936Y-96452082D03*
D15*
X126238936Y-94047918D03*
X125673250Y-93482233D03*
X125107565Y-92916548D03*
X124541880Y-92350862D03*
X123976194Y-91785177D03*
X123410509Y-91219491D03*
X122844823Y-90653806D03*
X122279138Y-90088120D03*
X121713452Y-89522435D03*
X121147767Y-88956750D03*
X120582082Y-88391064D03*
%TD*%
M02*
