M48
; DRILL file {KiCad (6.0.6-0)} date Sunday, 09 October 2022 at 21:23:29
; FORMAT={-:-/ absolute / inch / decimal}
; #@! TF.CreationDate,2022-10-09T21:23:29+09:00
; #@! TF.GenerationSoftware,Kicad,Pcbnew,(6.0.6-0)
; #@! TF.FileFunction,MixedPlating,1,2
FMAT,2
INCH
; #@! TA.AperFunction,Plated,PTH,ViaDrill
T1C0.0157
; #@! TA.AperFunction,Plated,PTH,ComponentDrill
T2C0.0394
%
G90
G05
T1
X4.4981Y-3.7099
X4.5491Y-3.5059
X4.7937Y-3.8867
T2
X4.25Y-2.9002
X4.25Y-3.0002
X4.25Y-3.1002
X4.25Y-3.2002
X4.25Y-3.3002
X4.25Y-3.4002
X4.25Y-3.5002
X4.25Y-3.6002
X4.25Y-3.7002
X4.25Y-3.8002
X4.25Y-3.9002
X4.25Y-4.0002
X4.25Y-4.1002
X4.25Y-4.2002
X4.25Y-4.3002
X4.4Y-3.1
X4.4Y-3.2
X4.5Y-3.1
X4.5Y-3.2
X4.6Y-3.1
X4.6Y-3.2
X4.7Y-3.1
X4.7Y-3.2
X4.8Y-3.1
X4.8Y-3.2
X5.0Y-3.1
X5.0Y-3.2
X5.15Y-2.9002
X5.15Y-3.0002
X5.15Y-3.1002
X5.15Y-3.2002
X5.15Y-3.3002
X5.15Y-3.4002
X5.15Y-3.5002
X5.15Y-3.6002
X5.15Y-3.7002
X5.15Y-3.8002
X5.15Y-3.9002
X5.15Y-4.0002
X5.15Y-4.1002
X5.15Y-4.2002
X5.15Y-4.3002
T0
M30
