%TF.GenerationSoftware,KiCad,Pcbnew,(6.0.6-0)*%
%TF.CreationDate,2022-10-09T21:23:26+09:00*%
%TF.ProjectId,EPM3032_DEV,45504d33-3033-4325-9f44-45562e6b6963,rev?*%
%TF.SameCoordinates,Original*%
%TF.FileFunction,Soldermask,Bot*%
%TF.FilePolarity,Negative*%
%FSLAX46Y46*%
G04 Gerber Fmt 4.6, Leading zero omitted, Abs format (unit mm)*
G04 Created by KiCad (PCBNEW (6.0.6-0)) date 2022-10-09 21:23:26*
%MOMM*%
%LPD*%
G01*
G04 APERTURE LIST*
%ADD10R,1.700000X1.700000*%
%ADD11O,1.700000X1.700000*%
G04 APERTURE END LIST*
D10*
%TO.C,J2*%
X127000000Y-78740000D03*
D11*
X127000000Y-81280000D03*
%TD*%
D10*
%TO.C,J1*%
X121920000Y-78740000D03*
D11*
X121920000Y-81280000D03*
X119380000Y-78740000D03*
X119380000Y-81280000D03*
X116840000Y-78740000D03*
X116840000Y-81280000D03*
X114300000Y-78740000D03*
X114300000Y-81280000D03*
X111760000Y-78740000D03*
X111760000Y-81280000D03*
%TD*%
D10*
%TO.C,J3*%
X107950000Y-73665000D03*
D11*
X107950000Y-76205000D03*
X107950000Y-78745000D03*
X107950000Y-81285000D03*
X107950000Y-83825000D03*
X107950000Y-86365000D03*
X107950000Y-88905000D03*
X107950000Y-91445000D03*
X107950000Y-93985000D03*
X107950000Y-96525000D03*
X107950000Y-99065000D03*
X107950000Y-101605000D03*
X107950000Y-104145000D03*
X107950000Y-106685000D03*
X107950000Y-109225000D03*
%TD*%
D10*
%TO.C,J4*%
X130810000Y-73665000D03*
D11*
X130810000Y-76205000D03*
X130810000Y-78745000D03*
X130810000Y-81285000D03*
X130810000Y-83825000D03*
X130810000Y-86365000D03*
X130810000Y-88905000D03*
X130810000Y-91445000D03*
X130810000Y-93985000D03*
X130810000Y-96525000D03*
X130810000Y-99065000D03*
X130810000Y-101605000D03*
X130810000Y-104145000D03*
X130810000Y-106685000D03*
X130810000Y-109225000D03*
%TD*%
M02*
