%TF.GenerationSoftware,KiCad,Pcbnew,(6.0.6-0)*%
%TF.CreationDate,2022-10-09T21:23:26+09:00*%
%TF.ProjectId,EPM3032_DEV,45504d33-3033-4325-9f44-45562e6b6963,rev?*%
%TF.SameCoordinates,Original*%
%TF.FileFunction,Copper,L2,Bot*%
%TF.FilePolarity,Positive*%
%FSLAX46Y46*%
G04 Gerber Fmt 4.6, Leading zero omitted, Abs format (unit mm)*
G04 Created by KiCad (PCBNEW (6.0.6-0)) date 2022-10-09 21:23:26*
%MOMM*%
%LPD*%
G01*
G04 APERTURE LIST*
%TA.AperFunction,ComponentPad*%
%ADD10R,1.700000X1.700000*%
%TD*%
%TA.AperFunction,ComponentPad*%
%ADD11O,1.700000X1.700000*%
%TD*%
%TA.AperFunction,ViaPad*%
%ADD12C,0.800000*%
%TD*%
%TA.AperFunction,Conductor*%
%ADD13C,0.250000*%
%TD*%
G04 APERTURE END LIST*
D10*
%TO.P,J2,1,Pin_1*%
%TO.N,VCC*%
X127000000Y-78740000D03*
D11*
%TO.P,J2,2,Pin_2*%
%TO.N,GND*%
X127000000Y-81280000D03*
%TD*%
D10*
%TO.P,J1,1,Pin_1*%
%TO.N,/TCK*%
X121920000Y-78740000D03*
D11*
%TO.P,J1,2,Pin_2*%
%TO.N,GND*%
X121920000Y-81280000D03*
%TO.P,J1,3,Pin_3*%
%TO.N,/TDO*%
X119380000Y-78740000D03*
%TO.P,J1,4,Pin_4*%
%TO.N,VCC*%
X119380000Y-81280000D03*
%TO.P,J1,5,Pin_5*%
%TO.N,/TMS*%
X116840000Y-78740000D03*
%TO.P,J1,6,Pin_6*%
%TO.N,unconnected-(J1-Pad6)*%
X116840000Y-81280000D03*
%TO.P,J1,7,Pin_7*%
%TO.N,unconnected-(J1-Pad7)*%
X114300000Y-78740000D03*
%TO.P,J1,8,Pin_8*%
%TO.N,unconnected-(J1-Pad8)*%
X114300000Y-81280000D03*
%TO.P,J1,9,Pin_9*%
%TO.N,/TDI*%
X111760000Y-78740000D03*
%TO.P,J1,10,Pin_10*%
%TO.N,GND*%
X111760000Y-81280000D03*
%TD*%
D10*
%TO.P,J3,1,Pin_1*%
%TO.N,/P2*%
X107950000Y-73665000D03*
D11*
%TO.P,J3,2,Pin_2*%
%TO.N,/P3*%
X107950000Y-76205000D03*
%TO.P,J3,3,Pin_3*%
%TO.N,/P5*%
X107950000Y-78745000D03*
%TO.P,J3,4,Pin_4*%
%TO.N,/P6*%
X107950000Y-81285000D03*
%TO.P,J3,5,Pin_5*%
%TO.N,/P8*%
X107950000Y-83825000D03*
%TO.P,J3,6,Pin_6*%
%TO.N,/P10*%
X107950000Y-86365000D03*
%TO.P,J3,7,Pin_7*%
%TO.N,/P12*%
X107950000Y-88905000D03*
%TO.P,J3,8,Pin_8*%
%TO.N,/P13*%
X107950000Y-91445000D03*
%TO.P,J3,9,Pin_9*%
%TO.N,/P14*%
X107950000Y-93985000D03*
%TO.P,J3,10,Pin_10*%
%TO.N,/P15*%
X107950000Y-96525000D03*
%TO.P,J3,11,Pin_11*%
%TO.N,/P18*%
X107950000Y-99065000D03*
%TO.P,J3,12,Pin_12*%
%TO.N,/P19*%
X107950000Y-101605000D03*
%TO.P,J3,13,Pin_13*%
%TO.N,/P20*%
X107950000Y-104145000D03*
%TO.P,J3,14,Pin_14*%
%TO.N,/P21*%
X107950000Y-106685000D03*
%TO.P,J3,15,Pin_15*%
%TO.N,/P22*%
X107950000Y-109225000D03*
%TD*%
D10*
%TO.P,J4,1,Pin_1*%
%TO.N,/P44*%
X130810000Y-73665000D03*
D11*
%TO.P,J4,2,Pin_2*%
%TO.N,/P43*%
X130810000Y-76205000D03*
%TO.P,J4,3,Pin_3*%
%TO.N,/P42*%
X130810000Y-78745000D03*
%TO.P,J4,4,Pin_4*%
%TO.N,/P40*%
X130810000Y-81285000D03*
%TO.P,J4,5,Pin_5*%
%TO.N,/P39*%
X130810000Y-83825000D03*
%TO.P,J4,6,Pin_6*%
%TO.N,/P38*%
X130810000Y-86365000D03*
%TO.P,J4,7,Pin_7*%
%TO.N,/P37*%
X130810000Y-88905000D03*
%TO.P,J4,8,Pin_8*%
%TO.N,/P35*%
X130810000Y-91445000D03*
%TO.P,J4,9,Pin_9*%
%TO.N,/P34*%
X130810000Y-93985000D03*
%TO.P,J4,10,Pin_10*%
%TO.N,/P33*%
X130810000Y-96525000D03*
%TO.P,J4,11,Pin_11*%
%TO.N,/P31*%
X130810000Y-99065000D03*
%TO.P,J4,12,Pin_12*%
%TO.N,/P28*%
X130810000Y-101605000D03*
%TO.P,J4,13,Pin_13*%
%TO.N,/P27*%
X130810000Y-104145000D03*
%TO.P,J4,14,Pin_14*%
%TO.N,/P25*%
X130810000Y-106685000D03*
%TO.P,J4,15,Pin_15*%
%TO.N,/P23*%
X130810000Y-109225000D03*
%TD*%
D12*
%TO.N,/P10*%
X114251100Y-94231700D03*
%TO.N,/TCK*%
X121759400Y-98721800D03*
%TO.N,GND*%
X115548000Y-89048600D03*
%TD*%
D13*
%TO.N,/P10*%
X107950000Y-86365000D02*
X107950000Y-87540300D01*
X114251100Y-93519700D02*
X114251100Y-94231700D01*
X108271700Y-87540300D02*
X114251100Y-93519700D01*
X107950000Y-87540300D02*
X108271700Y-87540300D01*
%TO.N,/TCK*%
X118198000Y-95160400D02*
X121759400Y-98721800D01*
X118198000Y-80733800D02*
X118198000Y-95160400D01*
X119016500Y-79915300D02*
X118198000Y-80733800D01*
X119936800Y-79915300D02*
X119016500Y-79915300D01*
X120744700Y-79107400D02*
X119936800Y-79915300D01*
X120744700Y-78740000D02*
X120744700Y-79107400D01*
X121920000Y-78740000D02*
X120744700Y-78740000D01*
%TO.N,GND*%
X111760000Y-81280000D02*
X111760000Y-82455300D01*
X111760000Y-85260600D02*
X115548000Y-89048600D01*
X111760000Y-82455300D02*
X111760000Y-85260600D01*
X121920000Y-81280000D02*
X126585500Y-81280000D01*
X126585500Y-81280000D02*
X127000000Y-81280000D01*
X112935300Y-80912600D02*
X112935300Y-81280000D01*
X113743200Y-80104700D02*
X112935300Y-80912600D01*
X117139500Y-80104700D02*
X113743200Y-80104700D01*
X118198200Y-79046000D02*
X117139500Y-80104700D01*
X118198200Y-78219900D02*
X118198200Y-79046000D01*
X118861300Y-77556800D02*
X118198200Y-78219900D01*
X128025900Y-77556800D02*
X118861300Y-77556800D01*
X128206300Y-77737200D02*
X128025900Y-77556800D01*
X128206300Y-79693800D02*
X128206300Y-77737200D01*
X126620100Y-81280000D02*
X128206300Y-79693800D01*
X126585500Y-81280000D02*
X126620100Y-81280000D01*
X111760000Y-81280000D02*
X112935300Y-81280000D01*
%TO.N,VCC*%
X120555300Y-80912600D02*
X120555300Y-81280000D01*
X121363200Y-80104700D02*
X120555300Y-80912600D01*
X124460000Y-80104700D02*
X121363200Y-80104700D01*
X125824700Y-78740000D02*
X124460000Y-80104700D01*
X127000000Y-78740000D02*
X125824700Y-78740000D01*
X119380000Y-81280000D02*
X120555300Y-81280000D01*
%TD*%
%TA.AperFunction,Conductor*%
%TO.N,VCC*%
G36*
X132657121Y-71775002D02*
G01*
X132703614Y-71828658D01*
X132715000Y-71881000D01*
X132715000Y-110999000D01*
X132694998Y-111067121D01*
X132641342Y-111113614D01*
X132589000Y-111125000D01*
X106171000Y-111125000D01*
X106102879Y-111104998D01*
X106056386Y-111051342D01*
X106045000Y-110999000D01*
X106045000Y-109191695D01*
X106587251Y-109191695D01*
X106587548Y-109196848D01*
X106587548Y-109196851D01*
X106593011Y-109291590D01*
X106600110Y-109414715D01*
X106601247Y-109419761D01*
X106601248Y-109419767D01*
X106621119Y-109507939D01*
X106649222Y-109632639D01*
X106733266Y-109839616D01*
X106849987Y-110030088D01*
X106996250Y-110198938D01*
X107168126Y-110341632D01*
X107361000Y-110454338D01*
X107569692Y-110534030D01*
X107574760Y-110535061D01*
X107574763Y-110535062D01*
X107682017Y-110556883D01*
X107788597Y-110578567D01*
X107793772Y-110578757D01*
X107793774Y-110578757D01*
X108006673Y-110586564D01*
X108006677Y-110586564D01*
X108011837Y-110586753D01*
X108016957Y-110586097D01*
X108016959Y-110586097D01*
X108228288Y-110559025D01*
X108228289Y-110559025D01*
X108233416Y-110558368D01*
X108238366Y-110556883D01*
X108442429Y-110495661D01*
X108442434Y-110495659D01*
X108447384Y-110494174D01*
X108647994Y-110395896D01*
X108829860Y-110266173D01*
X108988096Y-110108489D01*
X109047594Y-110025689D01*
X109115435Y-109931277D01*
X109118453Y-109927077D01*
X109217430Y-109726811D01*
X109282370Y-109513069D01*
X109311529Y-109291590D01*
X109313156Y-109225000D01*
X109310418Y-109191695D01*
X129447251Y-109191695D01*
X129447548Y-109196848D01*
X129447548Y-109196851D01*
X129453011Y-109291590D01*
X129460110Y-109414715D01*
X129461247Y-109419761D01*
X129461248Y-109419767D01*
X129481119Y-109507939D01*
X129509222Y-109632639D01*
X129593266Y-109839616D01*
X129709987Y-110030088D01*
X129856250Y-110198938D01*
X130028126Y-110341632D01*
X130221000Y-110454338D01*
X130429692Y-110534030D01*
X130434760Y-110535061D01*
X130434763Y-110535062D01*
X130542017Y-110556883D01*
X130648597Y-110578567D01*
X130653772Y-110578757D01*
X130653774Y-110578757D01*
X130866673Y-110586564D01*
X130866677Y-110586564D01*
X130871837Y-110586753D01*
X130876957Y-110586097D01*
X130876959Y-110586097D01*
X131088288Y-110559025D01*
X131088289Y-110559025D01*
X131093416Y-110558368D01*
X131098366Y-110556883D01*
X131302429Y-110495661D01*
X131302434Y-110495659D01*
X131307384Y-110494174D01*
X131507994Y-110395896D01*
X131689860Y-110266173D01*
X131848096Y-110108489D01*
X131907594Y-110025689D01*
X131975435Y-109931277D01*
X131978453Y-109927077D01*
X132077430Y-109726811D01*
X132142370Y-109513069D01*
X132171529Y-109291590D01*
X132173156Y-109225000D01*
X132154852Y-109002361D01*
X132100431Y-108785702D01*
X132011354Y-108580840D01*
X131890014Y-108393277D01*
X131739670Y-108228051D01*
X131735619Y-108224852D01*
X131735615Y-108224848D01*
X131568414Y-108092800D01*
X131568410Y-108092798D01*
X131564359Y-108089598D01*
X131523053Y-108066796D01*
X131473084Y-108016364D01*
X131458312Y-107946921D01*
X131483428Y-107880516D01*
X131510780Y-107853909D01*
X131554603Y-107822650D01*
X131689860Y-107726173D01*
X131848096Y-107568489D01*
X131907594Y-107485689D01*
X131975435Y-107391277D01*
X131978453Y-107387077D01*
X132077430Y-107186811D01*
X132142370Y-106973069D01*
X132171529Y-106751590D01*
X132173156Y-106685000D01*
X132154852Y-106462361D01*
X132100431Y-106245702D01*
X132011354Y-106040840D01*
X131890014Y-105853277D01*
X131739670Y-105688051D01*
X131735619Y-105684852D01*
X131735615Y-105684848D01*
X131568414Y-105552800D01*
X131568410Y-105552798D01*
X131564359Y-105549598D01*
X131523053Y-105526796D01*
X131473084Y-105476364D01*
X131458312Y-105406921D01*
X131483428Y-105340516D01*
X131510780Y-105313909D01*
X131554603Y-105282650D01*
X131689860Y-105186173D01*
X131848096Y-105028489D01*
X131907594Y-104945689D01*
X131975435Y-104851277D01*
X131978453Y-104847077D01*
X132077430Y-104646811D01*
X132142370Y-104433069D01*
X132171529Y-104211590D01*
X132173156Y-104145000D01*
X132154852Y-103922361D01*
X132100431Y-103705702D01*
X132011354Y-103500840D01*
X131890014Y-103313277D01*
X131739670Y-103148051D01*
X131735619Y-103144852D01*
X131735615Y-103144848D01*
X131568414Y-103012800D01*
X131568410Y-103012798D01*
X131564359Y-103009598D01*
X131523053Y-102986796D01*
X131473084Y-102936364D01*
X131458312Y-102866921D01*
X131483428Y-102800516D01*
X131510780Y-102773909D01*
X131554603Y-102742650D01*
X131689860Y-102646173D01*
X131848096Y-102488489D01*
X131907594Y-102405689D01*
X131975435Y-102311277D01*
X131978453Y-102307077D01*
X132077430Y-102106811D01*
X132142370Y-101893069D01*
X132171529Y-101671590D01*
X132173156Y-101605000D01*
X132154852Y-101382361D01*
X132100431Y-101165702D01*
X132011354Y-100960840D01*
X131890014Y-100773277D01*
X131739670Y-100608051D01*
X131735619Y-100604852D01*
X131735615Y-100604848D01*
X131568414Y-100472800D01*
X131568410Y-100472798D01*
X131564359Y-100469598D01*
X131523053Y-100446796D01*
X131473084Y-100396364D01*
X131458312Y-100326921D01*
X131483428Y-100260516D01*
X131510780Y-100233909D01*
X131554603Y-100202650D01*
X131689860Y-100106173D01*
X131848096Y-99948489D01*
X131907594Y-99865689D01*
X131975435Y-99771277D01*
X131978453Y-99767077D01*
X132077430Y-99566811D01*
X132142370Y-99353069D01*
X132171529Y-99131590D01*
X132171611Y-99128240D01*
X132173074Y-99068365D01*
X132173074Y-99068361D01*
X132173156Y-99065000D01*
X132154852Y-98842361D01*
X132100431Y-98625702D01*
X132011354Y-98420840D01*
X131890014Y-98233277D01*
X131739670Y-98068051D01*
X131735619Y-98064852D01*
X131735615Y-98064848D01*
X131568414Y-97932800D01*
X131568410Y-97932798D01*
X131564359Y-97929598D01*
X131523053Y-97906796D01*
X131473084Y-97856364D01*
X131458312Y-97786921D01*
X131483428Y-97720516D01*
X131510780Y-97693909D01*
X131554603Y-97662650D01*
X131689860Y-97566173D01*
X131848096Y-97408489D01*
X131907594Y-97325689D01*
X131975435Y-97231277D01*
X131978453Y-97227077D01*
X132077430Y-97026811D01*
X132142370Y-96813069D01*
X132171529Y-96591590D01*
X132173156Y-96525000D01*
X132154852Y-96302361D01*
X132100431Y-96085702D01*
X132011354Y-95880840D01*
X131890014Y-95693277D01*
X131739670Y-95528051D01*
X131735619Y-95524852D01*
X131735615Y-95524848D01*
X131568414Y-95392800D01*
X131568410Y-95392798D01*
X131564359Y-95389598D01*
X131523053Y-95366796D01*
X131473084Y-95316364D01*
X131458312Y-95246921D01*
X131483428Y-95180516D01*
X131510780Y-95153909D01*
X131574811Y-95108236D01*
X131689860Y-95026173D01*
X131697122Y-95018937D01*
X131771209Y-94945107D01*
X131848096Y-94868489D01*
X131907594Y-94785689D01*
X131975435Y-94691277D01*
X131978453Y-94687077D01*
X132077430Y-94486811D01*
X132142370Y-94273069D01*
X132171529Y-94051590D01*
X132173156Y-93985000D01*
X132154852Y-93762361D01*
X132100431Y-93545702D01*
X132011354Y-93340840D01*
X131940239Y-93230913D01*
X131892822Y-93157617D01*
X131892820Y-93157614D01*
X131890014Y-93153277D01*
X131739670Y-92988051D01*
X131735619Y-92984852D01*
X131735615Y-92984848D01*
X131568414Y-92852800D01*
X131568410Y-92852798D01*
X131564359Y-92849598D01*
X131523053Y-92826796D01*
X131473084Y-92776364D01*
X131458312Y-92706921D01*
X131483428Y-92640516D01*
X131510780Y-92613909D01*
X131554603Y-92582650D01*
X131689860Y-92486173D01*
X131848096Y-92328489D01*
X131907594Y-92245689D01*
X131975435Y-92151277D01*
X131978453Y-92147077D01*
X132077430Y-91946811D01*
X132142370Y-91733069D01*
X132171529Y-91511590D01*
X132173156Y-91445000D01*
X132154852Y-91222361D01*
X132100431Y-91005702D01*
X132011354Y-90800840D01*
X131890014Y-90613277D01*
X131739670Y-90448051D01*
X131735619Y-90444852D01*
X131735615Y-90444848D01*
X131568414Y-90312800D01*
X131568410Y-90312798D01*
X131564359Y-90309598D01*
X131523053Y-90286796D01*
X131473084Y-90236364D01*
X131458312Y-90166921D01*
X131483428Y-90100516D01*
X131510780Y-90073909D01*
X131554603Y-90042650D01*
X131689860Y-89946173D01*
X131848096Y-89788489D01*
X131907594Y-89705689D01*
X131975435Y-89611277D01*
X131978453Y-89607077D01*
X132024267Y-89514380D01*
X132075136Y-89411453D01*
X132075137Y-89411451D01*
X132077430Y-89406811D01*
X132126651Y-89244806D01*
X132140865Y-89198023D01*
X132140865Y-89198021D01*
X132142370Y-89193069D01*
X132171529Y-88971590D01*
X132173156Y-88905000D01*
X132154852Y-88682361D01*
X132100431Y-88465702D01*
X132011354Y-88260840D01*
X131890014Y-88073277D01*
X131739670Y-87908051D01*
X131735619Y-87904852D01*
X131735615Y-87904848D01*
X131568414Y-87772800D01*
X131568410Y-87772798D01*
X131564359Y-87769598D01*
X131523053Y-87746796D01*
X131473084Y-87696364D01*
X131458312Y-87626921D01*
X131483428Y-87560516D01*
X131510780Y-87533909D01*
X131554603Y-87502650D01*
X131689860Y-87406173D01*
X131848096Y-87248489D01*
X131907594Y-87165689D01*
X131975435Y-87071277D01*
X131978453Y-87067077D01*
X132077430Y-86866811D01*
X132142370Y-86653069D01*
X132171529Y-86431590D01*
X132173156Y-86365000D01*
X132154852Y-86142361D01*
X132100431Y-85925702D01*
X132011354Y-85720840D01*
X131938867Y-85608792D01*
X131892822Y-85537617D01*
X131892820Y-85537614D01*
X131890014Y-85533277D01*
X131739670Y-85368051D01*
X131735619Y-85364852D01*
X131735615Y-85364848D01*
X131568414Y-85232800D01*
X131568410Y-85232798D01*
X131564359Y-85229598D01*
X131523053Y-85206796D01*
X131473084Y-85156364D01*
X131458312Y-85086921D01*
X131483428Y-85020516D01*
X131510780Y-84993909D01*
X131577939Y-84946005D01*
X131689860Y-84866173D01*
X131848096Y-84708489D01*
X131907594Y-84625689D01*
X131975435Y-84531277D01*
X131978453Y-84527077D01*
X132077430Y-84326811D01*
X132142370Y-84113069D01*
X132171529Y-83891590D01*
X132173156Y-83825000D01*
X132154852Y-83602361D01*
X132100431Y-83385702D01*
X132011354Y-83180840D01*
X131890014Y-82993277D01*
X131739670Y-82828051D01*
X131735619Y-82824852D01*
X131735615Y-82824848D01*
X131568414Y-82692800D01*
X131568410Y-82692798D01*
X131564359Y-82689598D01*
X131523053Y-82666796D01*
X131473084Y-82616364D01*
X131458312Y-82546921D01*
X131483428Y-82480516D01*
X131510780Y-82453909D01*
X131554603Y-82422650D01*
X131689860Y-82326173D01*
X131848096Y-82168489D01*
X131905222Y-82088990D01*
X131975435Y-81991277D01*
X131978453Y-81987077D01*
X132001791Y-81939857D01*
X132075136Y-81791453D01*
X132075137Y-81791451D01*
X132077430Y-81786811D01*
X132142370Y-81573069D01*
X132171529Y-81351590D01*
X132173156Y-81285000D01*
X132154852Y-81062361D01*
X132100431Y-80845702D01*
X132011354Y-80640840D01*
X131944537Y-80537556D01*
X131892822Y-80457617D01*
X131892820Y-80457614D01*
X131890014Y-80453277D01*
X131739670Y-80288051D01*
X131735619Y-80284852D01*
X131735615Y-80284848D01*
X131568414Y-80152800D01*
X131568410Y-80152798D01*
X131564359Y-80149598D01*
X131523053Y-80126796D01*
X131473084Y-80076364D01*
X131458312Y-80006921D01*
X131483428Y-79940516D01*
X131510780Y-79913909D01*
X131569611Y-79871945D01*
X131689860Y-79786173D01*
X131694539Y-79781511D01*
X131818501Y-79657981D01*
X131848096Y-79628489D01*
X131905222Y-79548990D01*
X131975435Y-79451277D01*
X131978453Y-79447077D01*
X132001791Y-79399857D01*
X132075136Y-79251453D01*
X132075137Y-79251451D01*
X132077430Y-79246811D01*
X132142370Y-79033069D01*
X132171529Y-78811590D01*
X132173156Y-78745000D01*
X132154852Y-78522361D01*
X132100431Y-78305702D01*
X132011354Y-78100840D01*
X131890014Y-77913277D01*
X131739670Y-77748051D01*
X131735619Y-77744852D01*
X131735615Y-77744848D01*
X131568414Y-77612800D01*
X131568410Y-77612798D01*
X131564359Y-77609598D01*
X131523053Y-77586796D01*
X131473084Y-77536364D01*
X131458312Y-77466921D01*
X131483428Y-77400516D01*
X131510780Y-77373909D01*
X131580046Y-77324502D01*
X131689860Y-77246173D01*
X131848096Y-77088489D01*
X131874131Y-77052258D01*
X131975435Y-76911277D01*
X131978453Y-76907077D01*
X132077430Y-76706811D01*
X132142370Y-76493069D01*
X132171529Y-76271590D01*
X132173156Y-76205000D01*
X132154852Y-75982361D01*
X132100431Y-75765702D01*
X132011354Y-75560840D01*
X131890014Y-75373277D01*
X131886532Y-75369450D01*
X131742798Y-75211488D01*
X131711746Y-75147642D01*
X131720141Y-75077143D01*
X131765317Y-75022375D01*
X131791761Y-75008706D01*
X131898297Y-74968767D01*
X131906705Y-74965615D01*
X132023261Y-74878261D01*
X132110615Y-74761705D01*
X132161745Y-74625316D01*
X132168500Y-74563134D01*
X132168500Y-72766866D01*
X132161745Y-72704684D01*
X132110615Y-72568295D01*
X132023261Y-72451739D01*
X131906705Y-72364385D01*
X131770316Y-72313255D01*
X131708134Y-72306500D01*
X129911866Y-72306500D01*
X129849684Y-72313255D01*
X129713295Y-72364385D01*
X129596739Y-72451739D01*
X129509385Y-72568295D01*
X129458255Y-72704684D01*
X129451500Y-72766866D01*
X129451500Y-74563134D01*
X129458255Y-74625316D01*
X129509385Y-74761705D01*
X129596739Y-74878261D01*
X129713295Y-74965615D01*
X129721704Y-74968767D01*
X129721705Y-74968768D01*
X129830451Y-75009535D01*
X129887216Y-75052176D01*
X129911916Y-75118738D01*
X129896709Y-75188087D01*
X129877316Y-75214568D01*
X129750629Y-75347138D01*
X129624743Y-75531680D01*
X129530688Y-75734305D01*
X129470989Y-75949570D01*
X129447251Y-76171695D01*
X129447548Y-76176848D01*
X129447548Y-76176851D01*
X129453011Y-76271590D01*
X129460110Y-76394715D01*
X129461247Y-76399761D01*
X129461248Y-76399767D01*
X129481119Y-76487939D01*
X129509222Y-76612639D01*
X129593266Y-76819616D01*
X129595965Y-76824020D01*
X129706280Y-77004038D01*
X129709987Y-77010088D01*
X129856250Y-77178938D01*
X130028126Y-77321632D01*
X130045037Y-77331514D01*
X130101445Y-77364476D01*
X130150169Y-77416114D01*
X130163240Y-77485897D01*
X130136509Y-77551669D01*
X130096055Y-77585027D01*
X130083607Y-77591507D01*
X130079474Y-77594610D01*
X130079471Y-77594612D01*
X129909100Y-77722530D01*
X129904965Y-77725635D01*
X129750629Y-77887138D01*
X129624743Y-78071680D01*
X129530688Y-78274305D01*
X129470989Y-78489570D01*
X129447251Y-78711695D01*
X129447548Y-78716848D01*
X129447548Y-78716851D01*
X129453011Y-78811590D01*
X129460110Y-78934715D01*
X129461247Y-78939761D01*
X129461248Y-78939767D01*
X129481119Y-79027939D01*
X129509222Y-79152639D01*
X129593266Y-79359616D01*
X129637253Y-79431396D01*
X129704227Y-79540688D01*
X129709987Y-79550088D01*
X129856250Y-79718938D01*
X129987974Y-79828297D01*
X130018123Y-79853327D01*
X130028126Y-79861632D01*
X130067743Y-79884782D01*
X130101445Y-79904476D01*
X130150169Y-79956114D01*
X130163240Y-80025897D01*
X130136509Y-80091669D01*
X130096055Y-80125027D01*
X130083607Y-80131507D01*
X130079474Y-80134610D01*
X130079471Y-80134612D01*
X129911624Y-80260635D01*
X129904965Y-80265635D01*
X129750629Y-80427138D01*
X129747715Y-80431410D01*
X129747714Y-80431411D01*
X129669565Y-80545973D01*
X129624743Y-80611680D01*
X129530688Y-80814305D01*
X129470989Y-81029570D01*
X129447251Y-81251695D01*
X129447548Y-81256848D01*
X129447548Y-81256851D01*
X129452914Y-81349908D01*
X129460110Y-81474715D01*
X129461247Y-81479761D01*
X129461248Y-81479767D01*
X129482265Y-81573023D01*
X129509222Y-81692639D01*
X129593266Y-81899616D01*
X129638643Y-81973665D01*
X129704227Y-82080688D01*
X129709987Y-82090088D01*
X129856250Y-82258938D01*
X129931213Y-82321173D01*
X130018123Y-82393327D01*
X130028126Y-82401632D01*
X130080078Y-82431990D01*
X130101445Y-82444476D01*
X130150169Y-82496114D01*
X130163240Y-82565897D01*
X130136509Y-82631669D01*
X130096055Y-82665027D01*
X130083607Y-82671507D01*
X130079474Y-82674610D01*
X130079471Y-82674612D01*
X130055247Y-82692800D01*
X129904965Y-82805635D01*
X129750629Y-82967138D01*
X129624743Y-83151680D01*
X129530688Y-83354305D01*
X129470989Y-83569570D01*
X129447251Y-83791695D01*
X129447548Y-83796848D01*
X129447548Y-83796851D01*
X129453011Y-83891590D01*
X129460110Y-84014715D01*
X129461247Y-84019761D01*
X129461248Y-84019767D01*
X129481119Y-84107939D01*
X129509222Y-84232639D01*
X129593266Y-84439616D01*
X129709987Y-84630088D01*
X129856250Y-84798938D01*
X130028126Y-84941632D01*
X130035610Y-84946005D01*
X130101445Y-84984476D01*
X130150169Y-85036114D01*
X130163240Y-85105897D01*
X130136509Y-85171669D01*
X130096055Y-85205027D01*
X130083607Y-85211507D01*
X130079474Y-85214610D01*
X130079471Y-85214612D01*
X129909100Y-85342530D01*
X129904965Y-85345635D01*
X129841994Y-85411530D01*
X129827431Y-85426770D01*
X129750629Y-85507138D01*
X129624743Y-85691680D01*
X129530688Y-85894305D01*
X129470989Y-86109570D01*
X129447251Y-86331695D01*
X129447548Y-86336848D01*
X129447548Y-86336851D01*
X129453011Y-86431590D01*
X129460110Y-86554715D01*
X129461247Y-86559761D01*
X129461248Y-86559767D01*
X129481119Y-86647939D01*
X129509222Y-86772639D01*
X129593266Y-86979616D01*
X129709987Y-87170088D01*
X129856250Y-87338938D01*
X130028126Y-87481632D01*
X130098595Y-87522811D01*
X130101445Y-87524476D01*
X130150169Y-87576114D01*
X130163240Y-87645897D01*
X130136509Y-87711669D01*
X130096055Y-87745027D01*
X130083607Y-87751507D01*
X130079474Y-87754610D01*
X130079471Y-87754612D01*
X130055247Y-87772800D01*
X129904965Y-87885635D01*
X129750629Y-88047138D01*
X129747715Y-88051410D01*
X129747714Y-88051411D01*
X129700859Y-88120098D01*
X129624743Y-88231680D01*
X129530688Y-88434305D01*
X129470989Y-88649570D01*
X129447251Y-88871695D01*
X129447548Y-88876848D01*
X129447548Y-88876851D01*
X129457451Y-89048600D01*
X129460110Y-89094715D01*
X129461247Y-89099761D01*
X129461248Y-89099767D01*
X129481119Y-89187939D01*
X129509222Y-89312639D01*
X129593266Y-89519616D01*
X129709987Y-89710088D01*
X129856250Y-89878938D01*
X130028126Y-90021632D01*
X130098595Y-90062811D01*
X130101445Y-90064476D01*
X130150169Y-90116114D01*
X130163240Y-90185897D01*
X130136509Y-90251669D01*
X130096055Y-90285027D01*
X130083607Y-90291507D01*
X130079474Y-90294610D01*
X130079471Y-90294612D01*
X130055247Y-90312800D01*
X129904965Y-90425635D01*
X129750629Y-90587138D01*
X129624743Y-90771680D01*
X129530688Y-90974305D01*
X129470989Y-91189570D01*
X129447251Y-91411695D01*
X129447548Y-91416848D01*
X129447548Y-91416851D01*
X129453011Y-91511590D01*
X129460110Y-91634715D01*
X129461247Y-91639761D01*
X129461248Y-91639767D01*
X129481119Y-91727939D01*
X129509222Y-91852639D01*
X129593266Y-92059616D01*
X129709987Y-92250088D01*
X129856250Y-92418938D01*
X130028126Y-92561632D01*
X130098595Y-92602811D01*
X130101445Y-92604476D01*
X130150169Y-92656114D01*
X130163240Y-92725897D01*
X130136509Y-92791669D01*
X130096055Y-92825027D01*
X130083607Y-92831507D01*
X130079474Y-92834610D01*
X130079471Y-92834612D01*
X130055247Y-92852800D01*
X129904965Y-92965635D01*
X129901393Y-92969373D01*
X129777535Y-93098983D01*
X129750629Y-93127138D01*
X129747715Y-93131410D01*
X129747714Y-93131411D01*
X129673550Y-93240132D01*
X129624743Y-93311680D01*
X129601895Y-93360903D01*
X129533734Y-93507744D01*
X129530688Y-93514305D01*
X129470989Y-93729570D01*
X129447251Y-93951695D01*
X129447548Y-93956848D01*
X129447548Y-93956851D01*
X129452823Y-94048335D01*
X129460110Y-94174715D01*
X129461247Y-94179761D01*
X129461248Y-94179767D01*
X129472952Y-94231700D01*
X129509222Y-94392639D01*
X129593266Y-94599616D01*
X129595965Y-94604020D01*
X129699854Y-94773552D01*
X129709987Y-94790088D01*
X129856250Y-94958938D01*
X129932846Y-95022529D01*
X130018323Y-95093493D01*
X130028126Y-95101632D01*
X130098595Y-95142811D01*
X130101445Y-95144476D01*
X130150169Y-95196114D01*
X130163240Y-95265897D01*
X130136509Y-95331669D01*
X130096055Y-95365027D01*
X130083607Y-95371507D01*
X130079474Y-95374610D01*
X130079471Y-95374612D01*
X129909100Y-95502530D01*
X129904965Y-95505635D01*
X129840497Y-95573097D01*
X129782595Y-95633688D01*
X129750629Y-95667138D01*
X129624743Y-95851680D01*
X129530688Y-96054305D01*
X129470989Y-96269570D01*
X129447251Y-96491695D01*
X129447548Y-96496848D01*
X129447548Y-96496851D01*
X129453011Y-96591590D01*
X129460110Y-96714715D01*
X129461247Y-96719761D01*
X129461248Y-96719767D01*
X129481119Y-96807939D01*
X129509222Y-96932639D01*
X129593266Y-97139616D01*
X129709987Y-97330088D01*
X129856250Y-97498938D01*
X130028126Y-97641632D01*
X130098595Y-97682811D01*
X130101445Y-97684476D01*
X130150169Y-97736114D01*
X130163240Y-97805897D01*
X130136509Y-97871669D01*
X130096055Y-97905027D01*
X130083607Y-97911507D01*
X130079474Y-97914610D01*
X130079471Y-97914612D01*
X130058068Y-97930682D01*
X129904965Y-98045635D01*
X129750629Y-98207138D01*
X129624743Y-98391680D01*
X129530688Y-98594305D01*
X129470989Y-98809570D01*
X129447251Y-99031695D01*
X129447548Y-99036848D01*
X129447548Y-99036851D01*
X129453011Y-99131590D01*
X129460110Y-99254715D01*
X129461247Y-99259761D01*
X129461248Y-99259767D01*
X129462124Y-99263652D01*
X129509222Y-99472639D01*
X129593266Y-99679616D01*
X129709987Y-99870088D01*
X129856250Y-100038938D01*
X130028126Y-100181632D01*
X130098595Y-100222811D01*
X130101445Y-100224476D01*
X130150169Y-100276114D01*
X130163240Y-100345897D01*
X130136509Y-100411669D01*
X130096055Y-100445027D01*
X130083607Y-100451507D01*
X130079474Y-100454610D01*
X130079471Y-100454612D01*
X130055247Y-100472800D01*
X129904965Y-100585635D01*
X129750629Y-100747138D01*
X129624743Y-100931680D01*
X129530688Y-101134305D01*
X129470989Y-101349570D01*
X129447251Y-101571695D01*
X129447548Y-101576848D01*
X129447548Y-101576851D01*
X129453011Y-101671590D01*
X129460110Y-101794715D01*
X129461247Y-101799761D01*
X129461248Y-101799767D01*
X129481119Y-101887939D01*
X129509222Y-102012639D01*
X129593266Y-102219616D01*
X129709987Y-102410088D01*
X129856250Y-102578938D01*
X130028126Y-102721632D01*
X130098595Y-102762811D01*
X130101445Y-102764476D01*
X130150169Y-102816114D01*
X130163240Y-102885897D01*
X130136509Y-102951669D01*
X130096055Y-102985027D01*
X130083607Y-102991507D01*
X130079474Y-102994610D01*
X130079471Y-102994612D01*
X130055247Y-103012800D01*
X129904965Y-103125635D01*
X129750629Y-103287138D01*
X129624743Y-103471680D01*
X129530688Y-103674305D01*
X129470989Y-103889570D01*
X129447251Y-104111695D01*
X129447548Y-104116848D01*
X129447548Y-104116851D01*
X129453011Y-104211590D01*
X129460110Y-104334715D01*
X129461247Y-104339761D01*
X129461248Y-104339767D01*
X129481119Y-104427939D01*
X129509222Y-104552639D01*
X129593266Y-104759616D01*
X129709987Y-104950088D01*
X129856250Y-105118938D01*
X130028126Y-105261632D01*
X130098595Y-105302811D01*
X130101445Y-105304476D01*
X130150169Y-105356114D01*
X130163240Y-105425897D01*
X130136509Y-105491669D01*
X130096055Y-105525027D01*
X130083607Y-105531507D01*
X130079474Y-105534610D01*
X130079471Y-105534612D01*
X130055247Y-105552800D01*
X129904965Y-105665635D01*
X129750629Y-105827138D01*
X129624743Y-106011680D01*
X129530688Y-106214305D01*
X129470989Y-106429570D01*
X129447251Y-106651695D01*
X129447548Y-106656848D01*
X129447548Y-106656851D01*
X129453011Y-106751590D01*
X129460110Y-106874715D01*
X129461247Y-106879761D01*
X129461248Y-106879767D01*
X129481119Y-106967939D01*
X129509222Y-107092639D01*
X129593266Y-107299616D01*
X129709987Y-107490088D01*
X129856250Y-107658938D01*
X130028126Y-107801632D01*
X130098595Y-107842811D01*
X130101445Y-107844476D01*
X130150169Y-107896114D01*
X130163240Y-107965897D01*
X130136509Y-108031669D01*
X130096055Y-108065027D01*
X130083607Y-108071507D01*
X130079474Y-108074610D01*
X130079471Y-108074612D01*
X130055247Y-108092800D01*
X129904965Y-108205635D01*
X129750629Y-108367138D01*
X129624743Y-108551680D01*
X129530688Y-108754305D01*
X129470989Y-108969570D01*
X129447251Y-109191695D01*
X109310418Y-109191695D01*
X109294852Y-109002361D01*
X109240431Y-108785702D01*
X109151354Y-108580840D01*
X109030014Y-108393277D01*
X108879670Y-108228051D01*
X108875619Y-108224852D01*
X108875615Y-108224848D01*
X108708414Y-108092800D01*
X108708410Y-108092798D01*
X108704359Y-108089598D01*
X108663053Y-108066796D01*
X108613084Y-108016364D01*
X108598312Y-107946921D01*
X108623428Y-107880516D01*
X108650780Y-107853909D01*
X108694603Y-107822650D01*
X108829860Y-107726173D01*
X108988096Y-107568489D01*
X109047594Y-107485689D01*
X109115435Y-107391277D01*
X109118453Y-107387077D01*
X109217430Y-107186811D01*
X109282370Y-106973069D01*
X109311529Y-106751590D01*
X109313156Y-106685000D01*
X109294852Y-106462361D01*
X109240431Y-106245702D01*
X109151354Y-106040840D01*
X109030014Y-105853277D01*
X108879670Y-105688051D01*
X108875619Y-105684852D01*
X108875615Y-105684848D01*
X108708414Y-105552800D01*
X108708410Y-105552798D01*
X108704359Y-105549598D01*
X108663053Y-105526796D01*
X108613084Y-105476364D01*
X108598312Y-105406921D01*
X108623428Y-105340516D01*
X108650780Y-105313909D01*
X108694603Y-105282650D01*
X108829860Y-105186173D01*
X108988096Y-105028489D01*
X109047594Y-104945689D01*
X109115435Y-104851277D01*
X109118453Y-104847077D01*
X109217430Y-104646811D01*
X109282370Y-104433069D01*
X109311529Y-104211590D01*
X109313156Y-104145000D01*
X109294852Y-103922361D01*
X109240431Y-103705702D01*
X109151354Y-103500840D01*
X109030014Y-103313277D01*
X108879670Y-103148051D01*
X108875619Y-103144852D01*
X108875615Y-103144848D01*
X108708414Y-103012800D01*
X108708410Y-103012798D01*
X108704359Y-103009598D01*
X108663053Y-102986796D01*
X108613084Y-102936364D01*
X108598312Y-102866921D01*
X108623428Y-102800516D01*
X108650780Y-102773909D01*
X108694603Y-102742650D01*
X108829860Y-102646173D01*
X108988096Y-102488489D01*
X109047594Y-102405689D01*
X109115435Y-102311277D01*
X109118453Y-102307077D01*
X109217430Y-102106811D01*
X109282370Y-101893069D01*
X109311529Y-101671590D01*
X109313156Y-101605000D01*
X109294852Y-101382361D01*
X109240431Y-101165702D01*
X109151354Y-100960840D01*
X109030014Y-100773277D01*
X108879670Y-100608051D01*
X108875619Y-100604852D01*
X108875615Y-100604848D01*
X108708414Y-100472800D01*
X108708410Y-100472798D01*
X108704359Y-100469598D01*
X108663053Y-100446796D01*
X108613084Y-100396364D01*
X108598312Y-100326921D01*
X108623428Y-100260516D01*
X108650780Y-100233909D01*
X108694603Y-100202650D01*
X108829860Y-100106173D01*
X108988096Y-99948489D01*
X109047594Y-99865689D01*
X109115435Y-99771277D01*
X109118453Y-99767077D01*
X109217430Y-99566811D01*
X109282370Y-99353069D01*
X109311529Y-99131590D01*
X109311611Y-99128240D01*
X109313074Y-99068365D01*
X109313074Y-99068361D01*
X109313156Y-99065000D01*
X109294852Y-98842361D01*
X109240431Y-98625702D01*
X109151354Y-98420840D01*
X109030014Y-98233277D01*
X108879670Y-98068051D01*
X108875619Y-98064852D01*
X108875615Y-98064848D01*
X108708414Y-97932800D01*
X108708410Y-97932798D01*
X108704359Y-97929598D01*
X108663053Y-97906796D01*
X108613084Y-97856364D01*
X108598312Y-97786921D01*
X108623428Y-97720516D01*
X108650780Y-97693909D01*
X108694603Y-97662650D01*
X108829860Y-97566173D01*
X108988096Y-97408489D01*
X109047594Y-97325689D01*
X109115435Y-97231277D01*
X109118453Y-97227077D01*
X109217430Y-97026811D01*
X109282370Y-96813069D01*
X109311529Y-96591590D01*
X109313156Y-96525000D01*
X109294852Y-96302361D01*
X109240431Y-96085702D01*
X109151354Y-95880840D01*
X109030014Y-95693277D01*
X108879670Y-95528051D01*
X108875619Y-95524852D01*
X108875615Y-95524848D01*
X108708414Y-95392800D01*
X108708410Y-95392798D01*
X108704359Y-95389598D01*
X108663053Y-95366796D01*
X108613084Y-95316364D01*
X108598312Y-95246921D01*
X108623428Y-95180516D01*
X108650780Y-95153909D01*
X108714811Y-95108236D01*
X108829860Y-95026173D01*
X108837122Y-95018937D01*
X108911209Y-94945107D01*
X108988096Y-94868489D01*
X109047594Y-94785689D01*
X109115435Y-94691277D01*
X109118453Y-94687077D01*
X109217430Y-94486811D01*
X109282370Y-94273069D01*
X109311529Y-94051590D01*
X109313156Y-93985000D01*
X109294852Y-93762361D01*
X109240431Y-93545702D01*
X109151354Y-93340840D01*
X109080239Y-93230913D01*
X109032822Y-93157617D01*
X109032820Y-93157614D01*
X109030014Y-93153277D01*
X108879670Y-92988051D01*
X108875619Y-92984852D01*
X108875615Y-92984848D01*
X108708414Y-92852800D01*
X108708410Y-92852798D01*
X108704359Y-92849598D01*
X108663053Y-92826796D01*
X108613084Y-92776364D01*
X108598312Y-92706921D01*
X108623428Y-92640516D01*
X108650780Y-92613909D01*
X108694603Y-92582650D01*
X108829860Y-92486173D01*
X108988096Y-92328489D01*
X109047594Y-92245689D01*
X109115435Y-92151277D01*
X109118453Y-92147077D01*
X109217430Y-91946811D01*
X109282370Y-91733069D01*
X109311529Y-91511590D01*
X109313156Y-91445000D01*
X109294852Y-91222361D01*
X109240431Y-91005702D01*
X109151354Y-90800840D01*
X109030014Y-90613277D01*
X108879670Y-90448051D01*
X108875619Y-90444852D01*
X108875615Y-90444848D01*
X108708414Y-90312800D01*
X108708410Y-90312798D01*
X108704359Y-90309598D01*
X108663053Y-90286796D01*
X108613084Y-90236364D01*
X108598312Y-90166921D01*
X108623428Y-90100516D01*
X108650780Y-90073909D01*
X108694603Y-90042650D01*
X108829860Y-89946173D01*
X108988096Y-89788489D01*
X109047594Y-89705689D01*
X109115435Y-89611277D01*
X109118453Y-89607077D01*
X109147825Y-89547647D01*
X109195937Y-89495442D01*
X109264638Y-89477534D01*
X109332114Y-89499612D01*
X109349876Y-89514380D01*
X113450353Y-93614857D01*
X113484379Y-93677169D01*
X113479314Y-93747984D01*
X113470377Y-93766952D01*
X113470048Y-93767522D01*
X113416573Y-93860144D01*
X113357558Y-94041772D01*
X113337596Y-94231700D01*
X113357558Y-94421628D01*
X113416573Y-94603256D01*
X113512060Y-94768644D01*
X113516478Y-94773551D01*
X113516479Y-94773552D01*
X113581536Y-94845805D01*
X113639847Y-94910566D01*
X113794348Y-95022818D01*
X113800376Y-95025502D01*
X113800378Y-95025503D01*
X113953087Y-95093493D01*
X113968812Y-95100494D01*
X114062213Y-95120347D01*
X114149156Y-95138828D01*
X114149161Y-95138828D01*
X114155613Y-95140200D01*
X114346587Y-95140200D01*
X114353039Y-95138828D01*
X114353044Y-95138828D01*
X114439987Y-95120347D01*
X114533388Y-95100494D01*
X114549113Y-95093493D01*
X114701822Y-95025503D01*
X114701824Y-95025502D01*
X114707852Y-95022818D01*
X114862353Y-94910566D01*
X114920664Y-94845805D01*
X114985721Y-94773552D01*
X114985722Y-94773551D01*
X114990140Y-94768644D01*
X115085627Y-94603256D01*
X115144642Y-94421628D01*
X115164604Y-94231700D01*
X115144642Y-94041772D01*
X115085627Y-93860144D01*
X115031823Y-93766952D01*
X114993443Y-93700477D01*
X114990140Y-93694756D01*
X114985720Y-93689847D01*
X114985717Y-93689843D01*
X114917662Y-93614260D01*
X114886944Y-93550253D01*
X114885360Y-93533909D01*
X114884662Y-93511703D01*
X114884600Y-93507744D01*
X114884600Y-93479844D01*
X114884096Y-93475853D01*
X114883163Y-93464011D01*
X114882023Y-93427736D01*
X114881774Y-93419811D01*
X114876121Y-93400352D01*
X114872112Y-93380993D01*
X114871946Y-93379683D01*
X114869574Y-93360903D01*
X114866658Y-93353537D01*
X114866656Y-93353531D01*
X114853300Y-93319798D01*
X114849455Y-93308568D01*
X114839330Y-93273717D01*
X114839330Y-93273716D01*
X114837119Y-93266107D01*
X114826805Y-93248666D01*
X114818108Y-93230913D01*
X114813572Y-93219458D01*
X114810652Y-93212083D01*
X114784663Y-93176312D01*
X114778147Y-93166392D01*
X114755642Y-93128338D01*
X114741321Y-93114017D01*
X114728480Y-93098983D01*
X114721231Y-93089006D01*
X114716572Y-93082593D01*
X114682495Y-93054402D01*
X114673716Y-93046412D01*
X109016833Y-87389528D01*
X108982807Y-87327216D01*
X108987872Y-87256401D01*
X109003605Y-87226907D01*
X109115435Y-87071277D01*
X109118453Y-87067077D01*
X109217430Y-86866811D01*
X109282370Y-86653069D01*
X109311529Y-86431590D01*
X109313156Y-86365000D01*
X109294852Y-86142361D01*
X109240431Y-85925702D01*
X109151354Y-85720840D01*
X109078867Y-85608792D01*
X109032822Y-85537617D01*
X109032820Y-85537614D01*
X109030014Y-85533277D01*
X108879670Y-85368051D01*
X108875619Y-85364852D01*
X108875615Y-85364848D01*
X108708414Y-85232800D01*
X108708410Y-85232798D01*
X108704359Y-85229598D01*
X108663053Y-85206796D01*
X108613084Y-85156364D01*
X108598312Y-85086921D01*
X108623428Y-85020516D01*
X108650780Y-84993909D01*
X108717939Y-84946005D01*
X108829860Y-84866173D01*
X108988096Y-84708489D01*
X109047594Y-84625689D01*
X109115435Y-84531277D01*
X109118453Y-84527077D01*
X109217430Y-84326811D01*
X109282370Y-84113069D01*
X109311529Y-83891590D01*
X109313156Y-83825000D01*
X109294852Y-83602361D01*
X109240431Y-83385702D01*
X109151354Y-83180840D01*
X109030014Y-82993277D01*
X108879670Y-82828051D01*
X108875619Y-82824852D01*
X108875615Y-82824848D01*
X108708414Y-82692800D01*
X108708410Y-82692798D01*
X108704359Y-82689598D01*
X108663053Y-82666796D01*
X108613084Y-82616364D01*
X108598312Y-82546921D01*
X108623428Y-82480516D01*
X108650780Y-82453909D01*
X108694603Y-82422650D01*
X108829860Y-82326173D01*
X108988096Y-82168489D01*
X109045222Y-82088990D01*
X109115435Y-81991277D01*
X109118453Y-81987077D01*
X109141791Y-81939857D01*
X109215136Y-81791453D01*
X109215137Y-81791451D01*
X109217430Y-81786811D01*
X109282370Y-81573069D01*
X109311529Y-81351590D01*
X109313156Y-81285000D01*
X109310007Y-81246695D01*
X110397251Y-81246695D01*
X110397548Y-81251848D01*
X110397548Y-81251851D01*
X110403011Y-81346590D01*
X110410110Y-81469715D01*
X110411247Y-81474761D01*
X110411248Y-81474767D01*
X110412375Y-81479767D01*
X110459222Y-81687639D01*
X110543266Y-81894616D01*
X110591707Y-81973665D01*
X110657291Y-82080688D01*
X110659987Y-82085088D01*
X110806250Y-82253938D01*
X110978126Y-82396632D01*
X111060002Y-82444476D01*
X111064070Y-82446853D01*
X111112794Y-82498491D01*
X111126500Y-82555641D01*
X111126500Y-85181833D01*
X111125973Y-85193016D01*
X111124298Y-85200509D01*
X111124547Y-85208435D01*
X111124547Y-85208436D01*
X111126438Y-85268586D01*
X111126500Y-85272545D01*
X111126500Y-85300456D01*
X111126997Y-85304390D01*
X111126997Y-85304391D01*
X111127005Y-85304456D01*
X111127938Y-85316293D01*
X111129327Y-85360489D01*
X111134978Y-85379939D01*
X111138987Y-85399300D01*
X111141526Y-85419397D01*
X111144445Y-85426768D01*
X111144445Y-85426770D01*
X111157804Y-85460512D01*
X111161649Y-85471742D01*
X111173982Y-85514193D01*
X111178015Y-85521012D01*
X111178017Y-85521017D01*
X111184293Y-85531628D01*
X111192988Y-85549376D01*
X111200448Y-85568217D01*
X111205110Y-85574633D01*
X111205110Y-85574634D01*
X111226436Y-85603987D01*
X111232952Y-85613907D01*
X111255458Y-85651962D01*
X111269779Y-85666283D01*
X111282619Y-85681316D01*
X111294528Y-85697707D01*
X111300634Y-85702758D01*
X111328605Y-85725898D01*
X111337384Y-85733888D01*
X114600878Y-88997383D01*
X114634904Y-89059695D01*
X114637093Y-89073306D01*
X114654458Y-89238528D01*
X114713473Y-89420156D01*
X114808960Y-89585544D01*
X114936747Y-89727466D01*
X115091248Y-89839718D01*
X115097276Y-89842402D01*
X115097278Y-89842403D01*
X115186754Y-89882240D01*
X115265712Y-89917394D01*
X115359113Y-89937247D01*
X115446056Y-89955728D01*
X115446061Y-89955728D01*
X115452513Y-89957100D01*
X115643487Y-89957100D01*
X115649939Y-89955728D01*
X115649944Y-89955728D01*
X115736887Y-89937247D01*
X115830288Y-89917394D01*
X115909246Y-89882240D01*
X115998722Y-89842403D01*
X115998724Y-89842402D01*
X116004752Y-89839718D01*
X116159253Y-89727466D01*
X116287040Y-89585544D01*
X116382527Y-89420156D01*
X116441542Y-89238528D01*
X116461504Y-89048600D01*
X116441542Y-88858672D01*
X116382527Y-88677044D01*
X116363789Y-88644588D01*
X116290341Y-88517374D01*
X116287040Y-88511656D01*
X116159253Y-88369734D01*
X116004752Y-88257482D01*
X115998724Y-88254798D01*
X115998722Y-88254797D01*
X115836319Y-88182491D01*
X115836318Y-88182491D01*
X115830288Y-88179806D01*
X115736888Y-88159953D01*
X115649944Y-88141472D01*
X115649939Y-88141472D01*
X115643487Y-88140100D01*
X115587594Y-88140100D01*
X115519473Y-88120098D01*
X115498499Y-88103195D01*
X112430405Y-85035100D01*
X112396379Y-84972788D01*
X112393500Y-84946005D01*
X112393500Y-82560427D01*
X112413502Y-82492306D01*
X112454618Y-82452550D01*
X112457994Y-82450896D01*
X112639860Y-82321173D01*
X112798096Y-82163489D01*
X112857594Y-82080689D01*
X112928453Y-81982077D01*
X112929776Y-81983028D01*
X112976645Y-81939857D01*
X113046580Y-81927625D01*
X113112026Y-81955144D01*
X113139875Y-81986994D01*
X113199987Y-82085088D01*
X113346250Y-82253938D01*
X113518126Y-82396632D01*
X113711000Y-82509338D01*
X113715825Y-82511180D01*
X113715826Y-82511181D01*
X113725269Y-82514787D01*
X113919692Y-82589030D01*
X113924760Y-82590061D01*
X113924763Y-82590062D01*
X114032017Y-82611883D01*
X114138597Y-82633567D01*
X114143772Y-82633757D01*
X114143774Y-82633757D01*
X114356673Y-82641564D01*
X114356677Y-82641564D01*
X114361837Y-82641753D01*
X114366957Y-82641097D01*
X114366959Y-82641097D01*
X114578288Y-82614025D01*
X114578289Y-82614025D01*
X114583416Y-82613368D01*
X114588366Y-82611883D01*
X114792429Y-82550661D01*
X114792434Y-82550659D01*
X114797384Y-82549174D01*
X114997994Y-82450896D01*
X115179860Y-82321173D01*
X115338096Y-82163489D01*
X115397594Y-82080689D01*
X115468453Y-81982077D01*
X115469776Y-81983028D01*
X115516645Y-81939857D01*
X115586580Y-81927625D01*
X115652026Y-81955144D01*
X115679875Y-81986994D01*
X115739987Y-82085088D01*
X115886250Y-82253938D01*
X116058126Y-82396632D01*
X116251000Y-82509338D01*
X116255825Y-82511180D01*
X116255826Y-82511181D01*
X116265269Y-82514787D01*
X116459692Y-82589030D01*
X116464760Y-82590061D01*
X116464763Y-82590062D01*
X116572017Y-82611883D01*
X116678597Y-82633567D01*
X116683772Y-82633757D01*
X116683774Y-82633757D01*
X116896673Y-82641564D01*
X116896677Y-82641564D01*
X116901837Y-82641753D01*
X116906957Y-82641097D01*
X116906959Y-82641097D01*
X117118288Y-82614025D01*
X117118289Y-82614025D01*
X117123416Y-82613368D01*
X117128366Y-82611883D01*
X117332429Y-82550661D01*
X117332434Y-82550659D01*
X117337384Y-82549174D01*
X117383070Y-82526793D01*
X117453042Y-82514787D01*
X117518399Y-82542518D01*
X117558389Y-82601181D01*
X117564500Y-82639945D01*
X117564500Y-95081633D01*
X117563973Y-95092816D01*
X117562298Y-95100309D01*
X117562547Y-95108235D01*
X117562547Y-95108236D01*
X117564438Y-95168386D01*
X117564500Y-95172345D01*
X117564500Y-95200256D01*
X117564997Y-95204190D01*
X117564997Y-95204191D01*
X117565005Y-95204256D01*
X117565938Y-95216093D01*
X117567327Y-95260289D01*
X117572978Y-95279739D01*
X117576987Y-95299100D01*
X117579526Y-95319197D01*
X117582445Y-95326568D01*
X117582445Y-95326570D01*
X117595804Y-95360312D01*
X117599649Y-95371542D01*
X117611982Y-95413993D01*
X117616015Y-95420812D01*
X117616017Y-95420817D01*
X117622293Y-95431428D01*
X117630988Y-95449176D01*
X117638448Y-95468017D01*
X117643110Y-95474433D01*
X117643110Y-95474434D01*
X117664436Y-95503787D01*
X117670952Y-95513707D01*
X117681694Y-95531870D01*
X117693458Y-95551762D01*
X117707779Y-95566083D01*
X117720619Y-95581116D01*
X117732528Y-95597507D01*
X117738634Y-95602558D01*
X117766605Y-95625698D01*
X117775384Y-95633688D01*
X120812278Y-98670582D01*
X120846304Y-98732894D01*
X120848492Y-98746503D01*
X120865858Y-98911728D01*
X120924873Y-99093356D01*
X121020360Y-99258744D01*
X121024778Y-99263651D01*
X121024779Y-99263652D01*
X121109751Y-99358023D01*
X121148147Y-99400666D01*
X121302648Y-99512918D01*
X121308676Y-99515602D01*
X121308678Y-99515603D01*
X121412567Y-99561857D01*
X121477112Y-99590594D01*
X121570512Y-99610447D01*
X121657456Y-99628928D01*
X121657461Y-99628928D01*
X121663913Y-99630300D01*
X121854887Y-99630300D01*
X121861339Y-99628928D01*
X121861344Y-99628928D01*
X121948288Y-99610447D01*
X122041688Y-99590594D01*
X122106233Y-99561857D01*
X122210122Y-99515603D01*
X122210124Y-99515602D01*
X122216152Y-99512918D01*
X122370653Y-99400666D01*
X122409049Y-99358023D01*
X122494021Y-99263652D01*
X122494022Y-99263651D01*
X122498440Y-99258744D01*
X122593927Y-99093356D01*
X122652942Y-98911728D01*
X122672904Y-98721800D01*
X122659504Y-98594305D01*
X122653632Y-98538435D01*
X122653632Y-98538433D01*
X122652942Y-98531872D01*
X122593927Y-98350244D01*
X122498440Y-98184856D01*
X122393269Y-98068051D01*
X122375075Y-98047845D01*
X122375074Y-98047844D01*
X122370653Y-98042934D01*
X122216152Y-97930682D01*
X122210124Y-97927998D01*
X122210122Y-97927997D01*
X122047719Y-97855691D01*
X122047718Y-97855691D01*
X122041688Y-97853006D01*
X121948287Y-97833153D01*
X121861344Y-97814672D01*
X121861339Y-97814672D01*
X121854887Y-97813300D01*
X121798995Y-97813300D01*
X121730874Y-97793298D01*
X121709900Y-97776395D01*
X118868405Y-94934900D01*
X118834379Y-94872588D01*
X118831500Y-94845805D01*
X118831500Y-81048395D01*
X118851502Y-80980274D01*
X118868405Y-80959299D01*
X119242001Y-80585704D01*
X119304313Y-80551679D01*
X119331096Y-80548800D01*
X119858033Y-80548800D01*
X119869216Y-80549327D01*
X119876709Y-80551002D01*
X119884635Y-80550753D01*
X119884636Y-80550753D01*
X119944786Y-80548862D01*
X119948745Y-80548800D01*
X119976656Y-80548800D01*
X119980591Y-80548303D01*
X119980656Y-80548295D01*
X119992493Y-80547362D01*
X120024751Y-80546348D01*
X120028770Y-80546222D01*
X120036689Y-80545973D01*
X120056143Y-80540321D01*
X120075500Y-80536313D01*
X120087730Y-80534768D01*
X120087731Y-80534768D01*
X120095597Y-80533774D01*
X120102968Y-80530855D01*
X120102970Y-80530855D01*
X120136712Y-80517496D01*
X120147942Y-80513651D01*
X120182783Y-80503529D01*
X120182784Y-80503529D01*
X120190393Y-80501318D01*
X120197212Y-80497285D01*
X120197217Y-80497283D01*
X120207828Y-80491007D01*
X120225576Y-80482312D01*
X120244417Y-80474852D01*
X120280187Y-80448864D01*
X120290107Y-80442348D01*
X120321335Y-80423880D01*
X120321338Y-80423878D01*
X120328162Y-80419842D01*
X120342483Y-80405521D01*
X120357517Y-80392680D01*
X120367494Y-80385431D01*
X120373907Y-80380772D01*
X120402098Y-80346695D01*
X120410088Y-80337916D01*
X120682559Y-80065445D01*
X120744871Y-80031419D01*
X120815686Y-80036484D01*
X120821065Y-80038944D01*
X120823295Y-80040615D01*
X120831200Y-80043578D01*
X120831199Y-80043578D01*
X120940451Y-80084535D01*
X120997216Y-80127176D01*
X121021916Y-80193738D01*
X121006709Y-80263087D01*
X120987316Y-80289568D01*
X120876509Y-80405521D01*
X120860629Y-80422138D01*
X120857715Y-80426410D01*
X120857714Y-80426411D01*
X120775985Y-80546222D01*
X120734743Y-80606680D01*
X120640688Y-80809305D01*
X120580989Y-81024570D01*
X120557251Y-81246695D01*
X120557548Y-81251848D01*
X120557548Y-81251851D01*
X120563011Y-81346590D01*
X120570110Y-81469715D01*
X120571247Y-81474761D01*
X120571248Y-81474767D01*
X120572375Y-81479767D01*
X120619222Y-81687639D01*
X120703266Y-81894616D01*
X120751707Y-81973665D01*
X120817291Y-82080688D01*
X120819987Y-82085088D01*
X120966250Y-82253938D01*
X121138126Y-82396632D01*
X121331000Y-82509338D01*
X121335825Y-82511180D01*
X121335826Y-82511181D01*
X121345269Y-82514787D01*
X121539692Y-82589030D01*
X121544760Y-82590061D01*
X121544763Y-82590062D01*
X121652017Y-82611883D01*
X121758597Y-82633567D01*
X121763772Y-82633757D01*
X121763774Y-82633757D01*
X121976673Y-82641564D01*
X121976677Y-82641564D01*
X121981837Y-82641753D01*
X121986957Y-82641097D01*
X121986959Y-82641097D01*
X122198288Y-82614025D01*
X122198289Y-82614025D01*
X122203416Y-82613368D01*
X122208366Y-82611883D01*
X122412429Y-82550661D01*
X122412434Y-82550659D01*
X122417384Y-82549174D01*
X122617994Y-82450896D01*
X122799860Y-82321173D01*
X122958096Y-82163489D01*
X123017594Y-82080689D01*
X123085435Y-81986277D01*
X123088453Y-81982077D01*
X123090746Y-81977437D01*
X123092446Y-81974608D01*
X123144674Y-81926518D01*
X123200451Y-81913500D01*
X125724274Y-81913500D01*
X125792395Y-81933502D01*
X125831707Y-81973665D01*
X125899987Y-82085088D01*
X126046250Y-82253938D01*
X126218126Y-82396632D01*
X126411000Y-82509338D01*
X126415825Y-82511180D01*
X126415826Y-82511181D01*
X126425269Y-82514787D01*
X126619692Y-82589030D01*
X126624760Y-82590061D01*
X126624763Y-82590062D01*
X126732017Y-82611883D01*
X126838597Y-82633567D01*
X126843772Y-82633757D01*
X126843774Y-82633757D01*
X127056673Y-82641564D01*
X127056677Y-82641564D01*
X127061837Y-82641753D01*
X127066957Y-82641097D01*
X127066959Y-82641097D01*
X127278288Y-82614025D01*
X127278289Y-82614025D01*
X127283416Y-82613368D01*
X127288366Y-82611883D01*
X127492429Y-82550661D01*
X127492434Y-82550659D01*
X127497384Y-82549174D01*
X127697994Y-82450896D01*
X127879860Y-82321173D01*
X128038096Y-82163489D01*
X128097594Y-82080689D01*
X128165435Y-81986277D01*
X128168453Y-81982077D01*
X128172145Y-81974608D01*
X128265136Y-81786453D01*
X128265137Y-81786451D01*
X128267430Y-81781811D01*
X128332370Y-81568069D01*
X128361529Y-81346590D01*
X128363156Y-81280000D01*
X128344852Y-81057361D01*
X128290431Y-80840702D01*
X128223080Y-80685806D01*
X128214260Y-80615360D01*
X128249535Y-80546469D01*
X128598547Y-80197457D01*
X128606837Y-80189913D01*
X128613318Y-80185800D01*
X128659959Y-80136132D01*
X128662713Y-80133291D01*
X128682435Y-80113569D01*
X128684912Y-80110376D01*
X128692617Y-80101355D01*
X128701641Y-80091745D01*
X128722886Y-80069121D01*
X128726707Y-80062171D01*
X128732646Y-80051368D01*
X128743502Y-80034841D01*
X128751057Y-80025102D01*
X128751058Y-80025100D01*
X128755914Y-80018840D01*
X128773474Y-79978260D01*
X128778691Y-79967612D01*
X128796175Y-79935809D01*
X128796176Y-79935807D01*
X128799995Y-79928860D01*
X128802027Y-79920948D01*
X128805033Y-79909238D01*
X128811437Y-79890534D01*
X128816333Y-79879220D01*
X128816333Y-79879219D01*
X128819481Y-79871945D01*
X128820720Y-79864122D01*
X128820723Y-79864112D01*
X128826399Y-79828276D01*
X128828805Y-79816656D01*
X128837828Y-79781511D01*
X128837828Y-79781510D01*
X128839800Y-79773830D01*
X128839800Y-79753576D01*
X128841351Y-79733865D01*
X128843280Y-79721686D01*
X128844520Y-79713857D01*
X128840359Y-79669838D01*
X128839800Y-79657981D01*
X128839800Y-77815967D01*
X128840327Y-77804784D01*
X128842002Y-77797291D01*
X128840354Y-77744848D01*
X128839862Y-77729214D01*
X128839800Y-77725255D01*
X128839800Y-77697344D01*
X128839295Y-77693344D01*
X128838362Y-77681501D01*
X128837938Y-77667990D01*
X128836973Y-77637310D01*
X128831322Y-77617858D01*
X128827314Y-77598506D01*
X128826128Y-77589118D01*
X128824774Y-77578403D01*
X128821856Y-77571032D01*
X128808500Y-77537297D01*
X128804655Y-77526070D01*
X128804021Y-77523887D01*
X128792318Y-77483607D01*
X128786740Y-77474174D01*
X128782007Y-77466172D01*
X128773312Y-77448424D01*
X128765852Y-77429583D01*
X128739864Y-77393813D01*
X128733348Y-77383893D01*
X128714880Y-77352665D01*
X128714878Y-77352662D01*
X128710842Y-77345838D01*
X128696518Y-77331514D01*
X128683683Y-77316487D01*
X128671772Y-77300093D01*
X128637703Y-77271908D01*
X128628925Y-77263920D01*
X128529548Y-77164544D01*
X128522012Y-77156262D01*
X128517900Y-77149782D01*
X128496805Y-77129972D01*
X128468248Y-77103156D01*
X128465406Y-77100401D01*
X128445670Y-77080665D01*
X128442473Y-77078185D01*
X128433451Y-77070480D01*
X128420022Y-77057869D01*
X128401221Y-77040214D01*
X128394275Y-77036395D01*
X128394272Y-77036393D01*
X128383466Y-77030452D01*
X128366947Y-77019601D01*
X128359713Y-77013990D01*
X128350941Y-77007186D01*
X128343672Y-77004041D01*
X128343668Y-77004038D01*
X128310363Y-76989626D01*
X128299713Y-76984409D01*
X128260960Y-76963105D01*
X128241337Y-76958067D01*
X128222634Y-76951663D01*
X128211320Y-76946767D01*
X128211319Y-76946767D01*
X128204045Y-76943619D01*
X128196222Y-76942380D01*
X128196212Y-76942377D01*
X128160376Y-76936701D01*
X128148756Y-76934295D01*
X128113611Y-76925272D01*
X128113610Y-76925272D01*
X128105930Y-76923300D01*
X128085676Y-76923300D01*
X128065965Y-76921749D01*
X128053786Y-76919820D01*
X128045957Y-76918580D01*
X128016686Y-76921347D01*
X128001939Y-76922741D01*
X127990081Y-76923300D01*
X118940067Y-76923300D01*
X118928884Y-76922773D01*
X118921391Y-76921098D01*
X118913465Y-76921347D01*
X118913464Y-76921347D01*
X118853314Y-76923238D01*
X118849355Y-76923300D01*
X118821444Y-76923300D01*
X118817510Y-76923797D01*
X118817509Y-76923797D01*
X118817444Y-76923805D01*
X118805607Y-76924738D01*
X118773349Y-76925752D01*
X118769330Y-76925878D01*
X118761411Y-76926127D01*
X118741957Y-76931779D01*
X118722600Y-76935787D01*
X118710370Y-76937332D01*
X118710369Y-76937332D01*
X118702503Y-76938326D01*
X118695132Y-76941245D01*
X118695130Y-76941245D01*
X118661388Y-76954604D01*
X118650158Y-76958449D01*
X118615317Y-76968571D01*
X118615316Y-76968571D01*
X118607707Y-76970782D01*
X118600888Y-76974815D01*
X118600883Y-76974817D01*
X118590272Y-76981093D01*
X118572524Y-76989788D01*
X118553683Y-76997248D01*
X118547267Y-77001910D01*
X118547266Y-77001910D01*
X118517913Y-77023236D01*
X118507993Y-77029752D01*
X118476765Y-77048220D01*
X118476762Y-77048222D01*
X118469938Y-77052258D01*
X118455617Y-77066579D01*
X118440584Y-77079419D01*
X118424193Y-77091328D01*
X118397816Y-77123213D01*
X118396012Y-77125393D01*
X118388022Y-77134174D01*
X117854205Y-77667990D01*
X117791893Y-77702015D01*
X117721077Y-77696950D01*
X117687018Y-77677776D01*
X117598414Y-77607800D01*
X117598410Y-77607798D01*
X117594359Y-77604598D01*
X117583324Y-77598506D01*
X117498478Y-77551669D01*
X117398789Y-77496638D01*
X117393920Y-77494914D01*
X117393916Y-77494912D01*
X117193087Y-77423795D01*
X117193083Y-77423794D01*
X117188212Y-77422069D01*
X117183119Y-77421162D01*
X117183116Y-77421161D01*
X116973373Y-77383800D01*
X116973367Y-77383799D01*
X116968284Y-77382894D01*
X116894452Y-77381992D01*
X116750081Y-77380228D01*
X116750079Y-77380228D01*
X116744911Y-77380165D01*
X116524091Y-77413955D01*
X116311756Y-77483357D01*
X116281443Y-77499137D01*
X116129175Y-77578403D01*
X116113607Y-77586507D01*
X116109474Y-77589610D01*
X116109471Y-77589612D01*
X115939100Y-77717530D01*
X115934965Y-77720635D01*
X115909894Y-77746870D01*
X115843864Y-77815967D01*
X115780629Y-77882138D01*
X115673201Y-78039621D01*
X115618293Y-78084621D01*
X115547768Y-78092792D01*
X115484021Y-78061538D01*
X115463324Y-78037054D01*
X115382822Y-77912617D01*
X115382820Y-77912614D01*
X115380014Y-77908277D01*
X115229670Y-77743051D01*
X115225619Y-77739852D01*
X115225615Y-77739848D01*
X115058414Y-77607800D01*
X115058410Y-77607798D01*
X115054359Y-77604598D01*
X115043324Y-77598506D01*
X114958478Y-77551669D01*
X114858789Y-77496638D01*
X114853920Y-77494914D01*
X114853916Y-77494912D01*
X114653087Y-77423795D01*
X114653083Y-77423794D01*
X114648212Y-77422069D01*
X114643119Y-77421162D01*
X114643116Y-77421161D01*
X114433373Y-77383800D01*
X114433367Y-77383799D01*
X114428284Y-77382894D01*
X114354452Y-77381992D01*
X114210081Y-77380228D01*
X114210079Y-77380228D01*
X114204911Y-77380165D01*
X113984091Y-77413955D01*
X113771756Y-77483357D01*
X113741443Y-77499137D01*
X113589175Y-77578403D01*
X113573607Y-77586507D01*
X113569474Y-77589610D01*
X113569471Y-77589612D01*
X113399100Y-77717530D01*
X113394965Y-77720635D01*
X113369894Y-77746870D01*
X113303864Y-77815967D01*
X113240629Y-77882138D01*
X113133201Y-78039621D01*
X113078293Y-78084621D01*
X113007768Y-78092792D01*
X112944021Y-78061538D01*
X112923324Y-78037054D01*
X112842822Y-77912617D01*
X112842820Y-77912614D01*
X112840014Y-77908277D01*
X112689670Y-77743051D01*
X112685619Y-77739852D01*
X112685615Y-77739848D01*
X112518414Y-77607800D01*
X112518410Y-77607798D01*
X112514359Y-77604598D01*
X112503324Y-77598506D01*
X112418478Y-77551669D01*
X112318789Y-77496638D01*
X112313920Y-77494914D01*
X112313916Y-77494912D01*
X112113087Y-77423795D01*
X112113083Y-77423794D01*
X112108212Y-77422069D01*
X112103119Y-77421162D01*
X112103116Y-77421161D01*
X111893373Y-77383800D01*
X111893367Y-77383799D01*
X111888284Y-77382894D01*
X111814452Y-77381992D01*
X111670081Y-77380228D01*
X111670079Y-77380228D01*
X111664911Y-77380165D01*
X111444091Y-77413955D01*
X111231756Y-77483357D01*
X111201443Y-77499137D01*
X111049175Y-77578403D01*
X111033607Y-77586507D01*
X111029474Y-77589610D01*
X111029471Y-77589612D01*
X110859100Y-77717530D01*
X110854965Y-77720635D01*
X110829894Y-77746870D01*
X110763864Y-77815967D01*
X110700629Y-77882138D01*
X110574743Y-78066680D01*
X110560905Y-78096492D01*
X110512076Y-78201686D01*
X110480688Y-78269305D01*
X110420989Y-78484570D01*
X110397251Y-78706695D01*
X110397548Y-78711848D01*
X110397548Y-78711851D01*
X110403106Y-78808240D01*
X110410110Y-78929715D01*
X110411247Y-78934761D01*
X110411248Y-78934767D01*
X110412375Y-78939767D01*
X110459222Y-79147639D01*
X110543266Y-79354616D01*
X110590317Y-79431396D01*
X110657291Y-79540688D01*
X110659987Y-79545088D01*
X110806250Y-79713938D01*
X110978126Y-79856632D01*
X111016781Y-79879220D01*
X111051445Y-79899476D01*
X111100169Y-79951114D01*
X111113240Y-80020897D01*
X111086509Y-80086669D01*
X111046055Y-80120027D01*
X111033607Y-80126507D01*
X111029474Y-80129610D01*
X111029471Y-80129612D01*
X110905567Y-80222642D01*
X110854965Y-80260635D01*
X110830259Y-80286488D01*
X110716509Y-80405521D01*
X110700629Y-80422138D01*
X110697715Y-80426410D01*
X110697714Y-80426411D01*
X110615985Y-80546222D01*
X110574743Y-80606680D01*
X110480688Y-80809305D01*
X110420989Y-81024570D01*
X110397251Y-81246695D01*
X109310007Y-81246695D01*
X109294852Y-81062361D01*
X109240431Y-80845702D01*
X109151354Y-80640840D01*
X109084537Y-80537556D01*
X109032822Y-80457617D01*
X109032820Y-80457614D01*
X109030014Y-80453277D01*
X108879670Y-80288051D01*
X108875619Y-80284852D01*
X108875615Y-80284848D01*
X108708414Y-80152800D01*
X108708410Y-80152798D01*
X108704359Y-80149598D01*
X108663053Y-80126796D01*
X108613084Y-80076364D01*
X108598312Y-80006921D01*
X108623428Y-79940516D01*
X108650780Y-79913909D01*
X108709611Y-79871945D01*
X108829860Y-79786173D01*
X108834539Y-79781511D01*
X108958501Y-79657981D01*
X108988096Y-79628489D01*
X109045222Y-79548990D01*
X109115435Y-79451277D01*
X109118453Y-79447077D01*
X109141791Y-79399857D01*
X109215136Y-79251453D01*
X109215137Y-79251451D01*
X109217430Y-79246811D01*
X109282370Y-79033069D01*
X109311529Y-78811590D01*
X109313156Y-78745000D01*
X109294852Y-78522361D01*
X109240431Y-78305702D01*
X109151354Y-78100840D01*
X109030014Y-77913277D01*
X108879670Y-77748051D01*
X108875619Y-77744852D01*
X108875615Y-77744848D01*
X108708414Y-77612800D01*
X108708410Y-77612798D01*
X108704359Y-77609598D01*
X108663053Y-77586796D01*
X108613084Y-77536364D01*
X108598312Y-77466921D01*
X108623428Y-77400516D01*
X108650780Y-77373909D01*
X108720046Y-77324502D01*
X108829860Y-77246173D01*
X108988096Y-77088489D01*
X109014131Y-77052258D01*
X109115435Y-76911277D01*
X109118453Y-76907077D01*
X109217430Y-76706811D01*
X109282370Y-76493069D01*
X109311529Y-76271590D01*
X109313156Y-76205000D01*
X109294852Y-75982361D01*
X109240431Y-75765702D01*
X109151354Y-75560840D01*
X109030014Y-75373277D01*
X109026532Y-75369450D01*
X108882798Y-75211488D01*
X108851746Y-75147642D01*
X108860141Y-75077143D01*
X108905317Y-75022375D01*
X108931761Y-75008706D01*
X109038297Y-74968767D01*
X109046705Y-74965615D01*
X109163261Y-74878261D01*
X109250615Y-74761705D01*
X109301745Y-74625316D01*
X109308500Y-74563134D01*
X109308500Y-72766866D01*
X109301745Y-72704684D01*
X109250615Y-72568295D01*
X109163261Y-72451739D01*
X109046705Y-72364385D01*
X108910316Y-72313255D01*
X108848134Y-72306500D01*
X107051866Y-72306500D01*
X106989684Y-72313255D01*
X106853295Y-72364385D01*
X106736739Y-72451739D01*
X106649385Y-72568295D01*
X106598255Y-72704684D01*
X106591500Y-72766866D01*
X106591500Y-74563134D01*
X106598255Y-74625316D01*
X106649385Y-74761705D01*
X106736739Y-74878261D01*
X106853295Y-74965615D01*
X106861704Y-74968767D01*
X106861705Y-74968768D01*
X106970451Y-75009535D01*
X107027216Y-75052176D01*
X107051916Y-75118738D01*
X107036709Y-75188087D01*
X107017316Y-75214568D01*
X106890629Y-75347138D01*
X106764743Y-75531680D01*
X106670688Y-75734305D01*
X106610989Y-75949570D01*
X106587251Y-76171695D01*
X106587548Y-76176848D01*
X106587548Y-76176851D01*
X106593011Y-76271590D01*
X106600110Y-76394715D01*
X106601247Y-76399761D01*
X106601248Y-76399767D01*
X106621119Y-76487939D01*
X106649222Y-76612639D01*
X106733266Y-76819616D01*
X106735965Y-76824020D01*
X106846280Y-77004038D01*
X106849987Y-77010088D01*
X106996250Y-77178938D01*
X107168126Y-77321632D01*
X107185037Y-77331514D01*
X107241445Y-77364476D01*
X107290169Y-77416114D01*
X107303240Y-77485897D01*
X107276509Y-77551669D01*
X107236055Y-77585027D01*
X107223607Y-77591507D01*
X107219474Y-77594610D01*
X107219471Y-77594612D01*
X107049100Y-77722530D01*
X107044965Y-77725635D01*
X106890629Y-77887138D01*
X106764743Y-78071680D01*
X106670688Y-78274305D01*
X106610989Y-78489570D01*
X106587251Y-78711695D01*
X106587548Y-78716848D01*
X106587548Y-78716851D01*
X106593011Y-78811590D01*
X106600110Y-78934715D01*
X106601247Y-78939761D01*
X106601248Y-78939767D01*
X106621119Y-79027939D01*
X106649222Y-79152639D01*
X106733266Y-79359616D01*
X106777253Y-79431396D01*
X106844227Y-79540688D01*
X106849987Y-79550088D01*
X106996250Y-79718938D01*
X107127974Y-79828297D01*
X107158123Y-79853327D01*
X107168126Y-79861632D01*
X107207743Y-79884782D01*
X107241445Y-79904476D01*
X107290169Y-79956114D01*
X107303240Y-80025897D01*
X107276509Y-80091669D01*
X107236055Y-80125027D01*
X107223607Y-80131507D01*
X107219474Y-80134610D01*
X107219471Y-80134612D01*
X107051624Y-80260635D01*
X107044965Y-80265635D01*
X106890629Y-80427138D01*
X106887715Y-80431410D01*
X106887714Y-80431411D01*
X106809565Y-80545973D01*
X106764743Y-80611680D01*
X106670688Y-80814305D01*
X106610989Y-81029570D01*
X106587251Y-81251695D01*
X106587548Y-81256848D01*
X106587548Y-81256851D01*
X106592914Y-81349908D01*
X106600110Y-81474715D01*
X106601247Y-81479761D01*
X106601248Y-81479767D01*
X106622265Y-81573023D01*
X106649222Y-81692639D01*
X106733266Y-81899616D01*
X106778643Y-81973665D01*
X106844227Y-82080688D01*
X106849987Y-82090088D01*
X106996250Y-82258938D01*
X107071213Y-82321173D01*
X107158123Y-82393327D01*
X107168126Y-82401632D01*
X107220078Y-82431990D01*
X107241445Y-82444476D01*
X107290169Y-82496114D01*
X107303240Y-82565897D01*
X107276509Y-82631669D01*
X107236055Y-82665027D01*
X107223607Y-82671507D01*
X107219474Y-82674610D01*
X107219471Y-82674612D01*
X107195247Y-82692800D01*
X107044965Y-82805635D01*
X106890629Y-82967138D01*
X106764743Y-83151680D01*
X106670688Y-83354305D01*
X106610989Y-83569570D01*
X106587251Y-83791695D01*
X106587548Y-83796848D01*
X106587548Y-83796851D01*
X106593011Y-83891590D01*
X106600110Y-84014715D01*
X106601247Y-84019761D01*
X106601248Y-84019767D01*
X106621119Y-84107939D01*
X106649222Y-84232639D01*
X106733266Y-84439616D01*
X106849987Y-84630088D01*
X106996250Y-84798938D01*
X107168126Y-84941632D01*
X107175610Y-84946005D01*
X107241445Y-84984476D01*
X107290169Y-85036114D01*
X107303240Y-85105897D01*
X107276509Y-85171669D01*
X107236055Y-85205027D01*
X107223607Y-85211507D01*
X107219474Y-85214610D01*
X107219471Y-85214612D01*
X107049100Y-85342530D01*
X107044965Y-85345635D01*
X106981994Y-85411530D01*
X106967431Y-85426770D01*
X106890629Y-85507138D01*
X106764743Y-85691680D01*
X106670688Y-85894305D01*
X106610989Y-86109570D01*
X106587251Y-86331695D01*
X106587548Y-86336848D01*
X106587548Y-86336851D01*
X106593011Y-86431590D01*
X106600110Y-86554715D01*
X106601247Y-86559761D01*
X106601248Y-86559767D01*
X106621119Y-86647939D01*
X106649222Y-86772639D01*
X106733266Y-86979616D01*
X106849987Y-87170088D01*
X106996250Y-87338938D01*
X107168126Y-87481632D01*
X107172593Y-87484242D01*
X107241445Y-87524476D01*
X107290169Y-87576114D01*
X107303240Y-87645897D01*
X107276509Y-87711669D01*
X107236054Y-87745028D01*
X107223607Y-87751507D01*
X107044965Y-87885635D01*
X106890629Y-88047138D01*
X106887715Y-88051410D01*
X106887714Y-88051411D01*
X106840859Y-88120098D01*
X106764743Y-88231680D01*
X106670688Y-88434305D01*
X106610989Y-88649570D01*
X106587251Y-88871695D01*
X106587548Y-88876848D01*
X106587548Y-88876851D01*
X106597451Y-89048600D01*
X106600110Y-89094715D01*
X106601247Y-89099761D01*
X106601248Y-89099767D01*
X106621119Y-89187939D01*
X106649222Y-89312639D01*
X106733266Y-89519616D01*
X106849987Y-89710088D01*
X106996250Y-89878938D01*
X107168126Y-90021632D01*
X107238595Y-90062811D01*
X107241445Y-90064476D01*
X107290169Y-90116114D01*
X107303240Y-90185897D01*
X107276509Y-90251669D01*
X107236055Y-90285027D01*
X107223607Y-90291507D01*
X107219474Y-90294610D01*
X107219471Y-90294612D01*
X107195247Y-90312800D01*
X107044965Y-90425635D01*
X106890629Y-90587138D01*
X106764743Y-90771680D01*
X106670688Y-90974305D01*
X106610989Y-91189570D01*
X106587251Y-91411695D01*
X106587548Y-91416848D01*
X106587548Y-91416851D01*
X106593011Y-91511590D01*
X106600110Y-91634715D01*
X106601247Y-91639761D01*
X106601248Y-91639767D01*
X106621119Y-91727939D01*
X106649222Y-91852639D01*
X106733266Y-92059616D01*
X106849987Y-92250088D01*
X106996250Y-92418938D01*
X107168126Y-92561632D01*
X107238595Y-92602811D01*
X107241445Y-92604476D01*
X107290169Y-92656114D01*
X107303240Y-92725897D01*
X107276509Y-92791669D01*
X107236055Y-92825027D01*
X107223607Y-92831507D01*
X107219474Y-92834610D01*
X107219471Y-92834612D01*
X107195247Y-92852800D01*
X107044965Y-92965635D01*
X107041393Y-92969373D01*
X106917535Y-93098983D01*
X106890629Y-93127138D01*
X106887715Y-93131410D01*
X106887714Y-93131411D01*
X106813550Y-93240132D01*
X106764743Y-93311680D01*
X106741895Y-93360903D01*
X106673734Y-93507744D01*
X106670688Y-93514305D01*
X106610989Y-93729570D01*
X106587251Y-93951695D01*
X106587548Y-93956848D01*
X106587548Y-93956851D01*
X106592823Y-94048335D01*
X106600110Y-94174715D01*
X106601247Y-94179761D01*
X106601248Y-94179767D01*
X106612952Y-94231700D01*
X106649222Y-94392639D01*
X106733266Y-94599616D01*
X106735965Y-94604020D01*
X106839854Y-94773552D01*
X106849987Y-94790088D01*
X106996250Y-94958938D01*
X107072846Y-95022529D01*
X107158323Y-95093493D01*
X107168126Y-95101632D01*
X107238595Y-95142811D01*
X107241445Y-95144476D01*
X107290169Y-95196114D01*
X107303240Y-95265897D01*
X107276509Y-95331669D01*
X107236055Y-95365027D01*
X107223607Y-95371507D01*
X107219474Y-95374610D01*
X107219471Y-95374612D01*
X107049100Y-95502530D01*
X107044965Y-95505635D01*
X106980497Y-95573097D01*
X106922595Y-95633688D01*
X106890629Y-95667138D01*
X106764743Y-95851680D01*
X106670688Y-96054305D01*
X106610989Y-96269570D01*
X106587251Y-96491695D01*
X106587548Y-96496848D01*
X106587548Y-96496851D01*
X106593011Y-96591590D01*
X106600110Y-96714715D01*
X106601247Y-96719761D01*
X106601248Y-96719767D01*
X106621119Y-96807939D01*
X106649222Y-96932639D01*
X106733266Y-97139616D01*
X106849987Y-97330088D01*
X106996250Y-97498938D01*
X107168126Y-97641632D01*
X107238595Y-97682811D01*
X107241445Y-97684476D01*
X107290169Y-97736114D01*
X107303240Y-97805897D01*
X107276509Y-97871669D01*
X107236055Y-97905027D01*
X107223607Y-97911507D01*
X107219474Y-97914610D01*
X107219471Y-97914612D01*
X107198068Y-97930682D01*
X107044965Y-98045635D01*
X106890629Y-98207138D01*
X106764743Y-98391680D01*
X106670688Y-98594305D01*
X106610989Y-98809570D01*
X106587251Y-99031695D01*
X106587548Y-99036848D01*
X106587548Y-99036851D01*
X106593011Y-99131590D01*
X106600110Y-99254715D01*
X106601247Y-99259761D01*
X106601248Y-99259767D01*
X106602124Y-99263652D01*
X106649222Y-99472639D01*
X106733266Y-99679616D01*
X106849987Y-99870088D01*
X106996250Y-100038938D01*
X107168126Y-100181632D01*
X107238595Y-100222811D01*
X107241445Y-100224476D01*
X107290169Y-100276114D01*
X107303240Y-100345897D01*
X107276509Y-100411669D01*
X107236055Y-100445027D01*
X107223607Y-100451507D01*
X107219474Y-100454610D01*
X107219471Y-100454612D01*
X107195247Y-100472800D01*
X107044965Y-100585635D01*
X106890629Y-100747138D01*
X106764743Y-100931680D01*
X106670688Y-101134305D01*
X106610989Y-101349570D01*
X106587251Y-101571695D01*
X106587548Y-101576848D01*
X106587548Y-101576851D01*
X106593011Y-101671590D01*
X106600110Y-101794715D01*
X106601247Y-101799761D01*
X106601248Y-101799767D01*
X106621119Y-101887939D01*
X106649222Y-102012639D01*
X106733266Y-102219616D01*
X106849987Y-102410088D01*
X106996250Y-102578938D01*
X107168126Y-102721632D01*
X107238595Y-102762811D01*
X107241445Y-102764476D01*
X107290169Y-102816114D01*
X107303240Y-102885897D01*
X107276509Y-102951669D01*
X107236055Y-102985027D01*
X107223607Y-102991507D01*
X107219474Y-102994610D01*
X107219471Y-102994612D01*
X107195247Y-103012800D01*
X107044965Y-103125635D01*
X106890629Y-103287138D01*
X106764743Y-103471680D01*
X106670688Y-103674305D01*
X106610989Y-103889570D01*
X106587251Y-104111695D01*
X106587548Y-104116848D01*
X106587548Y-104116851D01*
X106593011Y-104211590D01*
X106600110Y-104334715D01*
X106601247Y-104339761D01*
X106601248Y-104339767D01*
X106621119Y-104427939D01*
X106649222Y-104552639D01*
X106733266Y-104759616D01*
X106849987Y-104950088D01*
X106996250Y-105118938D01*
X107168126Y-105261632D01*
X107238595Y-105302811D01*
X107241445Y-105304476D01*
X107290169Y-105356114D01*
X107303240Y-105425897D01*
X107276509Y-105491669D01*
X107236055Y-105525027D01*
X107223607Y-105531507D01*
X107219474Y-105534610D01*
X107219471Y-105534612D01*
X107195247Y-105552800D01*
X107044965Y-105665635D01*
X106890629Y-105827138D01*
X106764743Y-106011680D01*
X106670688Y-106214305D01*
X106610989Y-106429570D01*
X106587251Y-106651695D01*
X106587548Y-106656848D01*
X106587548Y-106656851D01*
X106593011Y-106751590D01*
X106600110Y-106874715D01*
X106601247Y-106879761D01*
X106601248Y-106879767D01*
X106621119Y-106967939D01*
X106649222Y-107092639D01*
X106733266Y-107299616D01*
X106849987Y-107490088D01*
X106996250Y-107658938D01*
X107168126Y-107801632D01*
X107238595Y-107842811D01*
X107241445Y-107844476D01*
X107290169Y-107896114D01*
X107303240Y-107965897D01*
X107276509Y-108031669D01*
X107236055Y-108065027D01*
X107223607Y-108071507D01*
X107219474Y-108074610D01*
X107219471Y-108074612D01*
X107195247Y-108092800D01*
X107044965Y-108205635D01*
X106890629Y-108367138D01*
X106764743Y-108551680D01*
X106670688Y-108754305D01*
X106610989Y-108969570D01*
X106587251Y-109191695D01*
X106045000Y-109191695D01*
X106045000Y-71881000D01*
X106065002Y-71812879D01*
X106118658Y-71766386D01*
X106171000Y-71755000D01*
X132589000Y-71755000D01*
X132657121Y-71775002D01*
G37*
%TD.AperFunction*%
%TA.AperFunction,Conductor*%
G36*
X127514921Y-78210302D02*
G01*
X127561414Y-78263958D01*
X127572800Y-78316300D01*
X127572800Y-79379206D01*
X127552798Y-79447327D01*
X127535895Y-79468301D01*
X127119414Y-79884782D01*
X127057102Y-79918808D01*
X127028780Y-79921678D01*
X126910081Y-79920228D01*
X126910079Y-79920228D01*
X126904911Y-79920165D01*
X126684091Y-79953955D01*
X126471756Y-80023357D01*
X126438604Y-80040615D01*
X126298461Y-80113569D01*
X126273607Y-80126507D01*
X126269474Y-80129610D01*
X126269471Y-80129612D01*
X126145567Y-80222642D01*
X126094965Y-80260635D01*
X126070259Y-80286488D01*
X125956509Y-80405521D01*
X125940629Y-80422138D01*
X125937715Y-80426410D01*
X125937714Y-80426411D01*
X125825095Y-80591504D01*
X125770184Y-80636507D01*
X125721007Y-80646500D01*
X123196805Y-80646500D01*
X123128684Y-80626498D01*
X123091013Y-80588940D01*
X123002822Y-80452617D01*
X123002820Y-80452614D01*
X123000014Y-80448277D01*
X122980779Y-80427138D01*
X122852798Y-80286488D01*
X122821746Y-80222642D01*
X122830141Y-80152143D01*
X122875317Y-80097375D01*
X122901761Y-80083706D01*
X123008297Y-80043767D01*
X123016705Y-80040615D01*
X123133261Y-79953261D01*
X123220615Y-79836705D01*
X123271745Y-79700316D01*
X123278500Y-79638134D01*
X123278500Y-78316300D01*
X123298502Y-78248179D01*
X123352158Y-78201686D01*
X123404500Y-78190300D01*
X127446800Y-78190300D01*
X127514921Y-78210302D01*
G37*
%TD.AperFunction*%
%TD*%
M02*
